solid OpenSCAD_Model
  facet normal 0.707107 0.707107 0
    outer loop
      vertex 0.779423 0.45 0
      vertex 0.45 0.779423 -0.0999994
      vertex 0.45 0.779423 0
    endloop
  endfacet
  facet normal 0.707107 0.707107 0
    outer loop
      vertex 0.45 0.779423 -0.0999994
      vertex 0.779423 0.45 0
      vertex 0.779423 0.45 -0.0999994
    endloop
  endfacet
  facet normal 0.965926 0.258819 0
    outer loop
      vertex 0.9 0 0
      vertex 0.779423 0.45 -0.0999994
      vertex 0.779423 0.45 0
    endloop
  endfacet
  facet normal 0.965926 0.258819 0
    outer loop
      vertex 0.779423 0.45 -0.0999994
      vertex 0.9 0 0
      vertex 0.9 0 -0.0999994
    endloop
  endfacet
  facet normal 0.258819 0.965926 -0
    outer loop
      vertex 0.45 0.779423 -0.0999994
      vertex 0 0.9 0
      vertex 0.45 0.779423 0
    endloop
  endfacet
  facet normal 0.258819 0.965926 0
    outer loop
      vertex 0 0.9 0
      vertex 0.45 0.779423 -0.0999994
      vertex 0 0.9 -0.0999994
    endloop
  endfacet
  facet normal 0 0 -1
    outer loop
      vertex 0.67733 -0.131251 -0.0999994
      vertex 0.9 0 -0.0999994
      vertex 0.779423 -0.45 -0.0999994
    endloop
  endfacet
  facet normal 0 0 -1
    outer loop
      vertex 0.67733 0.131251 -0.0999994
      vertex 0.9 0 -0.0999994
      vertex 0.712499 0 -0.0999994
    endloop
  endfacet
  facet normal -0 0 -1
    outer loop
      vertex 0.9 0 -0.0999994
      vertex 0.67733 -0.131251 -0.0999994
      vertex 0.712499 0 -0.0999994
    endloop
  endfacet
  facet normal 0 0 -1
    outer loop
      vertex 0.779423 -0.45 -0.0999994
      vertex 0.617042 -0.356249 -0.0999994
      vertex 0.67733 -0.131251 -0.0999994
    endloop
  endfacet
  facet normal 0 0 -1
    outer loop
      vertex 0.45 -0.779423 -0.0999994
      vertex 0.617042 -0.356249 -0.0999994
      vertex 0.779423 -0.45 -0.0999994
    endloop
  endfacet
  facet normal 0 0 -1
    outer loop
      vertex 0.45 -0.779423 -0.0999994
      vertex 0.356249 -0.617042 -0.0999994
      vertex 0.617042 -0.356249 -0.0999994
    endloop
  endfacet
  facet normal 0 0 -1
    outer loop
      vertex 0.45 -0.779423 -0.0999994
      vertex 0.131251 -0.67733 -0.0999994
      vertex 0.356249 -0.617042 -0.0999994
    endloop
  endfacet
  facet normal 0 0 -1
    outer loop
      vertex 0 -0.9 -0.0999994
      vertex 0.131251 -0.67733 -0.0999994
      vertex 0.45 -0.779423 -0.0999994
    endloop
  endfacet
  facet normal 0 0 -1
    outer loop
      vertex 0 -0.9 -0.0999994
      vertex 0 -0.712499 -0.0999994
      vertex 0.131251 -0.67733 -0.0999994
    endloop
  endfacet
  facet normal 0 0 -1
    outer loop
      vertex 0 -0.9 -0.0999994
      vertex -0.131251 -0.67733 -0.0999994
      vertex 0 -0.712499 -0.0999994
    endloop
  endfacet
  facet normal 0 0 -1
    outer loop
      vertex -0.45 -0.779423 -0.0999994
      vertex -0.131251 -0.67733 -0.0999994
      vertex 0 -0.9 -0.0999994
    endloop
  endfacet
  facet normal -0 0 -1
    outer loop
      vertex -0.131251 -0.67733 -0.0999994
      vertex -0.45 -0.779423 -0.0999994
      vertex -0.356249 -0.617042 -0.0999994
    endloop
  endfacet
  facet normal 0 0 -1
    outer loop
      vertex -0.45 -0.779423 -0.0999994
      vertex -0.617042 -0.356249 -0.0999994
      vertex -0.356249 -0.617042 -0.0999994
    endloop
  endfacet
  facet normal 0 0 -1
    outer loop
      vertex -0.9 0 -0.0999994
      vertex -0.67733 -0.131251 -0.0999994
      vertex -0.779423 -0.45 -0.0999994
    endloop
  endfacet
  facet normal -0 0 -1
    outer loop
      vertex -0.617042 -0.356249 -0.0999994
      vertex -0.779423 -0.45 -0.0999994
      vertex -0.67733 -0.131251 -0.0999994
    endloop
  endfacet
  facet normal 0 0 -1
    outer loop
      vertex -0.779423 -0.45 -0.0999994
      vertex -0.617042 -0.356249 -0.0999994
      vertex -0.45 -0.779423 -0.0999994
    endloop
  endfacet
  facet normal 0 0 -1
    outer loop
      vertex 0.9 0 -0.0999994
      vertex 0.67733 0.131251 -0.0999994
      vertex 0.779423 0.45 -0.0999994
    endloop
  endfacet
  facet normal 0 0 -1
    outer loop
      vertex 0.617042 0.356249 -0.0999994
      vertex 0.779423 0.45 -0.0999994
      vertex 0.67733 0.131251 -0.0999994
    endloop
  endfacet
  facet normal 0 0 -1
    outer loop
      vertex 0.617042 0.356249 -0.0999994
      vertex 0.45 0.779423 -0.0999994
      vertex 0.779423 0.45 -0.0999994
    endloop
  endfacet
  facet normal 0 0 -1
    outer loop
      vertex 0.356249 0.617042 -0.0999994
      vertex 0.45 0.779423 -0.0999994
      vertex 0.617042 0.356249 -0.0999994
    endloop
  endfacet
  facet normal 0 0 -1
    outer loop
      vertex 0.131251 0.67733 -0.0999994
      vertex 0.45 0.779423 -0.0999994
      vertex 0.356249 0.617042 -0.0999994
    endloop
  endfacet
  facet normal 0 0 -1
    outer loop
      vertex 0 0.9 -0.0999994
      vertex 0.131251 0.67733 -0.0999994
      vertex 0 0.712499 -0.0999994
    endloop
  endfacet
  facet normal 0 0 -1
    outer loop
      vertex 0.131251 0.67733 -0.0999994
      vertex 0 0.9 -0.0999994
      vertex 0.45 0.779423 -0.0999994
    endloop
  endfacet
  facet normal 0 0 -1
    outer loop
      vertex -0.131251 0.67733 -0.0999994
      vertex 0 0.9 -0.0999994
      vertex 0 0.712499 -0.0999994
    endloop
  endfacet
  facet normal 0 0 -1
    outer loop
      vertex -0.45 0.779423 -0.0999994
      vertex -0.131251 0.67733 -0.0999994
      vertex -0.356249 0.617042 -0.0999994
    endloop
  endfacet
  facet normal 0 0 -1
    outer loop
      vertex -0.131251 0.67733 -0.0999994
      vertex -0.45 0.779423 -0.0999994
      vertex 0 0.9 -0.0999994
    endloop
  endfacet
  facet normal 0 0 -1
    outer loop
      vertex -0.617042 0.356249 -0.0999994
      vertex -0.45 0.779423 -0.0999994
      vertex -0.356249 0.617042 -0.0999994
    endloop
  endfacet
  facet normal 0 0 -1
    outer loop
      vertex -0.617042 0.356249 -0.0999994
      vertex -0.779423 0.45 -0.0999994
      vertex -0.45 0.779423 -0.0999994
    endloop
  endfacet
  facet normal 0 0 -1
    outer loop
      vertex -0.67733 0.131251 -0.0999994
      vertex -0.779423 0.45 -0.0999994
      vertex -0.617042 0.356249 -0.0999994
    endloop
  endfacet
  facet normal 0 0 -1
    outer loop
      vertex -0.9 0 -0.0999994
      vertex -0.67733 0.131251 -0.0999994
      vertex -0.712499 0 -0.0999994
    endloop
  endfacet
  facet normal 0 0 -1
    outer loop
      vertex -0.67733 -0.131251 -0.0999994
      vertex -0.9 0 -0.0999994
      vertex -0.712499 0 -0.0999994
    endloop
  endfacet
  facet normal -0 0 -1
    outer loop
      vertex -0.67733 0.131251 -0.0999994
      vertex -0.9 0 -0.0999994
      vertex -0.779423 0.45 -0.0999994
    endloop
  endfacet
  facet normal 0 0 1
    outer loop
      vertex 0.724999 0 0
      vertex 0.9 0 0
      vertex 0.779423 0.45 0
    endloop
  endfacet
  facet normal 0 0 1
    outer loop
      vertex 0.9 0 0
      vertex 0.724999 0 0
      vertex 0.779423 -0.45 0
    endloop
  endfacet
  facet normal 0 0 1
    outer loop
      vertex 0.779423 0.45 0
      vertex 0.627868 0.362499 0
      vertex 0.724999 0 0
    endloop
  endfacet
  facet normal 0 0 1
    outer loop
      vertex 0.45 0.779423 0
      vertex 0.627868 0.362499 0
      vertex 0.779423 0.45 0
    endloop
  endfacet
  facet normal 0 0 1
    outer loop
      vertex 0.45 0.779423 0
      vertex 0.362499 0.627868 0
      vertex 0.627868 0.362499 0
    endloop
  endfacet
  facet normal 0 0 1
    outer loop
      vertex 0 0.9 0
      vertex 0.362499 0.627868 0
      vertex 0.45 0.779423 0
    endloop
  endfacet
  facet normal 0 0 1
    outer loop
      vertex 0 0.9 0
      vertex 0 0.724999 0
      vertex 0.362499 0.627868 0
    endloop
  endfacet
  facet normal 0 0 1
    outer loop
      vertex 0 0.9 0
      vertex -0.362499 0.627868 0
      vertex 0 0.724999 0
    endloop
  endfacet
  facet normal -0 0 1
    outer loop
      vertex -0.45 0.779423 0
      vertex -0.362499 0.627868 0
      vertex 0 0.9 0
    endloop
  endfacet
  facet normal 0 0 1
    outer loop
      vertex -0.45 0.779423 0
      vertex -0.627868 0.362499 0
      vertex -0.362499 0.627868 0
    endloop
  endfacet
  facet normal 0 0 1
    outer loop
      vertex -0.627868 0.362499 0
      vertex -0.779423 0.45 0
      vertex -0.724999 0 0
    endloop
  endfacet
  facet normal -0 0 1
    outer loop
      vertex -0.779423 0.45 0
      vertex -0.627868 0.362499 0
      vertex -0.45 0.779423 0
    endloop
  endfacet
  facet normal -0 0 1
    outer loop
      vertex 0.627868 -0.362499 0
      vertex 0.779423 -0.45 0
      vertex 0.724999 0 0
    endloop
  endfacet
  facet normal 0 0 1
    outer loop
      vertex 0.627868 -0.362499 0
      vertex 0.45 -0.779423 0
      vertex 0.779423 -0.45 0
    endloop
  endfacet
  facet normal -0 0 1
    outer loop
      vertex 0.362499 -0.627868 0
      vertex 0.45 -0.779423 0
      vertex 0.627868 -0.362499 0
    endloop
  endfacet
  facet normal -0 0 1
    outer loop
      vertex 0 -0.724999 0
      vertex 0.45 -0.779423 0
      vertex 0.362499 -0.627868 0
    endloop
  endfacet
  facet normal 0 0 1
    outer loop
      vertex 0 -0.724999 0
      vertex 0 -0.9 0
      vertex 0.45 -0.779423 0
    endloop
  endfacet
  facet normal 0 0 1
    outer loop
      vertex -0.362499 -0.627868 0
      vertex 0 -0.9 0
      vertex 0 -0.724999 0
    endloop
  endfacet
  facet normal 0 0 1
    outer loop
      vertex -0.362499 -0.627868 0
      vertex -0.45 -0.779423 0
      vertex 0 -0.9 0
    endloop
  endfacet
  facet normal 0 0 1
    outer loop
      vertex -0.627868 -0.362499 0
      vertex -0.45 -0.779423 0
      vertex -0.362499 -0.627868 0
    endloop
  endfacet
  facet normal 0 0 1
    outer loop
      vertex -0.627868 -0.362499 0
      vertex -0.779423 -0.45 0
      vertex -0.45 -0.779423 0
    endloop
  endfacet
  facet normal 0 0 1
    outer loop
      vertex -0.724999 0 0
      vertex -0.779423 -0.45 0
      vertex -0.627868 -0.362499 0
    endloop
  endfacet
  facet normal 0 0 1
    outer loop
      vertex -0.9 0 0
      vertex -0.724999 0 0
      vertex -0.779423 0.45 0
    endloop
  endfacet
  facet normal 0 0 1
    outer loop
      vertex -0.724999 0 0
      vertex -0.9 0 0
      vertex -0.779423 -0.45 0
    endloop
  endfacet
  facet normal 0.965926 -0.258819 0
    outer loop
      vertex 0.779423 -0.45 0
      vertex 0.9 0 -0.0999994
      vertex 0.9 0 0
    endloop
  endfacet
  facet normal 0.965926 -0.258819 0
    outer loop
      vertex 0.9 0 -0.0999994
      vertex 0.779423 -0.45 0
      vertex 0.779423 -0.45 -0.0999994
    endloop
  endfacet
  facet normal -0.707107 0.707107 0
    outer loop
      vertex -0.779423 0.45 -0.0999994
      vertex -0.45 0.779423 0
      vertex -0.45 0.779423 -0.0999994
    endloop
  endfacet
  facet normal -0.707107 0.707107 0
    outer loop
      vertex -0.45 0.779423 0
      vertex -0.779423 0.45 -0.0999994
      vertex -0.779423 0.45 0
    endloop
  endfacet
  facet normal -0.258819 -0.965926 0
    outer loop
      vertex -0.45 -0.779423 -0.0999994
      vertex 0 -0.9 0
      vertex -0.45 -0.779423 0
    endloop
  endfacet
  facet normal -0.258819 -0.965926 -0
    outer loop
      vertex 0 -0.9 0
      vertex -0.45 -0.779423 -0.0999994
      vertex 0 -0.9 -0.0999994
    endloop
  endfacet
  facet normal -0.965926 0.258819 0
    outer loop
      vertex -0.9 0 -0.0999994
      vertex -0.779423 0.45 0
      vertex -0.779423 0.45 -0.0999994
    endloop
  endfacet
  facet normal -0.965926 0.258819 0
    outer loop
      vertex -0.779423 0.45 0
      vertex -0.9 0 -0.0999994
      vertex -0.9 0 0
    endloop
  endfacet
  facet normal 0.707107 -0.707107 0
    outer loop
      vertex 0.45 -0.779423 0
      vertex 0.779423 -0.45 -0.0999994
      vertex 0.779423 -0.45 0
    endloop
  endfacet
  facet normal 0.707107 -0.707107 0
    outer loop
      vertex 0.779423 -0.45 -0.0999994
      vertex 0.45 -0.779423 0
      vertex 0.45 -0.779423 -0.0999994
    endloop
  endfacet
  facet normal -0.258819 0.965926 0
    outer loop
      vertex 0 0.9 -0.0999994
      vertex -0.45 0.779423 0
      vertex 0 0.9 0
    endloop
  endfacet
  facet normal -0.258819 0.965926 0
    outer loop
      vertex -0.45 0.779423 0
      vertex 0 0.9 -0.0999994
      vertex -0.45 0.779423 -0.0999994
    endloop
  endfacet
  facet normal 0.258819 -0.965926 0
    outer loop
      vertex 0 -0.9 -0.0999994
      vertex 0.45 -0.779423 0
      vertex 0 -0.9 0
    endloop
  endfacet
  facet normal 0.258819 -0.965926 0
    outer loop
      vertex 0.45 -0.779423 0
      vertex 0 -0.9 -0.0999994
      vertex 0.45 -0.779423 -0.0999994
    endloop
  endfacet
  facet normal -0.707107 -0.707107 0
    outer loop
      vertex -0.45 -0.779423 -0.0999994
      vertex -0.779423 -0.45 0
      vertex -0.779423 -0.45 -0.0999994
    endloop
  endfacet
  facet normal -0.707107 -0.707107 0
    outer loop
      vertex -0.779423 -0.45 0
      vertex -0.45 -0.779423 -0.0999994
      vertex -0.45 -0.779423 0
    endloop
  endfacet
  facet normal -0.965926 -0.258819 0
    outer loop
      vertex -0.779423 -0.45 -0.0999994
      vertex -0.9 0 0
      vertex -0.9 0 -0.0999994
    endloop
  endfacet
  facet normal -0.965926 -0.258819 0
    outer loop
      vertex -0.9 0 0
      vertex -0.779423 -0.45 -0.0999994
      vertex -0.779423 -0.45 0
    endloop
  endfacet
  facet normal 0.466891 0.125105 0.875421
    outer loop
      vertex 0.9 0 -0.2
      vertex 0.67733 0.131251 -0.0999994
      vertex 0.712499 0 -0.0999994
    endloop
  endfacet
  facet normal 0.466891 0.125103 0.875421
    outer loop
      vertex 0.779423 0.45 -0.2
      vertex 0.67733 0.131251 -0.0999994
      vertex 0.9 0 -0.2
    endloop
  endfacet
  facet normal 0.46689 0.125103 0.875421
    outer loop
      vertex 0.67733 0.131251 -0.0999994
      vertex 0.779423 0.45 -0.2
      vertex 0.617042 0.356249 -0.0999994
    endloop
  endfacet
  facet normal 0.341787 0.341787 0.875422
    outer loop
      vertex 0.45 0.779423 -0.2
      vertex 0.617042 0.356249 -0.0999994
      vertex 0.779423 0.45 -0.2
    endloop
  endfacet
  facet normal 0.341787 0.341787 0.875422
    outer loop
      vertex 0.617042 0.356249 -0.0999994
      vertex 0.45 0.779423 -0.2
      vertex 0.356249 0.617042 -0.0999994
    endloop
  endfacet
  facet normal 0.125105 -0.466891 0.875421
    outer loop
      vertex 0 -0.712499 -0.0999994
      vertex 0 -0.9 -0.2
      vertex 0.131251 -0.67733 -0.0999994
    endloop
  endfacet
  facet normal 0.125105 0.466891 0.875421
    outer loop
      vertex 0 0.9 -0.2
      vertex 0 0.712499 -0.0999994
      vertex 0.131251 0.67733 -0.0999994
    endloop
  endfacet
  facet normal -0.125105 0.466891 0.875421
    outer loop
      vertex 0 0.9 -0.2
      vertex -0.131251 0.67733 -0.0999994
      vertex 0 0.712499 -0.0999994
    endloop
  endfacet
  facet normal -0.466891 0.125105 0.875421
    outer loop
      vertex -0.67733 0.131251 -0.0999994
      vertex -0.9 0 -0.2
      vertex -0.712499 0 -0.0999994
    endloop
  endfacet
  facet normal -0.125105 -0.466891 0.875421
    outer loop
      vertex 0 -0.712499 -0.0999994
      vertex -0.131251 -0.67733 -0.0999994
      vertex 0 -0.9 -0.2
    endloop
  endfacet
  facet normal -0.46689 -0.125103 0.875421
    outer loop
      vertex -0.67733 -0.131251 -0.0999994
      vertex -0.779423 -0.45 -0.2
      vertex -0.617042 -0.356249 -0.0999994
    endloop
  endfacet
  facet normal -0.466891 -0.125103 0.875421
    outer loop
      vertex -0.779423 -0.45 -0.2
      vertex -0.67733 -0.131251 -0.0999994
      vertex -0.9 0 -0.2
    endloop
  endfacet
  facet normal -0.46689 0.125103 0.875421
    outer loop
      vertex -0.779423 0.45 -0.2
      vertex -0.67733 0.131251 -0.0999994
      vertex -0.617042 0.356249 -0.0999994
    endloop
  endfacet
  facet normal -0.466891 0.125103 0.875421
    outer loop
      vertex -0.67733 0.131251 -0.0999994
      vertex -0.779423 0.45 -0.2
      vertex -0.9 0 -0.2
    endloop
  endfacet
  facet normal -0.125103 0.466891 0.875421
    outer loop
      vertex -0.45 0.779423 -0.2
      vertex -0.131251 0.67733 -0.0999994
      vertex 0 0.9 -0.2
    endloop
  endfacet
  facet normal -0.125103 0.46689 0.875421
    outer loop
      vertex -0.131251 0.67733 -0.0999994
      vertex -0.45 0.779423 -0.2
      vertex -0.356249 0.617042 -0.0999994
    endloop
  endfacet
  facet normal -0.125103 -0.46689 0.875421
    outer loop
      vertex -0.45 -0.779423 -0.2
      vertex -0.131251 -0.67733 -0.0999994
      vertex -0.356249 -0.617042 -0.0999994
    endloop
  endfacet
  facet normal -0.125103 -0.466891 0.875421
    outer loop
      vertex -0.131251 -0.67733 -0.0999994
      vertex -0.45 -0.779423 -0.2
      vertex 0 -0.9 -0.2
    endloop
  endfacet
  facet normal -0.341787 0.341787 0.875422
    outer loop
      vertex -0.45 0.779423 -0.2
      vertex -0.617042 0.356249 -0.0999994
      vertex -0.356249 0.617042 -0.0999994
    endloop
  endfacet
  facet normal -0.341787 0.341787 0.875422
    outer loop
      vertex -0.617042 0.356249 -0.0999994
      vertex -0.45 0.779423 -0.2
      vertex -0.779423 0.45 -0.2
    endloop
  endfacet
  facet normal 0.125103 -0.46689 0.875421
    outer loop
      vertex 0.131251 -0.67733 -0.0999994
      vertex 0.45 -0.779423 -0.2
      vertex 0.356249 -0.617042 -0.0999994
    endloop
  endfacet
  facet normal 0.125103 -0.466891 0.875421
    outer loop
      vertex 0.45 -0.779423 -0.2
      vertex 0.131251 -0.67733 -0.0999994
      vertex 0 -0.9 -0.2
    endloop
  endfacet
  facet normal 0 0 -1
    outer loop
      vertex 0.525 0 -0.2
      vertex 0.9 0 -0.2
      vertex 0.779423 -0.45 -0.2
    endloop
  endfacet
  facet normal 0 0 -1
    outer loop
      vertex 0.9 0 -0.2
      vertex 0.525 0 -0.2
      vertex 0.779423 0.45 -0.2
    endloop
  endfacet
  facet normal 0 0 -1
    outer loop
      vertex 0.779423 -0.45 -0.2
      vertex 0.454663 -0.2625 -0.2
      vertex 0.525 0 -0.2
    endloop
  endfacet
  facet normal 0 0 -1
    outer loop
      vertex 0.45 -0.779423 -0.2
      vertex 0.454663 -0.2625 -0.2
      vertex 0.779423 -0.45 -0.2
    endloop
  endfacet
  facet normal 0 0 -1
    outer loop
      vertex 0.45 -0.779423 -0.2
      vertex 0.2625 -0.454663 -0.2
      vertex 0.454663 -0.2625 -0.2
    endloop
  endfacet
  facet normal 0 0 -1
    outer loop
      vertex 0 -0.9 -0.2
      vertex 0.2625 -0.454663 -0.2
      vertex 0.45 -0.779423 -0.2
    endloop
  endfacet
  facet normal 0 0 -1
    outer loop
      vertex 0 -0.9 -0.2
      vertex 0 -0.525 -0.2
      vertex 0.2625 -0.454663 -0.2
    endloop
  endfacet
  facet normal 0 0 -1
    outer loop
      vertex 0 -0.9 -0.2
      vertex -0.2625 -0.454663 -0.2
      vertex 0 -0.525 -0.2
    endloop
  endfacet
  facet normal 0 0 -1
    outer loop
      vertex -0.45 -0.779423 -0.2
      vertex -0.2625 -0.454663 -0.2
      vertex 0 -0.9 -0.2
    endloop
  endfacet
  facet normal 0 0 -1
    outer loop
      vertex -0.45 -0.779423 -0.2
      vertex -0.454663 -0.2625 -0.2
      vertex -0.2625 -0.454663 -0.2
    endloop
  endfacet
  facet normal 0 0 -1
    outer loop
      vertex -0.779423 -0.45 -0.2
      vertex -0.454663 -0.2625 -0.2
      vertex -0.45 -0.779423 -0.2
    endloop
  endfacet
  facet normal -0 0 -1
    outer loop
      vertex -0.454663 -0.2625 -0.2
      vertex -0.779423 -0.45 -0.2
      vertex -0.525 0 -0.2
    endloop
  endfacet
  facet normal 0 0 -1
    outer loop
      vertex 0.454663 0.2625 -0.2
      vertex 0.779423 0.45 -0.2
      vertex 0.525 0 -0.2
    endloop
  endfacet
  facet normal 0 0 -1
    outer loop
      vertex 0.454663 0.2625 -0.2
      vertex 0.45 0.779423 -0.2
      vertex 0.779423 0.45 -0.2
    endloop
  endfacet
  facet normal 0 0 -1
    outer loop
      vertex 0.2625 0.454663 -0.2
      vertex 0.45 0.779423 -0.2
      vertex 0.454663 0.2625 -0.2
    endloop
  endfacet
  facet normal 0 0 -1
    outer loop
      vertex 0 0.525 -0.2
      vertex 0.45 0.779423 -0.2
      vertex 0.2625 0.454663 -0.2
    endloop
  endfacet
  facet normal 0 0 -1
    outer loop
      vertex 0 0.525 -0.2
      vertex 0 0.9 -0.2
      vertex 0.45 0.779423 -0.2
    endloop
  endfacet
  facet normal 0 0 -1
    outer loop
      vertex -0.2625 0.454663 -0.2
      vertex 0 0.9 -0.2
      vertex 0 0.525 -0.2
    endloop
  endfacet
  facet normal 0 0 -1
    outer loop
      vertex -0.2625 0.454663 -0.2
      vertex -0.45 0.779423 -0.2
      vertex 0 0.9 -0.2
    endloop
  endfacet
  facet normal 0 0 -1
    outer loop
      vertex -0.454663 0.2625 -0.2
      vertex -0.45 0.779423 -0.2
      vertex -0.2625 0.454663 -0.2
    endloop
  endfacet
  facet normal 0 0 -1
    outer loop
      vertex -0.779423 0.45 -0.2
      vertex -0.454663 0.2625 -0.2
      vertex -0.525 0 -0.2
    endloop
  endfacet
  facet normal 0 0 -1
    outer loop
      vertex -0.9 0 -0.2
      vertex -0.525 0 -0.2
      vertex -0.779423 -0.45 -0.2
    endloop
  endfacet
  facet normal 0 0 -1
    outer loop
      vertex -0.454663 0.2625 -0.2
      vertex -0.779423 0.45 -0.2
      vertex -0.45 0.779423 -0.2
    endloop
  endfacet
  facet normal 0 0 -1
    outer loop
      vertex -0.525 0 -0.2
      vertex -0.9 0 -0.2
      vertex -0.779423 0.45 -0.2
    endloop
  endfacet
  facet normal 0.466891 -0.125103 0.875421
    outer loop
      vertex 0.67733 -0.131251 -0.0999994
      vertex 0.779423 -0.45 -0.2
      vertex 0.9 0 -0.2
    endloop
  endfacet
  facet normal 0.46689 -0.125103 0.875421
    outer loop
      vertex 0.779423 -0.45 -0.2
      vertex 0.67733 -0.131251 -0.0999994
      vertex 0.617042 -0.356249 -0.0999994
    endloop
  endfacet
  facet normal 0.466891 -0.125105 0.875421
    outer loop
      vertex 0.712499 0 -0.0999994
      vertex 0.67733 -0.131251 -0.0999994
      vertex 0.9 0 -0.2
    endloop
  endfacet
  facet normal 0.341787 -0.341787 0.875422
    outer loop
      vertex 0.617042 -0.356249 -0.0999994
      vertex 0.45 -0.779423 -0.2
      vertex 0.779423 -0.45 -0.2
    endloop
  endfacet
  facet normal 0.341787 -0.341787 0.875422
    outer loop
      vertex 0.45 -0.779423 -0.2
      vertex 0.617042 -0.356249 -0.0999994
      vertex 0.356249 -0.617042 -0.0999994
    endloop
  endfacet
  facet normal 0.125103 0.46689 0.875421
    outer loop
      vertex 0.45 0.779423 -0.2
      vertex 0.131251 0.67733 -0.0999994
      vertex 0.356249 0.617042 -0.0999994
    endloop
  endfacet
  facet normal 0.125103 0.466891 0.875421
    outer loop
      vertex 0.131251 0.67733 -0.0999994
      vertex 0.45 0.779423 -0.2
      vertex 0 0.9 -0.2
    endloop
  endfacet
  facet normal -0.341787 -0.341787 0.875422
    outer loop
      vertex -0.617042 -0.356249 -0.0999994
      vertex -0.45 -0.779423 -0.2
      vertex -0.356249 -0.617042 -0.0999994
    endloop
  endfacet
  facet normal -0.341787 -0.341787 0.875422
    outer loop
      vertex -0.45 -0.779423 -0.2
      vertex -0.617042 -0.356249 -0.0999994
      vertex -0.779423 -0.45 -0.2
    endloop
  endfacet
  facet normal -0.466891 -0.125105 0.875421
    outer loop
      vertex -0.712499 0 -0.0999994
      vertex -0.9 0 -0.2
      vertex -0.67733 -0.131251 -0.0999994
    endloop
  endfacet
  facet normal -0.965926 -0.258818 0
    outer loop
      vertex -0.627868 -0.362499 0
      vertex -0.724999 0 0.299999
      vertex -0.724999 0 0
    endloop
  endfacet
  facet normal -0.965926 -0.258818 0
    outer loop
      vertex -0.724999 0 0.299999
      vertex -0.627868 -0.362499 0
      vertex -0.627868 -0.362499 0.299999
    endloop
  endfacet
  facet normal 0.707107 0.707107 0
    outer loop
      vertex 0.627868 0.362499 0.299999
      vertex 0.362499 0.627868 0
      vertex 0.362499 0.627868 0.299999
    endloop
  endfacet
  facet normal 0.707107 0.707107 0
    outer loop
      vertex 0.362499 0.627868 0
      vertex 0.627868 0.362499 0.299999
      vertex 0.627868 0.362499 0
    endloop
  endfacet
  facet normal 0.965926 0.258818 0
    outer loop
      vertex 0.724999 0 0.299999
      vertex 0.627868 0.362499 0
      vertex 0.627868 0.362499 0.299999
    endloop
  endfacet
  facet normal 0.965926 0.258818 0
    outer loop
      vertex 0.627868 0.362499 0
      vertex 0.724999 0 0.299999
      vertex 0.724999 0 0
    endloop
  endfacet
  facet normal 0.258818 0.965926 -0
    outer loop
      vertex 0.362499 0.627868 0
      vertex 0 0.724999 0.299999
      vertex 0.362499 0.627868 0.299999
    endloop
  endfacet
  facet normal 0.258818 0.965926 0
    outer loop
      vertex 0 0.724999 0.299999
      vertex 0.362499 0.627868 0
      vertex 0 0.724999 0
    endloop
  endfacet
  facet normal 0.258818 -0.965926 0
    outer loop
      vertex 0 -0.724999 0
      vertex 0.362499 -0.627868 0.299999
      vertex 0 -0.724999 0.299999
    endloop
  endfacet
  facet normal 0.258818 -0.965926 0
    outer loop
      vertex 0.362499 -0.627868 0.299999
      vertex 0 -0.724999 0
      vertex 0.362499 -0.627868 0
    endloop
  endfacet
  facet normal 0.965926 -0.258818 0
    outer loop
      vertex 0.627868 -0.362499 0.299999
      vertex 0.724999 0 0
      vertex 0.724999 0 0.299999
    endloop
  endfacet
  facet normal 0.965926 -0.258818 0
    outer loop
      vertex 0.724999 0 0
      vertex 0.627868 -0.362499 0.299999
      vertex 0.627868 -0.362499 0
    endloop
  endfacet
  facet normal -0.707107 0.707107 0
    outer loop
      vertex -0.627868 0.362499 0
      vertex -0.362499 0.627868 0.299999
      vertex -0.362499 0.627868 0
    endloop
  endfacet
  facet normal -0.707107 0.707107 0
    outer loop
      vertex -0.362499 0.627868 0.299999
      vertex -0.627868 0.362499 0
      vertex -0.627868 0.362499 0.299999
    endloop
  endfacet
  facet normal -0.258818 0.965926 0
    outer loop
      vertex 0 0.724999 0
      vertex -0.362499 0.627868 0.299999
      vertex 0 0.724999 0.299999
    endloop
  endfacet
  facet normal -0.258818 0.965926 0
    outer loop
      vertex -0.362499 0.627868 0.299999
      vertex 0 0.724999 0
      vertex -0.362499 0.627868 0
    endloop
  endfacet
  facet normal -0.965926 0.258818 0
    outer loop
      vertex -0.724999 0 0
      vertex -0.627868 0.362499 0.299999
      vertex -0.627868 0.362499 0
    endloop
  endfacet
  facet normal -0.965926 0.258818 0
    outer loop
      vertex -0.627868 0.362499 0.299999
      vertex -0.724999 0 0
      vertex -0.724999 0 0.299999
    endloop
  endfacet
  facet normal 0.707107 -0.707107 0
    outer loop
      vertex 0.362499 -0.627868 0.299999
      vertex 0.627868 -0.362499 0
      vertex 0.627868 -0.362499 0.299999
    endloop
  endfacet
  facet normal 0.707107 -0.707107 0
    outer loop
      vertex 0.627868 -0.362499 0
      vertex 0.362499 -0.627868 0.299999
      vertex 0.362499 -0.627868 0
    endloop
  endfacet
  facet normal 0 0 1
    outer loop
      vertex 0.525 0 0.299999
      vertex 0.724999 0 0.299999
      vertex 0.627868 0.362499 0.299999
    endloop
  endfacet
  facet normal 0 0 1
    outer loop
      vertex 0.724999 0 0.299999
      vertex 0.525 0 0.299999
      vertex 0.627868 -0.362499 0.299999
    endloop
  endfacet
  facet normal 0 0 1
    outer loop
      vertex 0.627868 0.362499 0.299999
      vertex 0.454663 0.2625 0.299999
      vertex 0.525 0 0.299999
    endloop
  endfacet
  facet normal 0 0 1
    outer loop
      vertex 0.362499 0.627868 0.299999
      vertex 0.454663 0.2625 0.299999
      vertex 0.627868 0.362499 0.299999
    endloop
  endfacet
  facet normal 0 0 1
    outer loop
      vertex 0.362499 0.627868 0.299999
      vertex 0.2625 0.454663 0.299999
      vertex 0.454663 0.2625 0.299999
    endloop
  endfacet
  facet normal 0 0 1
    outer loop
      vertex 0 0.724999 0.299999
      vertex 0.2625 0.454663 0.299999
      vertex 0.362499 0.627868 0.299999
    endloop
  endfacet
  facet normal 0 0 1
    outer loop
      vertex 0 0.724999 0.299999
      vertex 0 0.525 0.299999
      vertex 0.2625 0.454663 0.299999
    endloop
  endfacet
  facet normal 0 0 1
    outer loop
      vertex 0 0.724999 0.299999
      vertex -0.2625 0.454663 0.299999
      vertex 0 0.525 0.299999
    endloop
  endfacet
  facet normal -0 0 1
    outer loop
      vertex -0.362499 0.627868 0.299999
      vertex -0.2625 0.454663 0.299999
      vertex 0 0.724999 0.299999
    endloop
  endfacet
  facet normal 0 0 1
    outer loop
      vertex -0.362499 0.627868 0.299999
      vertex -0.454663 0.2625 0.299999
      vertex -0.2625 0.454663 0.299999
    endloop
  endfacet
  facet normal -0 0 1
    outer loop
      vertex -0.627868 0.362499 0.299999
      vertex -0.454663 0.2625 0.299999
      vertex -0.362499 0.627868 0.299999
    endloop
  endfacet
  facet normal 0 0 1
    outer loop
      vertex -0.454663 0.2625 0.299999
      vertex -0.627868 0.362499 0.299999
      vertex -0.525 0 0.299999
    endloop
  endfacet
  facet normal -0 0 1
    outer loop
      vertex 0.454663 -0.2625 0.299999
      vertex 0.627868 -0.362499 0.299999
      vertex 0.525 0 0.299999
    endloop
  endfacet
  facet normal 0 0 1
    outer loop
      vertex 0.454663 -0.2625 0.299999
      vertex 0.362499 -0.627868 0.299999
      vertex 0.627868 -0.362499 0.299999
    endloop
  endfacet
  facet normal -0 0 1
    outer loop
      vertex 0.2625 -0.454663 0.299999
      vertex 0.362499 -0.627868 0.299999
      vertex 0.454663 -0.2625 0.299999
    endloop
  endfacet
  facet normal -0 0 1
    outer loop
      vertex 0 -0.525 0.299999
      vertex 0.362499 -0.627868 0.299999
      vertex 0.2625 -0.454663 0.299999
    endloop
  endfacet
  facet normal 0 0 1
    outer loop
      vertex 0 -0.525 0.299999
      vertex 0 -0.724999 0.299999
      vertex 0.362499 -0.627868 0.299999
    endloop
  endfacet
  facet normal 0 0 1
    outer loop
      vertex -0.2625 -0.454663 0.299999
      vertex 0 -0.724999 0.299999
      vertex 0 -0.525 0.299999
    endloop
  endfacet
  facet normal 0 0 1
    outer loop
      vertex -0.2625 -0.454663 0.299999
      vertex -0.362499 -0.627868 0.299999
      vertex 0 -0.724999 0.299999
    endloop
  endfacet
  facet normal 0 0 1
    outer loop
      vertex -0.454663 -0.2625 0.299999
      vertex -0.362499 -0.627868 0.299999
      vertex -0.2625 -0.454663 0.299999
    endloop
  endfacet
  facet normal 0 0 1
    outer loop
      vertex -0.627868 -0.362499 0.299999
      vertex -0.454663 -0.2625 0.299999
      vertex -0.525 0 0.299999
    endloop
  endfacet
  facet normal 0 0 1
    outer loop
      vertex -0.724999 0 0.299999
      vertex -0.525 0 0.299999
      vertex -0.627868 0.362499 0.299999
    endloop
  endfacet
  facet normal 0 0 1
    outer loop
      vertex -0.454663 -0.2625 0.299999
      vertex -0.627868 -0.362499 0.299999
      vertex -0.362499 -0.627868 0.299999
    endloop
  endfacet
  facet normal 0 0 1
    outer loop
      vertex -0.525 0 0.299999
      vertex -0.724999 0 0.299999
      vertex -0.627868 -0.362499 0.299999
    endloop
  endfacet
  facet normal -0.707107 -0.707107 0
    outer loop
      vertex -0.362499 -0.627868 0
      vertex -0.627868 -0.362499 0.299999
      vertex -0.627868 -0.362499 0
    endloop
  endfacet
  facet normal -0.707107 -0.707107 0
    outer loop
      vertex -0.627868 -0.362499 0.299999
      vertex -0.362499 -0.627868 0
      vertex -0.362499 -0.627868 0.299999
    endloop
  endfacet
  facet normal -0.258818 -0.965926 0
    outer loop
      vertex -0.362499 -0.627868 0
      vertex 0 -0.724999 0.299999
      vertex -0.362499 -0.627868 0.299999
    endloop
  endfacet
  facet normal -0.258818 -0.965926 -0
    outer loop
      vertex 0 -0.724999 0.299999
      vertex -0.362499 -0.627868 0
      vertex 0 -0.724999 0
    endloop
  endfacet
  facet normal -0.707107 -0.707107 0
    outer loop
      vertex 0.454663 0.2625 -0.2
      vertex 0.2625 0.454663 0.299999
      vertex 0.2625 0.454663 -0.2
    endloop
  endfacet
  facet normal -0.707107 -0.707107 0
    outer loop
      vertex 0.2625 0.454663 0.299999
      vertex 0.454663 0.2625 -0.2
      vertex 0.454663 0.2625 0.299999
    endloop
  endfacet
  facet normal -0.965926 -0.25882 0
    outer loop
      vertex 0.525 0 -0.2
      vertex 0.454663 0.2625 0.299999
      vertex 0.454663 0.2625 -0.2
    endloop
  endfacet
  facet normal -0.965926 -0.25882 0
    outer loop
      vertex 0.454663 0.2625 0.299999
      vertex 0.525 0 -0.2
      vertex 0.525 0 0.299999
    endloop
  endfacet
  facet normal -0.965926 0.25882 0
    outer loop
      vertex 0.454663 -0.2625 -0.2
      vertex 0.525 0 0.299999
      vertex 0.525 0 -0.2
    endloop
  endfacet
  facet normal -0.965926 0.25882 0
    outer loop
      vertex 0.525 0 0.299999
      vertex 0.454663 -0.2625 -0.2
      vertex 0.454663 -0.2625 0.299999
    endloop
  endfacet
  facet normal 0.707107 -0.707107 0
    outer loop
      vertex -0.454663 0.2625 0.299999
      vertex -0.2625 0.454663 -0.2
      vertex -0.2625 0.454663 0.299999
    endloop
  endfacet
  facet normal 0.707107 -0.707107 0
    outer loop
      vertex -0.2625 0.454663 -0.2
      vertex -0.454663 0.2625 0.299999
      vertex -0.454663 0.2625 -0.2
    endloop
  endfacet
  facet normal 0.25882 0.965926 -0
    outer loop
      vertex 0 -0.525 -0.2
      vertex -0.2625 -0.454663 0.299999
      vertex 0 -0.525 0.299999
    endloop
  endfacet
  facet normal 0.25882 0.965926 0
    outer loop
      vertex -0.2625 -0.454663 0.299999
      vertex 0 -0.525 -0.2
      vertex -0.2625 -0.454663 -0.2
    endloop
  endfacet
  facet normal 0.965926 -0.25882 0
    outer loop
      vertex -0.525 0 0.299999
      vertex -0.454663 0.2625 -0.2
      vertex -0.454663 0.2625 0.299999
    endloop
  endfacet
  facet normal 0.965926 -0.25882 0
    outer loop
      vertex -0.454663 0.2625 -0.2
      vertex -0.525 0 0.299999
      vertex -0.525 0 -0.2
    endloop
  endfacet
  facet normal -0.707107 0.707107 0
    outer loop
      vertex 0.2625 -0.454663 -0.2
      vertex 0.454663 -0.2625 0.299999
      vertex 0.454663 -0.2625 -0.2
    endloop
  endfacet
  facet normal -0.707107 0.707107 0
    outer loop
      vertex 0.454663 -0.2625 0.299999
      vertex 0.2625 -0.454663 -0.2
      vertex 0.2625 -0.454663 0.299999
    endloop
  endfacet
  facet normal 0.25882 -0.965926 0
    outer loop
      vertex -0.2625 0.454663 -0.2
      vertex 0 0.525 0.299999
      vertex -0.2625 0.454663 0.299999
    endloop
  endfacet
  facet normal 0.25882 -0.965926 0
    outer loop
      vertex 0 0.525 0.299999
      vertex -0.2625 0.454663 -0.2
      vertex 0 0.525 -0.2
    endloop
  endfacet
  facet normal -0.25882 0.965926 0
    outer loop
      vertex 0.2625 -0.454663 -0.2
      vertex 0 -0.525 0.299999
      vertex 0.2625 -0.454663 0.299999
    endloop
  endfacet
  facet normal -0.25882 0.965926 0
    outer loop
      vertex 0 -0.525 0.299999
      vertex 0.2625 -0.454663 -0.2
      vertex 0 -0.525 -0.2
    endloop
  endfacet
  facet normal -0.25882 -0.965926 0
    outer loop
      vertex 0 0.525 -0.2
      vertex 0.2625 0.454663 0.299999
      vertex 0 0.525 0.299999
    endloop
  endfacet
  facet normal -0.25882 -0.965926 -0
    outer loop
      vertex 0.2625 0.454663 0.299999
      vertex 0 0.525 -0.2
      vertex 0.2625 0.454663 -0.2
    endloop
  endfacet
  facet normal 0.707107 0.707107 0
    outer loop
      vertex -0.2625 -0.454663 0.299999
      vertex -0.454663 -0.2625 -0.2
      vertex -0.454663 -0.2625 0.299999
    endloop
  endfacet
  facet normal 0.707107 0.707107 0
    outer loop
      vertex -0.454663 -0.2625 -0.2
      vertex -0.2625 -0.454663 0.299999
      vertex -0.2625 -0.454663 -0.2
    endloop
  endfacet
  facet normal 0.965926 0.25882 0
    outer loop
      vertex -0.454663 -0.2625 0.299999
      vertex -0.525 0 -0.2
      vertex -0.525 0 0.299999
    endloop
  endfacet
  facet normal 0.965926 0.25882 0
    outer loop
      vertex -0.525 0 -0.2
      vertex -0.454663 -0.2625 0.299999
      vertex -0.454663 -0.2625 -0.2
    endloop
  endfacet
endsolid OpenSCAD_Model
