solid OpenSCAD_Model
  facet normal 0 0.965922 -0.258832
    outer loop
      vertex 0.9 0.25259 -1.67083
      vertex 0.65 0.278269 -1.575
      vertex 0.9 0.278269 -1.575
    endloop
  endfacet
  facet normal 0 0.965922 -0.258832
    outer loop
      vertex 0.65 0.278269 -1.575
      vertex 0.9 0.25259 -1.67083
      vertex 0.65 0.25259 -1.67083
    endloop
  endfacet
  facet normal 0 -0.965922 -0.258832
    outer loop
      vertex 0.65 -0.25259 -1.67083
      vertex 0.9 -0.278269 -1.575
      vertex 0.65 -0.278269 -1.575
    endloop
  endfacet
  facet normal 0 -0.965922 -0.258832
    outer loop
      vertex 0.9 -0.278269 -1.575
      vertex 0.65 -0.25259 -1.67083
      vertex 0.9 -0.25259 -1.67083
    endloop
  endfacet
  facet normal 0 -0.258845 -0.965919
    outer loop
      vertex 0.65 -0.145833 -1.77759
      vertex 0.9 0 -1.81667
      vertex 0.9 -0.145833 -1.77759
    endloop
  endfacet
  facet normal -0 -0.258845 -0.965919
    outer loop
      vertex 0.9 0 -1.81667
      vertex 0.65 -0.145833 -1.77759
      vertex 0.65 0 -1.81667
    endloop
  endfacet
  facet normal 0 0.258845 -0.965919
    outer loop
      vertex 0.65 0 -1.81667
      vertex 0.9 0.145833 -1.77759
      vertex 0.9 0 -1.81667
    endloop
  endfacet
  facet normal 0 0.258845 -0.965919
    outer loop
      vertex 0.9 0.145833 -1.77759
      vertex 0.65 0 -1.81667
      vertex 0.65 0.145833 -1.77759
    endloop
  endfacet
  facet normal 0 0.707117 -0.707097
    outer loop
      vertex 0.9 0.145833 -1.77759
      vertex 0.65 0.25259 -1.67083
      vertex 0.9 0.25259 -1.67083
    endloop
  endfacet
  facet normal 0 0.707117 -0.707097
    outer loop
      vertex 0.65 0.25259 -1.67083
      vertex 0.9 0.145833 -1.77759
      vertex 0.65 0.145833 -1.77759
    endloop
  endfacet
  facet normal 1 -0 0
    outer loop
      vertex 0.9 0.165988 -1.42917
      vertex 0.9 0.291666 -1.575
      vertex 0.9 0.291666 -0.525
    endloop
  endfacet
  facet normal 1 -0 -0
    outer loop
      vertex 0.9 0.191667 -1.525
      vertex 0.9 0.291666 -1.575
      vertex 0.9 0.165988 -1.42917
    endloop
  endfacet
  facet normal 1 0 0
    outer loop
      vertex 0.9 0.291666 -1.575
      vertex 0.9 0.191667 -1.525
      vertex 0.9 0.278269 -1.575
    endloop
  endfacet
  facet normal 1 0 0
    outer loop
      vertex 0.9 0.165988 -1.62083
      vertex 0.9 0.278269 -1.575
      vertex 0.9 0.191667 -1.525
    endloop
  endfacet
  facet normal 1 0 0
    outer loop
      vertex 0.9 0.291666 -0.525
      vertex 0.9 0.0958328 -1.35901
      vertex 0.9 0.165988 -1.42917
    endloop
  endfacet
  facet normal 1 0 0
    outer loop
      vertex 0.9 0.291666 -0.525
      vertex 0.9 0 -1.33333
      vertex 0.9 0.0958328 -1.35901
    endloop
  endfacet
  facet normal 1 -0 0
    outer loop
      vertex 0.9 -0.291666 -0.525
      vertex 0.9 0 -1.33333
      vertex 0.9 0.291666 -0.525
    endloop
  endfacet
  facet normal 1 0 0
    outer loop
      vertex 0.9 0 -1.33333
      vertex 0.9 -0.291666 -0.525
      vertex 0.9 -0.0958328 -1.35901
    endloop
  endfacet
  facet normal 1 0 0
    outer loop
      vertex 0.9 -0.291666 -1.575
      vertex 0.9 -0.191667 -1.525
      vertex 0.9 -0.165988 -1.42917
    endloop
  endfacet
  facet normal 1 0 0
    outer loop
      vertex 0.9 -0.191667 -1.525
      vertex 0.9 -0.278269 -1.575
      vertex 0.9 -0.25259 -1.67083
    endloop
  endfacet
  facet normal 1 0 0
    outer loop
      vertex 0.9 -0.0958328 -1.35901
      vertex 0.9 -0.291666 -0.525
      vertex 0.9 -0.165988 -1.42917
    endloop
  endfacet
  facet normal 1 0 0
    outer loop
      vertex 0.9 -0.291666 -1.575
      vertex 0.9 -0.165988 -1.42917
      vertex 0.9 -0.291666 -0.525
    endloop
  endfacet
  facet normal 1 0 0
    outer loop
      vertex 0.9 -0.191667 -1.525
      vertex 0.9 -0.291666 -1.575
      vertex 0.9 -0.278269 -1.575
    endloop
  endfacet
  facet normal 1 0 0
    outer loop
      vertex 0.9 0.278269 -1.575
      vertex 0.9 0.165988 -1.62083
      vertex 0.9 0.25259 -1.67083
    endloop
  endfacet
  facet normal 1 0 0
    outer loop
      vertex 0.9 0.165988 -1.62083
      vertex 0.9 0.145833 -1.77759
      vertex 0.9 0.25259 -1.67083
    endloop
  endfacet
  facet normal 1 -0 0
    outer loop
      vertex 0.9 0.0958328 -1.69099
      vertex 0.9 0.145833 -1.77759
      vertex 0.9 0.165988 -1.62083
    endloop
  endfacet
  facet normal 1 -0 0
    outer loop
      vertex 0.9 0 -1.71667
      vertex 0.9 0.145833 -1.77759
      vertex 0.9 0.0958328 -1.69099
    endloop
  endfacet
  facet normal 1 0 0
    outer loop
      vertex 0.9 0 -1.71667
      vertex 0.9 0 -1.81667
      vertex 0.9 0.145833 -1.77759
    endloop
  endfacet
  facet normal 1 0 0
    outer loop
      vertex 0.9 -0.0958328 -1.69099
      vertex 0.9 0 -1.81667
      vertex 0.9 0 -1.71667
    endloop
  endfacet
  facet normal 1 0 0
    outer loop
      vertex 0.9 -0.0958328 -1.69099
      vertex 0.9 -0.145833 -1.77759
      vertex 0.9 0 -1.81667
    endloop
  endfacet
  facet normal 1 0 0
    outer loop
      vertex 0.9 -0.165988 -1.62083
      vertex 0.9 -0.145833 -1.77759
      vertex 0.9 -0.0958328 -1.69099
    endloop
  endfacet
  facet normal 1 0 0
    outer loop
      vertex 0.9 -0.25259 -1.67083
      vertex 0.9 -0.165988 -1.62083
      vertex 0.9 -0.191667 -1.525
    endloop
  endfacet
  facet normal 1 0 0
    outer loop
      vertex 0.9 -0.165988 -1.62083
      vertex 0.9 -0.25259 -1.67083
      vertex 0.9 -0.145833 -1.77759
    endloop
  endfacet
  facet normal 0 -0.707117 -0.707097
    outer loop
      vertex 0.65 -0.145833 -1.77759
      vertex 0.9 -0.25259 -1.67083
      vertex 0.65 -0.25259 -1.67083
    endloop
  endfacet
  facet normal 0 -0.707117 -0.707097
    outer loop
      vertex 0.9 -0.25259 -1.67083
      vertex 0.65 -0.145833 -1.77759
      vertex 0.9 -0.145833 -1.77759
    endloop
  endfacet
  facet normal -1 -0 0
    outer loop
      vertex 0.65 0.278269 -1.575
      vertex 0.65 0.165988 -1.62083
      vertex 0.65 0.191667 -1.525
    endloop
  endfacet
  facet normal -1 0 0
    outer loop
      vertex 0.65 0.145833 -1.77759
      vertex 0.65 0.165988 -1.62083
      vertex 0.65 0.25259 -1.67083
    endloop
  endfacet
  facet normal -1 0 0
    outer loop
      vertex 0.65 0.145833 -1.77759
      vertex 0.65 0.0958328 -1.69099
      vertex 0.65 0.165988 -1.62083
    endloop
  endfacet
  facet normal -1 0 0
    outer loop
      vertex 0.65 0 -1.81667
      vertex 0.65 0.0958328 -1.69099
      vertex 0.65 0.145833 -1.77759
    endloop
  endfacet
  facet normal -1 0 0
    outer loop
      vertex 0.65 0 -1.81667
      vertex 0.65 0 -1.71667
      vertex 0.65 0.0958328 -1.69099
    endloop
  endfacet
  facet normal -1 0 0
    outer loop
      vertex 0.65 0 -1.81667
      vertex 0.65 -0.0958328 -1.69099
      vertex 0.65 0 -1.71667
    endloop
  endfacet
  facet normal -1 0 0
    outer loop
      vertex 0.65 -0.145833 -1.77759
      vertex 0.65 -0.0958328 -1.69099
      vertex 0.65 0 -1.81667
    endloop
  endfacet
  facet normal -1 0 0
    outer loop
      vertex 0.65 -0.145833 -1.77759
      vertex 0.65 -0.165988 -1.62083
      vertex 0.65 -0.0958328 -1.69099
    endloop
  endfacet
  facet normal -1 0 0
    outer loop
      vertex 0.65 -0.25259 -1.67083
      vertex 0.65 -0.165988 -1.62083
      vertex 0.65 -0.145833 -1.77759
    endloop
  endfacet
  facet normal -1 0 0
    outer loop
      vertex 0.65 -0.278269 -1.575
      vertex 0.65 -0.165988 -1.62083
      vertex 0.65 -0.25259 -1.67083
    endloop
  endfacet
  facet normal -1 0 0
    outer loop
      vertex 0.65 0.191667 -1.525
      vertex 0.65 0.291666 -1.575
      vertex 0.65 0.278269 -1.575
    endloop
  endfacet
  facet normal -1 0 0
    outer loop
      vertex 0.65 0.165988 -1.62083
      vertex 0.65 0.278269 -1.575
      vertex 0.65 0.25259 -1.67083
    endloop
  endfacet
  facet normal -1 0 0
    outer loop
      vertex 0.65 0.291666 -1.575
      vertex 0.65 0.191667 -1.525
      vertex 0.65 0.165988 -1.42917
    endloop
  endfacet
  facet normal -1 0 0
    outer loop
      vertex 0.65 0.291666 -1.575
      vertex 0.65 0.165988 -1.42917
      vertex 0.65 0.291666 -0.475
    endloop
  endfacet
  facet normal -1 0 0
    outer loop
      vertex 0.65 0.0958328 -1.35901
      vertex 0.65 0.291666 -0.475
      vertex 0.65 0.165988 -1.42917
    endloop
  endfacet
  facet normal -1 0 0
    outer loop
      vertex 0.65 0 -1.33333
      vertex 0.65 0.291666 -0.475
      vertex 0.65 0.0958328 -1.35901
    endloop
  endfacet
  facet normal -1 0 0
    outer loop
      vertex 0.65 -0.291666 -0.475
      vertex 0.65 0 -1.33333
      vertex 0.65 -0.0958328 -1.35901
    endloop
  endfacet
  facet normal -1 0 0
    outer loop
      vertex 0.65 -0.291666 -0.475
      vertex 0.65 -0.0958328 -1.35901
      vertex 0.65 -0.165988 -1.42917
    endloop
  endfacet
  facet normal -1 0 0
    outer loop
      vertex 0.65 -0.165988 -1.62083
      vertex 0.65 -0.278269 -1.575
      vertex 0.65 -0.191667 -1.525
    endloop
  endfacet
  facet normal -1 0 0
    outer loop
      vertex 0.65 -0.291666 -1.575
      vertex 0.65 -0.191667 -1.525
      vertex 0.65 -0.278269 -1.575
    endloop
  endfacet
  facet normal -1 -0 0
    outer loop
      vertex 0.65 -0.191667 -1.525
      vertex 0.65 -0.291666 -1.575
      vertex 0.65 -0.165988 -1.42917
    endloop
  endfacet
  facet normal -1 -0 0
    outer loop
      vertex 0.65 -0.165988 -1.42917
      vertex 0.65 -0.291666 -1.575
      vertex 0.65 -0.291666 -0.475
    endloop
  endfacet
  facet normal -1 0 0
    outer loop
      vertex 0.65 0 -1.33333
      vertex 0.65 -0.291666 -0.475
      vertex 0.65 0.291666 -0.475
    endloop
  endfacet
  facet normal -0 0 1
    outer loop
      vertex 0.65 0.291666 -0.475
      vertex 0.799999 0 -0.475
      vertex 0.721848 0.291666 -0.475
    endloop
  endfacet
  facet normal 0 0 1
    outer loop
      vertex 0.65 -0.291666 -0.475
      vertex 0.799999 0 -0.475
      vertex 0.65 0.291666 -0.475
    endloop
  endfacet
  facet normal 0 0 1
    outer loop
      vertex 0.799999 0 -0.475
      vertex 0.65 -0.291666 -0.475
      vertex 0.721848 -0.291666 -0.475
    endloop
  endfacet
  facet normal 0 0 -1
    outer loop
      vertex 0.65 0.278269 -1.575
      vertex 0.9 0.291666 -1.575
      vertex 0.9 0.278269 -1.575
    endloop
  endfacet
  facet normal -0 0 -1
    outer loop
      vertex 0.9 0.291666 -1.575
      vertex 0.65 0.278269 -1.575
      vertex 0.65 0.291666 -1.575
    endloop
  endfacet
  facet normal 0 0 -1
    outer loop
      vertex 0.65 -0.291666 -1.575
      vertex 0.9 -0.278269 -1.575
      vertex 0.9 -0.291666 -1.575
    endloop
  endfacet
  facet normal -0 0 -1
    outer loop
      vertex 0.9 -0.278269 -1.575
      vertex 0.65 -0.291666 -1.575
      vertex 0.65 -0.278269 -1.575
    endloop
  endfacet
  facet normal 0 1 0
    outer loop
      vertex 0.9 0.291666 -0.525
      vertex 0.9 0.291666 -1.575
      vertex 0.721848 0.291666 -0.525
    endloop
  endfacet
  facet normal 0 1 -0
    outer loop
      vertex 0.721848 0.291666 -0.525
      vertex 0.65 0.291666 -0.475
      vertex 0.721848 0.291666 -0.475
    endloop
  endfacet
  facet normal 0 1 0
    outer loop
      vertex 0.65 0.291666 -1.575
      vertex 0.721848 0.291666 -0.525
      vertex 0.9 0.291666 -1.575
    endloop
  endfacet
  facet normal 0 1 0
    outer loop
      vertex 0.721848 0.291666 -0.525
      vertex 0.65 0.291666 -1.575
      vertex 0.65 0.291666 -0.475
    endloop
  endfacet
  facet normal 0 -1 0
    outer loop
      vertex 0.65 -0.291666 -0.475
      vertex 0.721848 -0.291666 -0.525
      vertex 0.721848 -0.291666 -0.475
    endloop
  endfacet
  facet normal 0 -1 0
    outer loop
      vertex 0.65 -0.291666 -1.575
      vertex 0.721848 -0.291666 -0.525
      vertex 0.65 -0.291666 -0.475
    endloop
  endfacet
  facet normal 0 -1 0
    outer loop
      vertex 0.9 -0.291666 -1.575
      vertex 0.721848 -0.291666 -0.525
      vertex 0.65 -0.291666 -1.575
    endloop
  endfacet
  facet normal 0 -1 0
    outer loop
      vertex 0.721848 -0.291666 -0.525
      vertex 0.9 -0.291666 -1.575
      vertex 0.9 -0.291666 -0.525
    endloop
  endfacet
  facet normal 0 0.965922 -0.258832
    outer loop
      vertex -0.65 0.25259 -1.67083
      vertex -0.9 0.278269 -1.575
      vertex -0.65 0.278269 -1.575
    endloop
  endfacet
  facet normal 0 0.965922 -0.258832
    outer loop
      vertex -0.9 0.278269 -1.575
      vertex -0.65 0.25259 -1.67083
      vertex -0.9 0.25259 -1.67083
    endloop
  endfacet
  facet normal 0 -0.965922 -0.258832
    outer loop
      vertex -0.9 -0.25259 -1.67083
      vertex -0.65 -0.278269 -1.575
      vertex -0.9 -0.278269 -1.575
    endloop
  endfacet
  facet normal 0 -0.965922 -0.258832
    outer loop
      vertex -0.65 -0.278269 -1.575
      vertex -0.9 -0.25259 -1.67083
      vertex -0.65 -0.25259 -1.67083
    endloop
  endfacet
  facet normal 0 -0.258845 -0.965919
    outer loop
      vertex -0.9 -0.145833 -1.77759
      vertex -0.65 0 -1.81667
      vertex -0.65 -0.145833 -1.77759
    endloop
  endfacet
  facet normal -0 -0.258845 -0.965919
    outer loop
      vertex -0.65 0 -1.81667
      vertex -0.9 -0.145833 -1.77759
      vertex -0.9 0 -1.81667
    endloop
  endfacet
  facet normal 0 0.258845 -0.965919
    outer loop
      vertex -0.9 0 -1.81667
      vertex -0.65 0.145833 -1.77759
      vertex -0.65 0 -1.81667
    endloop
  endfacet
  facet normal 0 0.258845 -0.965919
    outer loop
      vertex -0.65 0.145833 -1.77759
      vertex -0.9 0 -1.81667
      vertex -0.9 0.145833 -1.77759
    endloop
  endfacet
  facet normal 0 0.707117 -0.707097
    outer loop
      vertex -0.65 0.145833 -1.77759
      vertex -0.9 0.25259 -1.67083
      vertex -0.65 0.25259 -1.67083
    endloop
  endfacet
  facet normal 0 0.707117 -0.707097
    outer loop
      vertex -0.9 0.25259 -1.67083
      vertex -0.65 0.145833 -1.77759
      vertex -0.9 0.145833 -1.77759
    endloop
  endfacet
  facet normal 1 -0 0
    outer loop
      vertex -0.65 0.165988 -1.42917
      vertex -0.65 0.291666 -1.575
      vertex -0.65 0.291666 -0.475
    endloop
  endfacet
  facet normal 1 -0 -0
    outer loop
      vertex -0.65 0.191667 -1.525
      vertex -0.65 0.291666 -1.575
      vertex -0.65 0.165988 -1.42917
    endloop
  endfacet
  facet normal 1 0 0
    outer loop
      vertex -0.65 0.291666 -1.575
      vertex -0.65 0.191667 -1.525
      vertex -0.65 0.278269 -1.575
    endloop
  endfacet
  facet normal 1 0 0
    outer loop
      vertex -0.65 0.165988 -1.62083
      vertex -0.65 0.278269 -1.575
      vertex -0.65 0.191667 -1.525
    endloop
  endfacet
  facet normal 1 0 0
    outer loop
      vertex -0.65 0.291666 -0.475
      vertex -0.65 0.0958328 -1.35901
      vertex -0.65 0.165988 -1.42917
    endloop
  endfacet
  facet normal 1 0 0
    outer loop
      vertex -0.65 0.291666 -0.475
      vertex -0.65 0 -1.33333
      vertex -0.65 0.0958328 -1.35901
    endloop
  endfacet
  facet normal 1 -0 0
    outer loop
      vertex -0.65 -0.291666 -0.475
      vertex -0.65 0 -1.33333
      vertex -0.65 0.291666 -0.475
    endloop
  endfacet
  facet normal 1 0 0
    outer loop
      vertex -0.65 0 -1.33333
      vertex -0.65 -0.291666 -0.475
      vertex -0.65 -0.0958328 -1.35901
    endloop
  endfacet
  facet normal 1 0 0
    outer loop
      vertex -0.65 -0.291666 -1.575
      vertex -0.65 -0.191667 -1.525
      vertex -0.65 -0.165988 -1.42917
    endloop
  endfacet
  facet normal 1 0 0
    outer loop
      vertex -0.65 -0.191667 -1.525
      vertex -0.65 -0.278269 -1.575
      vertex -0.65 -0.25259 -1.67083
    endloop
  endfacet
  facet normal 1 0 0
    outer loop
      vertex -0.65 -0.0958328 -1.35901
      vertex -0.65 -0.291666 -0.475
      vertex -0.65 -0.165988 -1.42917
    endloop
  endfacet
  facet normal 1 0 0
    outer loop
      vertex -0.65 -0.291666 -1.575
      vertex -0.65 -0.165988 -1.42917
      vertex -0.65 -0.291666 -0.475
    endloop
  endfacet
  facet normal 1 0 0
    outer loop
      vertex -0.65 -0.191667 -1.525
      vertex -0.65 -0.291666 -1.575
      vertex -0.65 -0.278269 -1.575
    endloop
  endfacet
  facet normal 1 0 0
    outer loop
      vertex -0.65 0.278269 -1.575
      vertex -0.65 0.165988 -1.62083
      vertex -0.65 0.25259 -1.67083
    endloop
  endfacet
  facet normal 1 0 0
    outer loop
      vertex -0.65 0.165988 -1.62083
      vertex -0.65 0.145833 -1.77759
      vertex -0.65 0.25259 -1.67083
    endloop
  endfacet
  facet normal 1 -0 0
    outer loop
      vertex -0.65 0.0958328 -1.69099
      vertex -0.65 0.145833 -1.77759
      vertex -0.65 0.165988 -1.62083
    endloop
  endfacet
  facet normal 1 -0 0
    outer loop
      vertex -0.65 0 -1.71667
      vertex -0.65 0.145833 -1.77759
      vertex -0.65 0.0958328 -1.69099
    endloop
  endfacet
  facet normal 1 0 0
    outer loop
      vertex -0.65 0 -1.71667
      vertex -0.65 0 -1.81667
      vertex -0.65 0.145833 -1.77759
    endloop
  endfacet
  facet normal 1 0 0
    outer loop
      vertex -0.65 -0.0958328 -1.69099
      vertex -0.65 0 -1.81667
      vertex -0.65 0 -1.71667
    endloop
  endfacet
  facet normal 1 0 0
    outer loop
      vertex -0.65 -0.0958328 -1.69099
      vertex -0.65 -0.145833 -1.77759
      vertex -0.65 0 -1.81667
    endloop
  endfacet
  facet normal 1 0 0
    outer loop
      vertex -0.65 -0.165988 -1.62083
      vertex -0.65 -0.145833 -1.77759
      vertex -0.65 -0.0958328 -1.69099
    endloop
  endfacet
  facet normal 1 0 0
    outer loop
      vertex -0.65 -0.25259 -1.67083
      vertex -0.65 -0.165988 -1.62083
      vertex -0.65 -0.191667 -1.525
    endloop
  endfacet
  facet normal 1 0 0
    outer loop
      vertex -0.65 -0.165988 -1.62083
      vertex -0.65 -0.25259 -1.67083
      vertex -0.65 -0.145833 -1.77759
    endloop
  endfacet
  facet normal 0 -0.707117 -0.707097
    outer loop
      vertex -0.9 -0.145833 -1.77759
      vertex -0.65 -0.25259 -1.67083
      vertex -0.9 -0.25259 -1.67083
    endloop
  endfacet
  facet normal 0 -0.707117 -0.707097
    outer loop
      vertex -0.65 -0.25259 -1.67083
      vertex -0.9 -0.145833 -1.77759
      vertex -0.65 -0.145833 -1.77759
    endloop
  endfacet
  facet normal -1 -0 0
    outer loop
      vertex -0.9 0.278269 -1.575
      vertex -0.9 0.165988 -1.62083
      vertex -0.9 0.191667 -1.525
    endloop
  endfacet
  facet normal -1 0 0
    outer loop
      vertex -0.9 0.145833 -1.77759
      vertex -0.9 0.165988 -1.62083
      vertex -0.9 0.25259 -1.67083
    endloop
  endfacet
  facet normal -1 0 0
    outer loop
      vertex -0.9 0.145833 -1.77759
      vertex -0.9 0.0958328 -1.69099
      vertex -0.9 0.165988 -1.62083
    endloop
  endfacet
  facet normal -1 0 0
    outer loop
      vertex -0.9 0 -1.81667
      vertex -0.9 0.0958328 -1.69099
      vertex -0.9 0.145833 -1.77759
    endloop
  endfacet
  facet normal -1 0 0
    outer loop
      vertex -0.9 0 -1.81667
      vertex -0.9 0 -1.71667
      vertex -0.9 0.0958328 -1.69099
    endloop
  endfacet
  facet normal -1 0 0
    outer loop
      vertex -0.9 0 -1.81667
      vertex -0.9 -0.0958328 -1.69099
      vertex -0.9 0 -1.71667
    endloop
  endfacet
  facet normal -1 0 0
    outer loop
      vertex -0.9 -0.145833 -1.77759
      vertex -0.9 -0.0958328 -1.69099
      vertex -0.9 0 -1.81667
    endloop
  endfacet
  facet normal -1 0 0
    outer loop
      vertex -0.9 -0.145833 -1.77759
      vertex -0.9 -0.165988 -1.62083
      vertex -0.9 -0.0958328 -1.69099
    endloop
  endfacet
  facet normal -1 0 0
    outer loop
      vertex -0.9 -0.25259 -1.67083
      vertex -0.9 -0.165988 -1.62083
      vertex -0.9 -0.145833 -1.77759
    endloop
  endfacet
  facet normal -1 0 0
    outer loop
      vertex -0.9 -0.278269 -1.575
      vertex -0.9 -0.165988 -1.62083
      vertex -0.9 -0.25259 -1.67083
    endloop
  endfacet
  facet normal -1 0 0
    outer loop
      vertex -0.9 0.191667 -1.525
      vertex -0.9 0.291666 -1.575
      vertex -0.9 0.278269 -1.575
    endloop
  endfacet
  facet normal -1 0 0
    outer loop
      vertex -0.9 0.165988 -1.62083
      vertex -0.9 0.278269 -1.575
      vertex -0.9 0.25259 -1.67083
    endloop
  endfacet
  facet normal -1 0 0
    outer loop
      vertex -0.9 0.291666 -1.575
      vertex -0.9 0.191667 -1.525
      vertex -0.9 0.165988 -1.42917
    endloop
  endfacet
  facet normal -1 0 0
    outer loop
      vertex -0.9 0.291666 -1.575
      vertex -0.9 0.165988 -1.42917
      vertex -0.9 0.291666 -0.525
    endloop
  endfacet
  facet normal -1 0 0
    outer loop
      vertex -0.9 0.0958328 -1.35901
      vertex -0.9 0.291666 -0.525
      vertex -0.9 0.165988 -1.42917
    endloop
  endfacet
  facet normal -1 0 0
    outer loop
      vertex -0.9 0 -1.33333
      vertex -0.9 0.291666 -0.525
      vertex -0.9 0.0958328 -1.35901
    endloop
  endfacet
  facet normal -1 0 0
    outer loop
      vertex -0.9 -0.291666 -0.525
      vertex -0.9 0 -1.33333
      vertex -0.9 -0.0958328 -1.35901
    endloop
  endfacet
  facet normal -1 0 0
    outer loop
      vertex -0.9 -0.291666 -0.525
      vertex -0.9 -0.0958328 -1.35901
      vertex -0.9 -0.165988 -1.42917
    endloop
  endfacet
  facet normal -1 0 0
    outer loop
      vertex -0.9 -0.165988 -1.62083
      vertex -0.9 -0.278269 -1.575
      vertex -0.9 -0.191667 -1.525
    endloop
  endfacet
  facet normal -1 0 0
    outer loop
      vertex -0.9 -0.291666 -1.575
      vertex -0.9 -0.191667 -1.525
      vertex -0.9 -0.278269 -1.575
    endloop
  endfacet
  facet normal -1 -0 0
    outer loop
      vertex -0.9 -0.191667 -1.525
      vertex -0.9 -0.291666 -1.575
      vertex -0.9 -0.165988 -1.42917
    endloop
  endfacet
  facet normal -1 -0 0
    outer loop
      vertex -0.9 -0.165988 -1.42917
      vertex -0.9 -0.291666 -1.575
      vertex -0.9 -0.291666 -0.525
    endloop
  endfacet
  facet normal -1 0 0
    outer loop
      vertex -0.9 0 -1.33333
      vertex -0.9 -0.291666 -0.525
      vertex -0.9 0.291666 -0.525
    endloop
  endfacet
  facet normal 0 0 1
    outer loop
      vertex -0.799999 0 -0.475
      vertex -0.65 0.291666 -0.475
      vertex -0.721848 0.291666 -0.475
    endloop
  endfacet
  facet normal 0 0 1
    outer loop
      vertex -0.65 0.291666 -0.475
      vertex -0.799999 0 -0.475
      vertex -0.65 -0.291666 -0.475
    endloop
  endfacet
  facet normal 0 0 1
    outer loop
      vertex -0.65 -0.291666 -0.475
      vertex -0.799999 0 -0.475
      vertex -0.721848 -0.291666 -0.475
    endloop
  endfacet
  facet normal 0 0 -1
    outer loop
      vertex -0.9 0.278269 -1.575
      vertex -0.65 0.291666 -1.575
      vertex -0.65 0.278269 -1.575
    endloop
  endfacet
  facet normal -0 0 -1
    outer loop
      vertex -0.65 0.291666 -1.575
      vertex -0.9 0.278269 -1.575
      vertex -0.9 0.291666 -1.575
    endloop
  endfacet
  facet normal 0 0 -1
    outer loop
      vertex -0.9 -0.291666 -1.575
      vertex -0.65 -0.278269 -1.575
      vertex -0.65 -0.291666 -1.575
    endloop
  endfacet
  facet normal -0 0 -1
    outer loop
      vertex -0.65 -0.278269 -1.575
      vertex -0.9 -0.291666 -1.575
      vertex -0.9 -0.278269 -1.575
    endloop
  endfacet
  facet normal 0 1 0
    outer loop
      vertex -0.65 0.291666 -0.475
      vertex -0.721848 0.291666 -0.525
      vertex -0.721848 0.291666 -0.475
    endloop
  endfacet
  facet normal 0 1 -0
    outer loop
      vertex -0.65 0.291666 -1.575
      vertex -0.721848 0.291666 -0.525
      vertex -0.65 0.291666 -0.475
    endloop
  endfacet
  facet normal 0 1 0
    outer loop
      vertex -0.9 0.291666 -1.575
      vertex -0.721848 0.291666 -0.525
      vertex -0.65 0.291666 -1.575
    endloop
  endfacet
  facet normal 0 1 0
    outer loop
      vertex -0.721848 0.291666 -0.525
      vertex -0.9 0.291666 -1.575
      vertex -0.9 0.291666 -0.525
    endloop
  endfacet
  facet normal 0 -1 0
    outer loop
      vertex -0.9 -0.291666 -0.525
      vertex -0.9 -0.291666 -1.575
      vertex -0.721848 -0.291666 -0.525
    endloop
  endfacet
  facet normal 0 -1 0
    outer loop
      vertex -0.721848 -0.291666 -0.525
      vertex -0.65 -0.291666 -0.475
      vertex -0.721848 -0.291666 -0.475
    endloop
  endfacet
  facet normal 0 -1 0
    outer loop
      vertex -0.65 -0.291666 -1.575
      vertex -0.721848 -0.291666 -0.525
      vertex -0.9 -0.291666 -1.575
    endloop
  endfacet
  facet normal 0 -1 0
    outer loop
      vertex -0.721848 -0.291666 -0.525
      vertex -0.65 -0.291666 -1.575
      vertex -0.65 -0.291666 -0.475
    endloop
  endfacet
  facet normal -0.965926 -0.25882 0
    outer loop
      vertex -0.866025 -0.5 -0.525
      vertex -1 0 0
      vertex -1 0 -0.525
    endloop
  endfacet
  facet normal -0.965926 -0.25882 0
    outer loop
      vertex -1 0 0
      vertex -0.866025 -0.5 -0.525
      vertex -0.866025 -0.5 0
    endloop
  endfacet
  facet normal 0.707107 0.707107 0
    outer loop
      vertex 0.866025 0.5 0
      vertex 0.5 0.866025 -0.525
      vertex 0.5 0.866025 0
    endloop
  endfacet
  facet normal 0.707107 0.707107 0
    outer loop
      vertex 0.5 0.866025 -0.525
      vertex 0.866025 0.5 0
      vertex 0.866025 0.5 -0.525
    endloop
  endfacet
  facet normal 0.965926 0.25882 0
    outer loop
      vertex 1 0 0
      vertex 0.866025 0.5 -0.525
      vertex 0.866025 0.5 0
    endloop
  endfacet
  facet normal 0.965926 0.25882 0
    outer loop
      vertex 0.866025 0.5 -0.525
      vertex 1 0 0
      vertex 1 0 -0.525
    endloop
  endfacet
  facet normal 0.25882 0.965926 -0
    outer loop
      vertex 0.5 0.866025 -0.525
      vertex 0 1 0
      vertex 0.5 0.866025 0
    endloop
  endfacet
  facet normal 0.25882 0.965926 0
    outer loop
      vertex 0 1 0
      vertex 0.5 0.866025 -0.525
      vertex 0 1 -0.525
    endloop
  endfacet
  facet normal 0.25882 -0.965926 0
    outer loop
      vertex 0 -1 -0.525
      vertex 0.5 -0.866025 0
      vertex 0 -1 0
    endloop
  endfacet
  facet normal 0.25882 -0.965926 0
    outer loop
      vertex 0.5 -0.866025 0
      vertex 0 -1 -0.525
      vertex 0.5 -0.866025 -0.525
    endloop
  endfacet
  facet normal 0.965926 -0.25882 0
    outer loop
      vertex 0.866025 -0.5 0
      vertex 1 0 -0.525
      vertex 1 0 0
    endloop
  endfacet
  facet normal 0.965926 -0.25882 0
    outer loop
      vertex 1 0 -0.525
      vertex 0.866025 -0.5 0
      vertex 0.866025 -0.5 -0.525
    endloop
  endfacet
  facet normal -0.707107 0.707107 0
    outer loop
      vertex -0.866025 0.5 -0.525
      vertex -0.5 0.866025 0
      vertex -0.5 0.866025 -0.525
    endloop
  endfacet
  facet normal -0.707107 0.707107 0
    outer loop
      vertex -0.5 0.866025 0
      vertex -0.866025 0.5 -0.525
      vertex -0.866025 0.5 0
    endloop
  endfacet
  facet normal -0.25882 0.965926 0
    outer loop
      vertex 0 1 -0.525
      vertex -0.5 0.866025 0
      vertex 0 1 0
    endloop
  endfacet
  facet normal -0.25882 0.965926 0
    outer loop
      vertex -0.5 0.866025 0
      vertex 0 1 -0.525
      vertex -0.5 0.866025 -0.525
    endloop
  endfacet
  facet normal -0.965926 0.25882 0
    outer loop
      vertex -1 0 -0.525
      vertex -0.866025 0.5 0
      vertex -0.866025 0.5 -0.525
    endloop
  endfacet
  facet normal -0.965926 0.25882 0
    outer loop
      vertex -0.866025 0.5 0
      vertex -1 0 -0.525
      vertex -1 0 0
    endloop
  endfacet
  facet normal 0.707107 -0.707107 0
    outer loop
      vertex 0.5 -0.866025 0
      vertex 0.866025 -0.5 -0.525
      vertex 0.866025 -0.5 0
    endloop
  endfacet
  facet normal 0.707107 -0.707107 0
    outer loop
      vertex 0.866025 -0.5 -0.525
      vertex 0.5 -0.866025 0
      vertex 0.5 -0.866025 -0.525
    endloop
  endfacet
  facet normal 0 0 -1
    outer loop
      vertex 0.866025 -0.5 -0.525
      vertex 0.9 -0.291666 -0.525
      vertex 1 0 -0.525
    endloop
  endfacet
  facet normal 0 0 -1
    outer loop
      vertex 0.69282 -0.4 -0.525
      vertex 0.9 -0.291666 -0.525
      vertex 0.866025 -0.5 -0.525
    endloop
  endfacet
  facet normal -0 0 -1
    outer loop
      vertex 0.9 -0.291666 -0.525
      vertex 0.69282 -0.4 -0.525
      vertex 0.721848 -0.291666 -0.525
    endloop
  endfacet
  facet normal 0 0 -1
    outer loop
      vertex 0.5 -0.866025 -0.525
      vertex 0.69282 -0.4 -0.525
      vertex 0.866025 -0.5 -0.525
    endloop
  endfacet
  facet normal 0 0 -1
    outer loop
      vertex 0.5 -0.866025 -0.525
      vertex 0.4 -0.69282 -0.525
      vertex 0.69282 -0.4 -0.525
    endloop
  endfacet
  facet normal 0 0 -1
    outer loop
      vertex 0 -1 -0.525
      vertex 0.4 -0.69282 -0.525
      vertex 0.5 -0.866025 -0.525
    endloop
  endfacet
  facet normal 0 0 -1
    outer loop
      vertex 0 -1 -0.525
      vertex 0 -0.799999 -0.525
      vertex 0.4 -0.69282 -0.525
    endloop
  endfacet
  facet normal 0 0 -1
    outer loop
      vertex 0 -1 -0.525
      vertex -0.4 -0.69282 -0.525
      vertex 0 -0.799999 -0.525
    endloop
  endfacet
  facet normal 0 0 -1
    outer loop
      vertex -0.5 -0.866025 -0.525
      vertex -0.4 -0.69282 -0.525
      vertex 0 -1 -0.525
    endloop
  endfacet
  facet normal 0 0 -1
    outer loop
      vertex -0.5 -0.866025 -0.525
      vertex -0.69282 -0.4 -0.525
      vertex -0.4 -0.69282 -0.525
    endloop
  endfacet
  facet normal 0 0 -1
    outer loop
      vertex -0.866025 -0.5 -0.525
      vertex -0.69282 -0.4 -0.525
      vertex -0.5 -0.866025 -0.525
    endloop
  endfacet
  facet normal 0 0 -1
    outer loop
      vertex -0.9 -0.291666 -0.525
      vertex -0.69282 -0.4 -0.525
      vertex -0.866025 -0.5 -0.525
    endloop
  endfacet
  facet normal 0 0 -1
    outer loop
      vertex -0.69282 -0.4 -0.525
      vertex -0.9 -0.291666 -0.525
      vertex -0.721848 -0.291666 -0.525
    endloop
  endfacet
  facet normal 0 0 -1
    outer loop
      vertex -0.9 -0.291666 -0.525
      vertex -1 0 -0.525
      vertex -0.9 0.291666 -0.525
    endloop
  endfacet
  facet normal 0 0 -1
    outer loop
      vertex -1 0 -0.525
      vertex -0.9 -0.291666 -0.525
      vertex -0.866025 -0.5 -0.525
    endloop
  endfacet
  facet normal 0 0 -1
    outer loop
      vertex 0.9 0.291666 -0.525
      vertex 1 0 -0.525
      vertex 0.9 -0.291666 -0.525
    endloop
  endfacet
  facet normal 0 0 -1
    outer loop
      vertex 0.9 0.291666 -0.525
      vertex 0.866025 0.5 -0.525
      vertex 1 0 -0.525
    endloop
  endfacet
  facet normal 0 0 -1
    outer loop
      vertex 0.69282 0.4 -0.525
      vertex 0.9 0.291666 -0.525
      vertex 0.721848 0.291666 -0.525
    endloop
  endfacet
  facet normal 0 0 -1
    outer loop
      vertex 0.9 0.291666 -0.525
      vertex 0.69282 0.4 -0.525
      vertex 0.866025 0.5 -0.525
    endloop
  endfacet
  facet normal 0 0 -1
    outer loop
      vertex 0.69282 0.4 -0.525
      vertex 0.5 0.866025 -0.525
      vertex 0.866025 0.5 -0.525
    endloop
  endfacet
  facet normal 0 0 -1
    outer loop
      vertex 0.4 0.69282 -0.525
      vertex 0.5 0.866025 -0.525
      vertex 0.69282 0.4 -0.525
    endloop
  endfacet
  facet normal 0 0 -1
    outer loop
      vertex 0 0.799999 -0.525
      vertex 0.5 0.866025 -0.525
      vertex 0.4 0.69282 -0.525
    endloop
  endfacet
  facet normal 0 0 -1
    outer loop
      vertex 0 0.799999 -0.525
      vertex 0 1 -0.525
      vertex 0.5 0.866025 -0.525
    endloop
  endfacet
  facet normal 0 0 -1
    outer loop
      vertex -0.4 0.69282 -0.525
      vertex 0 1 -0.525
      vertex 0 0.799999 -0.525
    endloop
  endfacet
  facet normal 0 0 -1
    outer loop
      vertex -0.4 0.69282 -0.525
      vertex -0.5 0.866025 -0.525
      vertex 0 1 -0.525
    endloop
  endfacet
  facet normal 0 0 -1
    outer loop
      vertex -0.69282 0.4 -0.525
      vertex -0.5 0.866025 -0.525
      vertex -0.4 0.69282 -0.525
    endloop
  endfacet
  facet normal 0 0 -1
    outer loop
      vertex -0.69282 0.4 -0.525
      vertex -0.866025 0.5 -0.525
      vertex -0.5 0.866025 -0.525
    endloop
  endfacet
  facet normal 0 0 -1
    outer loop
      vertex -0.9 0.291666 -0.525
      vertex -0.69282 0.4 -0.525
      vertex -0.721848 0.291666 -0.525
    endloop
  endfacet
  facet normal -0 0 -1
    outer loop
      vertex -0.69282 0.4 -0.525
      vertex -0.9 0.291666 -0.525
      vertex -0.866025 0.5 -0.525
    endloop
  endfacet
  facet normal 0 0 -1
    outer loop
      vertex -0.866025 0.5 -0.525
      vertex -0.9 0.291666 -0.525
      vertex -1 0 -0.525
    endloop
  endfacet
  facet normal -0.707107 -0.707107 0
    outer loop
      vertex -0.5 -0.866025 -0.525
      vertex -0.866025 -0.5 0
      vertex -0.866025 -0.5 -0.525
    endloop
  endfacet
  facet normal -0.707107 -0.707107 0
    outer loop
      vertex -0.866025 -0.5 0
      vertex -0.5 -0.866025 -0.525
      vertex -0.5 -0.866025 0
    endloop
  endfacet
  facet normal -0.25882 -0.965926 0
    outer loop
      vertex -0.5 -0.866025 -0.525
      vertex 0 -1 0
      vertex -0.5 -0.866025 0
    endloop
  endfacet
  facet normal -0.25882 -0.965926 -0
    outer loop
      vertex 0 -1 0
      vertex -0.5 -0.866025 -0.525
      vertex 0 -1 -0.525
    endloop
  endfacet
  facet normal 0.965926 0.258817 0
    outer loop
      vertex -0.799999 0 -0.2
      vertex -0.721848 -0.291666 -0.475
      vertex -0.799999 0 -0.475
    endloop
  endfacet
  facet normal 0.965926 0.258818 -6.16559e-07
    outer loop
      vertex -0.69282 -0.4 -0.2
      vertex -0.721848 -0.291666 -0.475
      vertex -0.799999 0 -0.2
    endloop
  endfacet
  facet normal 0.965926 0.258819 -0
    outer loop
      vertex -0.69282 -0.4 -0.525
      vertex -0.721848 -0.291666 -0.475
      vertex -0.69282 -0.4 -0.2
    endloop
  endfacet
  facet normal 0.965926 0.258819 0
    outer loop
      vertex -0.721848 -0.291666 -0.475
      vertex -0.69282 -0.4 -0.525
      vertex -0.721848 -0.291666 -0.525
    endloop
  endfacet
  facet normal 0.965927 0.258814 0
    outer loop
      vertex -0.799999 0 -0.0999994
      vertex -0.770384 -0.110527 -0.115789
      vertex -0.799999 0 -0.115789
    endloop
  endfacet
  facet normal 0.965926 0.258818 -2.6509e-05
    outer loop
      vertex -0.69282 -0.4 -0.0999994
      vertex -0.770384 -0.110527 -0.115789
      vertex -0.799999 0 -0.0999994
    endloop
  endfacet
  facet normal 0.965926 0.258819 0
    outer loop
      vertex -0.770384 -0.110527 -0.115789
      vertex -0.69282 -0.4 -0.0999994
      vertex -0.69282 -0.4 -0.115789
    endloop
  endfacet
  facet normal -0.707107 -0.707107 0
    outer loop
      vertex 0.69282 0.4 -0.525
      vertex 0.4 0.69282 -0.2
      vertex 0.4 0.69282 -0.525
    endloop
  endfacet
  facet normal -0.707107 -0.707107 0
    outer loop
      vertex 0.4 0.69282 -0.2
      vertex 0.69282 0.4 -0.525
      vertex 0.69282 0.4 -0.2
    endloop
  endfacet
  facet normal -0.707107 -0.707107 -0
    outer loop
      vertex 0.4 0.69282 -0.0999994
      vertex 0.4 0.69282 -0.115789
      vertex 0.69282 0.4 -0.0999994
    endloop
  endfacet
  facet normal -0.707107 -0.707107 -0
    outer loop
      vertex 0.69282 0.4 -0.0999994
      vertex 0.4 0.69282 -0.115789
      vertex 0.69282 0.4 -0.115789
    endloop
  endfacet
  facet normal -0.965926 -0.258819 -0
    outer loop
      vertex 0.721848 0.291666 -0.475
      vertex 0.69282 0.4 -0.525
      vertex 0.721848 0.291666 -0.525
    endloop
  endfacet
  facet normal -0.965926 -0.258819 0
    outer loop
      vertex 0.69282 0.4 -0.525
      vertex 0.721848 0.291666 -0.475
      vertex 0.69282 0.4 -0.2
    endloop
  endfacet
  facet normal -0.965926 -0.258817 -0
    outer loop
      vertex 0.799999 0 -0.2
      vertex 0.721848 0.291666 -0.475
      vertex 0.799999 0 -0.475
    endloop
  endfacet
  facet normal -0.965926 -0.258818 -6.16559e-07
    outer loop
      vertex 0.721848 0.291666 -0.475
      vertex 0.799999 0 -0.2
      vertex 0.69282 0.4 -0.2
    endloop
  endfacet
  facet normal -0.965926 -0.258819 0
    outer loop
      vertex 0.770384 0.110527 -0.115789
      vertex 0.69282 0.4 -0.0999994
      vertex 0.69282 0.4 -0.115789
    endloop
  endfacet
  facet normal -0.965927 -0.258814 -0
    outer loop
      vertex 0.799999 0 -0.0999994
      vertex 0.770384 0.110527 -0.115789
      vertex 0.799999 0 -0.115789
    endloop
  endfacet
  facet normal -0.965926 -0.258818 -2.6509e-05
    outer loop
      vertex 0.770384 0.110527 -0.115789
      vertex 0.799999 0 -0.0999994
      vertex 0.69282 0.4 -0.0999994
    endloop
  endfacet
  facet normal -0.258818 -0.965926 0
    outer loop
      vertex 0 0.799999 -0.525
      vertex 0.4 0.69282 -0.2
      vertex 0 0.799999 -0.2
    endloop
  endfacet
  facet normal -0.258818 -0.965926 -0
    outer loop
      vertex 0.4 0.69282 -0.2
      vertex 0 0.799999 -0.525
      vertex 0.4 0.69282 -0.525
    endloop
  endfacet
  facet normal -0.258818 -0.965926 -2.6509e-05
    outer loop
      vertex 0 0.799999 -0.0999994
      vertex 0.110527 0.770384 -0.115789
      vertex 0.4 0.69282 -0.0999994
    endloop
  endfacet
  facet normal -0.258814 -0.965927 0
    outer loop
      vertex 0.110527 0.770384 -0.115789
      vertex 0 0.799999 -0.0999994
      vertex 0 0.799999 -0.115789
    endloop
  endfacet
  facet normal -0.258819 -0.965926 -0
    outer loop
      vertex 0.4 0.69282 -0.0999994
      vertex 0.110527 0.770384 -0.115789
      vertex 0.4 0.69282 -0.115789
    endloop
  endfacet
  facet normal -0.258818 0.965926 0
    outer loop
      vertex 0.4 -0.69282 -0.525
      vertex 0 -0.799999 -0.2
      vertex 0.4 -0.69282 -0.2
    endloop
  endfacet
  facet normal -0.258818 0.965926 0
    outer loop
      vertex 0 -0.799999 -0.2
      vertex 0.4 -0.69282 -0.525
      vertex 0 -0.799999 -0.525
    endloop
  endfacet
  facet normal -0.258818 0.965926 -2.6509e-05
    outer loop
      vertex 0.4 -0.69282 -0.0999994
      vertex 0.110527 -0.770384 -0.115789
      vertex 0 -0.799999 -0.0999994
    endloop
  endfacet
  facet normal -0.258819 0.965926 0
    outer loop
      vertex 0.110527 -0.770384 -0.115789
      vertex 0.4 -0.69282 -0.0999994
      vertex 0.4 -0.69282 -0.115789
    endloop
  endfacet
  facet normal -0.258814 0.965927 0
    outer loop
      vertex 0 -0.799999 -0.0999994
      vertex 0.110527 -0.770384 -0.115789
      vertex 0 -0.799999 -0.115789
    endloop
  endfacet
  facet normal -0.965926 0.258819 0
    outer loop
      vertex 0.721848 -0.291666 -0.525
      vertex 0.69282 -0.4 -0.525
      vertex 0.721848 -0.291666 -0.475
    endloop
  endfacet
  facet normal -0.965926 0.258817 0
    outer loop
      vertex 0.721848 -0.291666 -0.475
      vertex 0.799999 0 -0.2
      vertex 0.799999 0 -0.475
    endloop
  endfacet
  facet normal -0.965926 0.258819 0
    outer loop
      vertex 0.69282 -0.4 -0.2
      vertex 0.721848 -0.291666 -0.475
      vertex 0.69282 -0.4 -0.525
    endloop
  endfacet
  facet normal -0.965926 0.258818 -6.16559e-07
    outer loop
      vertex 0.721848 -0.291666 -0.475
      vertex 0.69282 -0.4 -0.2
      vertex 0.799999 0 -0.2
    endloop
  endfacet
  facet normal -0.965927 0.258814 0
    outer loop
      vertex 0.770384 -0.110527 -0.115789
      vertex 0.799999 0 -0.0999994
      vertex 0.799999 0 -0.115789
    endloop
  endfacet
  facet normal -0.965926 0.258819 0
    outer loop
      vertex 0.69282 -0.4 -0.0999994
      vertex 0.770384 -0.110527 -0.115789
      vertex 0.69282 -0.4 -0.115789
    endloop
  endfacet
  facet normal -0.965926 0.258818 -2.6509e-05
    outer loop
      vertex 0.770384 -0.110527 -0.115789
      vertex 0.69282 -0.4 -0.0999994
      vertex 0.799999 0 -0.0999994
    endloop
  endfacet
  facet normal 0.707107 -0.707107 0
    outer loop
      vertex -0.69282 0.4 -0.2
      vertex -0.4 0.69282 -0.525
      vertex -0.4 0.69282 -0.2
    endloop
  endfacet
  facet normal 0.707107 -0.707107 0
    outer loop
      vertex -0.4 0.69282 -0.525
      vertex -0.69282 0.4 -0.2
      vertex -0.69282 0.4 -0.525
    endloop
  endfacet
  facet normal 0.707107 -0.707107 0
    outer loop
      vertex -0.4 0.69282 -0.0999994
      vertex -0.69282 0.4 -0.115789
      vertex -0.4 0.69282 -0.115789
    endloop
  endfacet
  facet normal 0.707107 -0.707107 0
    outer loop
      vertex -0.69282 0.4 -0.0999994
      vertex -0.69282 0.4 -0.115789
      vertex -0.4 0.69282 -0.0999994
    endloop
  endfacet
  facet normal 0.258818 -0.965926 0
    outer loop
      vertex -0.4 0.69282 -0.525
      vertex 0 0.799999 -0.2
      vertex -0.4 0.69282 -0.2
    endloop
  endfacet
  facet normal 0.258818 -0.965926 0
    outer loop
      vertex 0 0.799999 -0.2
      vertex -0.4 0.69282 -0.525
      vertex 0 0.799999 -0.525
    endloop
  endfacet
  facet normal 0.258818 -0.965926 -2.6509e-05
    outer loop
      vertex -0.4 0.69282 -0.0999994
      vertex -0.110527 0.770384 -0.115789
      vertex 0 0.799999 -0.0999994
    endloop
  endfacet
  facet normal 0.258819 -0.965926 0
    outer loop
      vertex -0.110527 0.770384 -0.115789
      vertex -0.4 0.69282 -0.0999994
      vertex -0.4 0.69282 -0.115789
    endloop
  endfacet
  facet normal 0.258814 -0.965927 0
    outer loop
      vertex 0 0.799999 -0.0999994
      vertex -0.110527 0.770384 -0.115789
      vertex 0 0.799999 -0.115789
    endloop
  endfacet
  facet normal 0.965926 -0.258819 0
    outer loop
      vertex -0.69282 0.4 -0.2
      vertex -0.721848 0.291666 -0.475
      vertex -0.69282 0.4 -0.525
    endloop
  endfacet
  facet normal 0.965926 -0.258818 -6.16559e-07
    outer loop
      vertex -0.799999 0 -0.2
      vertex -0.721848 0.291666 -0.475
      vertex -0.69282 0.4 -0.2
    endloop
  endfacet
  facet normal 0.965926 -0.258817 0
    outer loop
      vertex -0.721848 0.291666 -0.475
      vertex -0.799999 0 -0.2
      vertex -0.799999 0 -0.475
    endloop
  endfacet
  facet normal 0.965926 -0.258819 0
    outer loop
      vertex -0.69282 0.4 -0.525
      vertex -0.721848 0.291666 -0.475
      vertex -0.721848 0.291666 -0.525
    endloop
  endfacet
  facet normal 0.965926 -0.258819 0
    outer loop
      vertex -0.69282 0.4 -0.0999994
      vertex -0.770384 0.110527 -0.115789
      vertex -0.69282 0.4 -0.115789
    endloop
  endfacet
  facet normal 0.965926 -0.258818 -2.6509e-05
    outer loop
      vertex -0.799999 0 -0.0999994
      vertex -0.770384 0.110527 -0.115789
      vertex -0.69282 0.4 -0.0999994
    endloop
  endfacet
  facet normal 0.965927 -0.258814 0
    outer loop
      vertex -0.770384 0.110527 -0.115789
      vertex -0.799999 0 -0.0999994
      vertex -0.799999 0 -0.115789
    endloop
  endfacet
  facet normal -0.707107 0.707107 0
    outer loop
      vertex 0.4 -0.69282 -0.525
      vertex 0.69282 -0.4 -0.2
      vertex 0.69282 -0.4 -0.525
    endloop
  endfacet
  facet normal -0.707107 0.707107 0
    outer loop
      vertex 0.69282 -0.4 -0.2
      vertex 0.4 -0.69282 -0.525
      vertex 0.4 -0.69282 -0.2
    endloop
  endfacet
  facet normal -0.707107 0.707107 0
    outer loop
      vertex 0.4 -0.69282 -0.115789
      vertex 0.69282 -0.4 -0.0999994
      vertex 0.69282 -0.4 -0.115789
    endloop
  endfacet
  facet normal -0.707107 0.707107 0
    outer loop
      vertex 0.69282 -0.4 -0.0999994
      vertex 0.4 -0.69282 -0.115789
      vertex 0.4 -0.69282 -0.0999994
    endloop
  endfacet
  facet normal 0.707107 0.707107 0
    outer loop
      vertex -0.4 -0.69282 -0.2
      vertex -0.69282 -0.4 -0.525
      vertex -0.69282 -0.4 -0.2
    endloop
  endfacet
  facet normal 0.707107 0.707107 0
    outer loop
      vertex -0.69282 -0.4 -0.525
      vertex -0.4 -0.69282 -0.2
      vertex -0.4 -0.69282 -0.525
    endloop
  endfacet
  facet normal 0.707107 0.707107 0
    outer loop
      vertex -0.4 -0.69282 -0.0999994
      vertex -0.4 -0.69282 -0.115789
      vertex -0.69282 -0.4 -0.0999994
    endloop
  endfacet
  facet normal 0.707107 0.707107 0
    outer loop
      vertex -0.69282 -0.4 -0.0999994
      vertex -0.4 -0.69282 -0.115789
      vertex -0.69282 -0.4 -0.115789
    endloop
  endfacet
  facet normal 0.258818 0.965926 -0
    outer loop
      vertex 0 -0.799999 -0.525
      vertex -0.4 -0.69282 -0.2
      vertex 0 -0.799999 -0.2
    endloop
  endfacet
  facet normal 0.258818 0.965926 0
    outer loop
      vertex -0.4 -0.69282 -0.2
      vertex 0 -0.799999 -0.525
      vertex -0.4 -0.69282 -0.525
    endloop
  endfacet
  facet normal 0.258818 0.965926 -2.6509e-05
    outer loop
      vertex 0 -0.799999 -0.0999994
      vertex -0.110527 -0.770384 -0.115789
      vertex -0.4 -0.69282 -0.0999994
    endloop
  endfacet
  facet normal 0.258814 0.965927 0
    outer loop
      vertex -0.110527 -0.770384 -0.115789
      vertex 0 -0.799999 -0.0999994
      vertex 0 -0.799999 -0.115789
    endloop
  endfacet
  facet normal 0.258819 0.965926 0
    outer loop
      vertex -0.4 -0.69282 -0.0999994
      vertex -0.110527 -0.770384 -0.115789
      vertex -0.4 -0.69282 -0.115789
    endloop
  endfacet
  facet normal 0 0 1
    outer loop
      vertex 0.724999 0 0
      vertex 1 0 0
      vertex 0.866025 0.5 0
    endloop
  endfacet
  facet normal 0 0 1
    outer loop
      vertex 1 0 0
      vertex 0.724999 0 0
      vertex 0.866025 -0.5 0
    endloop
  endfacet
  facet normal 0 0 1
    outer loop
      vertex 0.866025 0.5 0
      vertex 0.627868 0.362499 0
      vertex 0.724999 0 0
    endloop
  endfacet
  facet normal 0 0 1
    outer loop
      vertex 0.5 0.866025 0
      vertex 0.627868 0.362499 0
      vertex 0.866025 0.5 0
    endloop
  endfacet
  facet normal 0 0 1
    outer loop
      vertex 0.5 0.866025 0
      vertex 0.362499 0.627868 0
      vertex 0.627868 0.362499 0
    endloop
  endfacet
  facet normal 0 0 1
    outer loop
      vertex 0 1 0
      vertex 0.362499 0.627868 0
      vertex 0.5 0.866025 0
    endloop
  endfacet
  facet normal 0 0 1
    outer loop
      vertex 0 1 0
      vertex 0 0.724999 0
      vertex 0.362499 0.627868 0
    endloop
  endfacet
  facet normal 0 0 1
    outer loop
      vertex 0 1 0
      vertex -0.362499 0.627868 0
      vertex 0 0.724999 0
    endloop
  endfacet
  facet normal -0 0 1
    outer loop
      vertex -0.5 0.866025 0
      vertex -0.362499 0.627868 0
      vertex 0 1 0
    endloop
  endfacet
  facet normal 0 0 1
    outer loop
      vertex -0.5 0.866025 0
      vertex -0.627868 0.362499 0
      vertex -0.362499 0.627868 0
    endloop
  endfacet
  facet normal -0 0 1
    outer loop
      vertex -0.866025 0.5 0
      vertex -0.627868 0.362499 0
      vertex -0.5 0.866025 0
    endloop
  endfacet
  facet normal 0 0 1
    outer loop
      vertex -0.627868 0.362499 0
      vertex -0.866025 0.5 0
      vertex -0.724999 0 0
    endloop
  endfacet
  facet normal -0 0 1
    outer loop
      vertex 0.627868 -0.362499 0
      vertex 0.866025 -0.5 0
      vertex 0.724999 0 0
    endloop
  endfacet
  facet normal 0 0 1
    outer loop
      vertex 0.627868 -0.362499 0
      vertex 0.5 -0.866025 0
      vertex 0.866025 -0.5 0
    endloop
  endfacet
  facet normal -0 0 1
    outer loop
      vertex 0.362499 -0.627868 0
      vertex 0.5 -0.866025 0
      vertex 0.627868 -0.362499 0
    endloop
  endfacet
  facet normal -0 0 1
    outer loop
      vertex 0 -0.724999 0
      vertex 0.5 -0.866025 0
      vertex 0.362499 -0.627868 0
    endloop
  endfacet
  facet normal 0 0 1
    outer loop
      vertex 0 -0.724999 0
      vertex 0 -1 0
      vertex 0.5 -0.866025 0
    endloop
  endfacet
  facet normal 0 0 1
    outer loop
      vertex -0.362499 -0.627868 0
      vertex 0 -1 0
      vertex 0 -0.724999 0
    endloop
  endfacet
  facet normal 0 0 1
    outer loop
      vertex -0.362499 -0.627868 0
      vertex -0.5 -0.866025 0
      vertex 0 -1 0
    endloop
  endfacet
  facet normal 0 0 1
    outer loop
      vertex -0.627868 -0.362499 0
      vertex -0.5 -0.866025 0
      vertex -0.362499 -0.627868 0
    endloop
  endfacet
  facet normal 0 0 1
    outer loop
      vertex -0.866025 -0.5 0
      vertex -0.627868 -0.362499 0
      vertex -0.724999 0 0
    endloop
  endfacet
  facet normal 0 0 1
    outer loop
      vertex -1 0 0
      vertex -0.724999 0 0
      vertex -0.866025 0.5 0
    endloop
  endfacet
  facet normal 0 0 1
    outer loop
      vertex -0.627868 -0.362499 0
      vertex -0.866025 -0.5 0
      vertex -0.5 -0.866025 0
    endloop
  endfacet
  facet normal 0 0 1
    outer loop
      vertex -0.724999 0 0
      vertex -1 0 0
      vertex -0.866025 -0.5 0
    endloop
  endfacet
  facet normal -0 0 -1
    outer loop
      vertex 0.799999 0 -0.0999994
      vertex 0.72733 -0.131251 -0.0999994
      vertex 0.762499 0 -0.0999994
    endloop
  endfacet
  facet normal 0 0 -1
    outer loop
      vertex 0.69282 -0.4 -0.0999994
      vertex 0.72733 -0.131251 -0.0999994
      vertex 0.799999 0 -0.0999994
    endloop
  endfacet
  facet normal 0 0 -1
    outer loop
      vertex 0.69282 -0.4 -0.0999994
      vertex 0.660343 -0.381249 -0.0999994
      vertex 0.72733 -0.131251 -0.0999994
    endloop
  endfacet
  facet normal 0 0 -1
    outer loop
      vertex 0.4 -0.69282 -0.0999994
      vertex 0.660343 -0.381249 -0.0999994
      vertex 0.69282 -0.4 -0.0999994
    endloop
  endfacet
  facet normal 0 0 -1
    outer loop
      vertex 0.4 -0.69282 -0.0999994
      vertex 0.381249 -0.660343 -0.0999994
      vertex 0.660343 -0.381249 -0.0999994
    endloop
  endfacet
  facet normal -0 0 -1
    outer loop
      vertex 0.4 -0.69282 -0.0999994
      vertex 0.131251 -0.72733 -0.0999994
      vertex 0.381249 -0.660343 -0.0999994
    endloop
  endfacet
  facet normal 0 0 -1
    outer loop
      vertex 0 -0.799999 -0.0999994
      vertex 0.131251 -0.72733 -0.0999994
      vertex 0.4 -0.69282 -0.0999994
    endloop
  endfacet
  facet normal 0 0 -1
    outer loop
      vertex 0 -0.799999 -0.0999994
      vertex 0 -0.762499 -0.0999994
      vertex 0.131251 -0.72733 -0.0999994
    endloop
  endfacet
  facet normal 0 0 -1
    outer loop
      vertex 0 -0.799999 -0.0999994
      vertex -0.131251 -0.72733 -0.0999994
      vertex 0 -0.762499 -0.0999994
    endloop
  endfacet
  facet normal 0 0 -1
    outer loop
      vertex -0.4 -0.69282 -0.0999994
      vertex -0.131251 -0.72733 -0.0999994
      vertex 0 -0.799999 -0.0999994
    endloop
  endfacet
  facet normal 0 0 -1
    outer loop
      vertex -0.131251 -0.72733 -0.0999994
      vertex -0.4 -0.69282 -0.0999994
      vertex -0.381249 -0.660343 -0.0999994
    endloop
  endfacet
  facet normal 0 0 -1
    outer loop
      vertex -0.4 -0.69282 -0.0999994
      vertex -0.660343 -0.381249 -0.0999994
      vertex -0.381249 -0.660343 -0.0999994
    endloop
  endfacet
  facet normal 0 0 -1
    outer loop
      vertex -0.69282 -0.4 -0.0999994
      vertex -0.660343 -0.381249 -0.0999994
      vertex -0.4 -0.69282 -0.0999994
    endloop
  endfacet
  facet normal 0 0 -1
    outer loop
      vertex -0.69282 -0.4 -0.0999994
      vertex -0.72733 -0.131251 -0.0999994
      vertex -0.660343 -0.381249 -0.0999994
    endloop
  endfacet
  facet normal 0 0 -1
    outer loop
      vertex -0.799999 0 -0.0999994
      vertex -0.72733 -0.131251 -0.0999994
      vertex -0.69282 -0.4 -0.0999994
    endloop
  endfacet
  facet normal 0 0 -1
    outer loop
      vertex -0.72733 -0.131251 -0.0999994
      vertex -0.799999 0 -0.0999994
      vertex -0.762499 0 -0.0999994
    endloop
  endfacet
  facet normal 0 0 -1
    outer loop
      vertex 0.72733 0.131251 -0.0999994
      vertex 0.799999 0 -0.0999994
      vertex 0.762499 0 -0.0999994
    endloop
  endfacet
  facet normal 0 0 -1
    outer loop
      vertex 0.72733 0.131251 -0.0999994
      vertex 0.69282 0.4 -0.0999994
      vertex 0.799999 0 -0.0999994
    endloop
  endfacet
  facet normal 0 0 -1
    outer loop
      vertex 0.660343 0.381249 -0.0999994
      vertex 0.69282 0.4 -0.0999994
      vertex 0.72733 0.131251 -0.0999994
    endloop
  endfacet
  facet normal 0 0 -1
    outer loop
      vertex 0.660343 0.381249 -0.0999994
      vertex 0.4 0.69282 -0.0999994
      vertex 0.69282 0.4 -0.0999994
    endloop
  endfacet
  facet normal 0 0 -1
    outer loop
      vertex 0.381249 0.660343 -0.0999994
      vertex 0.4 0.69282 -0.0999994
      vertex 0.660343 0.381249 -0.0999994
    endloop
  endfacet
  facet normal 0 0 -1
    outer loop
      vertex 0.131251 0.72733 -0.0999994
      vertex 0.4 0.69282 -0.0999994
      vertex 0.381249 0.660343 -0.0999994
    endloop
  endfacet
  facet normal 0 0 -1
    outer loop
      vertex 0 0.799999 -0.0999994
      vertex 0.131251 0.72733 -0.0999994
      vertex 0 0.762499 -0.0999994
    endloop
  endfacet
  facet normal 0 0 -1
    outer loop
      vertex 0.131251 0.72733 -0.0999994
      vertex 0 0.799999 -0.0999994
      vertex 0.4 0.69282 -0.0999994
    endloop
  endfacet
  facet normal 0 0 -1
    outer loop
      vertex -0.131251 0.72733 -0.0999994
      vertex 0 0.799999 -0.0999994
      vertex 0 0.762499 -0.0999994
    endloop
  endfacet
  facet normal 0 0 -1
    outer loop
      vertex -0.4 0.69282 -0.0999994
      vertex -0.131251 0.72733 -0.0999994
      vertex -0.381249 0.660343 -0.0999994
    endloop
  endfacet
  facet normal -0 0 -1
    outer loop
      vertex -0.131251 0.72733 -0.0999994
      vertex -0.4 0.69282 -0.0999994
      vertex 0 0.799999 -0.0999994
    endloop
  endfacet
  facet normal 0 0 -1
    outer loop
      vertex -0.660343 0.381249 -0.0999994
      vertex -0.4 0.69282 -0.0999994
      vertex -0.381249 0.660343 -0.0999994
    endloop
  endfacet
  facet normal 0 0 -1
    outer loop
      vertex -0.660343 0.381249 -0.0999994
      vertex -0.69282 0.4 -0.0999994
      vertex -0.4 0.69282 -0.0999994
    endloop
  endfacet
  facet normal 0 0 -1
    outer loop
      vertex -0.72733 0.131251 -0.0999994
      vertex -0.69282 0.4 -0.0999994
      vertex -0.660343 0.381249 -0.0999994
    endloop
  endfacet
  facet normal 0 0 -1
    outer loop
      vertex -0.799999 0 -0.0999994
      vertex -0.72733 0.131251 -0.0999994
      vertex -0.762499 0 -0.0999994
    endloop
  endfacet
  facet normal -0 0 -1
    outer loop
      vertex -0.72733 0.131251 -0.0999994
      vertex -0.799999 0 -0.0999994
      vertex -0.69282 0.4 -0.0999994
    endloop
  endfacet
  facet normal -0.385967 0.10342 0.916697
    outer loop
      vertex -0.69282 0.4 -0.115789
      vertex -0.72733 0.131251 -0.0999994
      vertex -0.660343 0.381249 -0.0999994
    endloop
  endfacet
  facet normal -0.38597 0.10342 0.916696
    outer loop
      vertex -0.72733 0.131251 -0.0999994
      vertex -0.69282 0.4 -0.115789
      vertex -0.770384 0.110527 -0.115789
    endloop
  endfacet
  facet normal 0.385979 0.103421 0.916692
    outer loop
      vertex 0.770384 0.110527 -0.115789
      vertex 0.762499 0 -0.0999994
      vertex 0.799999 0 -0.115789
    endloop
  endfacet
  facet normal 0.38597 0.103422 0.916696
    outer loop
      vertex 0.762499 0 -0.0999994
      vertex 0.770384 0.110527 -0.115789
      vertex 0.72733 0.131251 -0.0999994
    endloop
  endfacet
  facet normal 0.38597 0.10342 0.916696
    outer loop
      vertex 0.69282 0.4 -0.115789
      vertex 0.72733 0.131251 -0.0999994
      vertex 0.770384 0.110527 -0.115789
    endloop
  endfacet
  facet normal 0.385967 0.10342 0.916697
    outer loop
      vertex 0.72733 0.131251 -0.0999994
      vertex 0.69282 0.4 -0.115789
      vertex 0.660343 0.381249 -0.0999994
    endloop
  endfacet
  facet normal 0.282547 0.282547 0.916698
    outer loop
      vertex 0.4 0.69282 -0.115789
      vertex 0.660343 0.381249 -0.0999994
      vertex 0.69282 0.4 -0.115789
    endloop
  endfacet
  facet normal 0.282547 0.282547 0.916698
    outer loop
      vertex 0.660343 0.381249 -0.0999994
      vertex 0.4 0.69282 -0.115789
      vertex 0.381249 0.660343 -0.0999994
    endloop
  endfacet
  facet normal -0.282547 0.282547 0.916698
    outer loop
      vertex -0.4 0.69282 -0.115789
      vertex -0.660343 0.381249 -0.0999994
      vertex -0.381249 0.660343 -0.0999994
    endloop
  endfacet
  facet normal -0.282547 0.282547 0.916698
    outer loop
      vertex -0.660343 0.381249 -0.0999994
      vertex -0.4 0.69282 -0.115789
      vertex -0.69282 0.4 -0.115789
    endloop
  endfacet
  facet normal -0.10342 0.38597 0.916696
    outer loop
      vertex -0.4 0.69282 -0.115789
      vertex -0.131251 0.72733 -0.0999994
      vertex -0.110527 0.770384 -0.115789
    endloop
  endfacet
  facet normal -0.10342 0.385967 0.916697
    outer loop
      vertex -0.131251 0.72733 -0.0999994
      vertex -0.4 0.69282 -0.115789
      vertex -0.381249 0.660343 -0.0999994
    endloop
  endfacet
  facet normal -0.103421 0.385979 0.916692
    outer loop
      vertex -0.110527 0.770384 -0.115789
      vertex 0 0.762499 -0.0999994
      vertex 0 0.799999 -0.115789
    endloop
  endfacet
  facet normal -0.103422 0.38597 0.916696
    outer loop
      vertex 0 0.762499 -0.0999994
      vertex -0.110527 0.770384 -0.115789
      vertex -0.131251 0.72733 -0.0999994
    endloop
  endfacet
  facet normal -0.385967 -0.10342 0.916697
    outer loop
      vertex -0.72733 -0.131251 -0.0999994
      vertex -0.69282 -0.4 -0.115789
      vertex -0.660343 -0.381249 -0.0999994
    endloop
  endfacet
  facet normal -0.38597 -0.10342 0.916696
    outer loop
      vertex -0.69282 -0.4 -0.115789
      vertex -0.72733 -0.131251 -0.0999994
      vertex -0.770384 -0.110527 -0.115789
    endloop
  endfacet
  facet normal -0.38597 -0.103422 0.916696
    outer loop
      vertex -0.762499 0 -0.0999994
      vertex -0.770384 -0.110527 -0.115789
      vertex -0.72733 -0.131251 -0.0999994
    endloop
  endfacet
  facet normal -0.385979 -0.103421 0.916692
    outer loop
      vertex -0.770384 -0.110527 -0.115789
      vertex -0.762499 0 -0.0999994
      vertex -0.799999 0 -0.115789
    endloop
  endfacet
  facet normal -0.10342 -0.385967 0.916697
    outer loop
      vertex -0.4 -0.69282 -0.115789
      vertex -0.131251 -0.72733 -0.0999994
      vertex -0.381249 -0.660343 -0.0999994
    endloop
  endfacet
  facet normal -0.10342 -0.38597 0.916696
    outer loop
      vertex -0.131251 -0.72733 -0.0999994
      vertex -0.4 -0.69282 -0.115789
      vertex -0.110527 -0.770384 -0.115789
    endloop
  endfacet
  facet normal 0.10342 0.385967 0.916697
    outer loop
      vertex 0.4 0.69282 -0.115789
      vertex 0.131251 0.72733 -0.0999994
      vertex 0.381249 0.660343 -0.0999994
    endloop
  endfacet
  facet normal 0.10342 0.38597 0.916696
    outer loop
      vertex 0.131251 0.72733 -0.0999994
      vertex 0.4 0.69282 -0.115789
      vertex 0.110527 0.770384 -0.115789
    endloop
  endfacet
  facet normal -0.282547 -0.282547 0.916698
    outer loop
      vertex -0.660343 -0.381249 -0.0999994
      vertex -0.4 -0.69282 -0.115789
      vertex -0.381249 -0.660343 -0.0999994
    endloop
  endfacet
  facet normal -0.282547 -0.282547 0.916698
    outer loop
      vertex -0.4 -0.69282 -0.115789
      vertex -0.660343 -0.381249 -0.0999994
      vertex -0.69282 -0.4 -0.115789
    endloop
  endfacet
  facet normal 0.103421 0.385979 0.916692
    outer loop
      vertex 0 0.762499 -0.0999994
      vertex 0.110527 0.770384 -0.115789
      vertex 0 0.799999 -0.115789
    endloop
  endfacet
  facet normal 0.103422 0.38597 0.916696
    outer loop
      vertex 0.110527 0.770384 -0.115789
      vertex 0 0.762499 -0.0999994
      vertex 0.131251 0.72733 -0.0999994
    endloop
  endfacet
  facet normal 0 0 -1
    outer loop
      vertex 0.525 0 -0.2
      vertex 0.799999 0 -0.2
      vertex 0.69282 -0.4 -0.2
    endloop
  endfacet
  facet normal 0 0 -1
    outer loop
      vertex 0.799999 0 -0.2
      vertex 0.525 0 -0.2
      vertex 0.69282 0.4 -0.2
    endloop
  endfacet
  facet normal 0 0 -1
    outer loop
      vertex 0.69282 -0.4 -0.2
      vertex 0.454663 -0.2625 -0.2
      vertex 0.525 0 -0.2
    endloop
  endfacet
  facet normal 0 0 -1
    outer loop
      vertex 0.4 -0.69282 -0.2
      vertex 0.454663 -0.2625 -0.2
      vertex 0.69282 -0.4 -0.2
    endloop
  endfacet
  facet normal 0 0 -1
    outer loop
      vertex 0.4 -0.69282 -0.2
      vertex 0.2625 -0.454663 -0.2
      vertex 0.454663 -0.2625 -0.2
    endloop
  endfacet
  facet normal 0 0 -1
    outer loop
      vertex 0 -0.799999 -0.2
      vertex 0.2625 -0.454663 -0.2
      vertex 0.4 -0.69282 -0.2
    endloop
  endfacet
  facet normal 0 0 -1
    outer loop
      vertex 0 -0.799999 -0.2
      vertex 0 -0.525 -0.2
      vertex 0.2625 -0.454663 -0.2
    endloop
  endfacet
  facet normal 0 0 -1
    outer loop
      vertex 0 -0.799999 -0.2
      vertex -0.2625 -0.454663 -0.2
      vertex 0 -0.525 -0.2
    endloop
  endfacet
  facet normal 0 0 -1
    outer loop
      vertex -0.4 -0.69282 -0.2
      vertex -0.2625 -0.454663 -0.2
      vertex 0 -0.799999 -0.2
    endloop
  endfacet
  facet normal 0 0 -1
    outer loop
      vertex -0.4 -0.69282 -0.2
      vertex -0.454663 -0.2625 -0.2
      vertex -0.2625 -0.454663 -0.2
    endloop
  endfacet
  facet normal 0 0 -1
    outer loop
      vertex -0.69282 -0.4 -0.2
      vertex -0.454663 -0.2625 -0.2
      vertex -0.4 -0.69282 -0.2
    endloop
  endfacet
  facet normal -0 0 -1
    outer loop
      vertex -0.454663 -0.2625 -0.2
      vertex -0.69282 -0.4 -0.2
      vertex -0.525 0 -0.2
    endloop
  endfacet
  facet normal 0 0 -1
    outer loop
      vertex 0.454663 0.2625 -0.2
      vertex 0.69282 0.4 -0.2
      vertex 0.525 0 -0.2
    endloop
  endfacet
  facet normal 0 0 -1
    outer loop
      vertex 0.454663 0.2625 -0.2
      vertex 0.4 0.69282 -0.2
      vertex 0.69282 0.4 -0.2
    endloop
  endfacet
  facet normal 0 0 -1
    outer loop
      vertex 0.2625 0.454663 -0.2
      vertex 0.4 0.69282 -0.2
      vertex 0.454663 0.2625 -0.2
    endloop
  endfacet
  facet normal 0 0 -1
    outer loop
      vertex 0 0.525 -0.2
      vertex 0.4 0.69282 -0.2
      vertex 0.2625 0.454663 -0.2
    endloop
  endfacet
  facet normal 0 0 -1
    outer loop
      vertex 0 0.525 -0.2
      vertex 0 0.799999 -0.2
      vertex 0.4 0.69282 -0.2
    endloop
  endfacet
  facet normal 0 0 -1
    outer loop
      vertex -0.2625 0.454663 -0.2
      vertex 0 0.799999 -0.2
      vertex 0 0.525 -0.2
    endloop
  endfacet
  facet normal 0 0 -1
    outer loop
      vertex -0.2625 0.454663 -0.2
      vertex -0.4 0.69282 -0.2
      vertex 0 0.799999 -0.2
    endloop
  endfacet
  facet normal 0 0 -1
    outer loop
      vertex -0.454663 0.2625 -0.2
      vertex -0.4 0.69282 -0.2
      vertex -0.2625 0.454663 -0.2
    endloop
  endfacet
  facet normal 0 0 -1
    outer loop
      vertex -0.69282 0.4 -0.2
      vertex -0.454663 0.2625 -0.2
      vertex -0.525 0 -0.2
    endloop
  endfacet
  facet normal 0 0 -1
    outer loop
      vertex -0.799999 0 -0.2
      vertex -0.525 0 -0.2
      vertex -0.69282 -0.4 -0.2
    endloop
  endfacet
  facet normal 0 0 -1
    outer loop
      vertex -0.454663 0.2625 -0.2
      vertex -0.69282 0.4 -0.2
      vertex -0.4 0.69282 -0.2
    endloop
  endfacet
  facet normal 0 0 -1
    outer loop
      vertex -0.525 0 -0.2
      vertex -0.799999 0 -0.2
      vertex -0.69282 0.4 -0.2
    endloop
  endfacet
  facet normal 0.38597 -0.10342 0.916696
    outer loop
      vertex 0.72733 -0.131251 -0.0999994
      vertex 0.69282 -0.4 -0.115789
      vertex 0.770384 -0.110527 -0.115789
    endloop
  endfacet
  facet normal 0.385967 -0.10342 0.916697
    outer loop
      vertex 0.660343 -0.381249 -0.0999994
      vertex 0.69282 -0.4 -0.115789
      vertex 0.72733 -0.131251 -0.0999994
    endloop
  endfacet
  facet normal 0.385979 -0.103421 0.916692
    outer loop
      vertex 0.762499 0 -0.0999994
      vertex 0.770384 -0.110527 -0.115789
      vertex 0.799999 0 -0.115789
    endloop
  endfacet
  facet normal 0.38597 -0.103422 0.916696
    outer loop
      vertex 0.770384 -0.110527 -0.115789
      vertex 0.762499 0 -0.0999994
      vertex 0.72733 -0.131251 -0.0999994
    endloop
  endfacet
  facet normal -0.103421 -0.385979 0.916692
    outer loop
      vertex 0 -0.762499 -0.0999994
      vertex -0.110527 -0.770384 -0.115789
      vertex 0 -0.799999 -0.115789
    endloop
  endfacet
  facet normal -0.103422 -0.38597 0.916696
    outer loop
      vertex -0.110527 -0.770384 -0.115789
      vertex 0 -0.762499 -0.0999994
      vertex -0.131251 -0.72733 -0.0999994
    endloop
  endfacet
  facet normal -0.38597 0.103422 0.916696
    outer loop
      vertex -0.770384 0.110527 -0.115789
      vertex -0.762499 0 -0.0999994
      vertex -0.72733 0.131251 -0.0999994
    endloop
  endfacet
  facet normal -0.385979 0.103421 0.916692
    outer loop
      vertex -0.762499 0 -0.0999994
      vertex -0.770384 0.110527 -0.115789
      vertex -0.799999 0 -0.115789
    endloop
  endfacet
  facet normal 0.103422 -0.38597 0.916696
    outer loop
      vertex 0 -0.762499 -0.0999994
      vertex 0.110527 -0.770384 -0.115789
      vertex 0.131251 -0.72733 -0.0999994
    endloop
  endfacet
  facet normal 0.103421 -0.385979 0.916692
    outer loop
      vertex 0.110527 -0.770384 -0.115789
      vertex 0 -0.762499 -0.0999994
      vertex 0 -0.799999 -0.115789
    endloop
  endfacet
  facet normal 0.10342 -0.385967 0.916697
    outer loop
      vertex 0.131251 -0.72733 -0.0999994
      vertex 0.4 -0.69282 -0.115789
      vertex 0.381249 -0.660343 -0.0999994
    endloop
  endfacet
  facet normal 0.10342 -0.38597 0.916696
    outer loop
      vertex 0.4 -0.69282 -0.115789
      vertex 0.131251 -0.72733 -0.0999994
      vertex 0.110527 -0.770384 -0.115789
    endloop
  endfacet
  facet normal 0.282547 -0.282547 0.916698
    outer loop
      vertex 0.660343 -0.381249 -0.0999994
      vertex 0.4 -0.69282 -0.115789
      vertex 0.69282 -0.4 -0.115789
    endloop
  endfacet
  facet normal 0.282547 -0.282547 0.916698
    outer loop
      vertex 0.4 -0.69282 -0.115789
      vertex 0.660343 -0.381249 -0.0999994
      vertex 0.381249 -0.660343 -0.0999994
    endloop
  endfacet
  facet normal -0.965926 -0.258818 0
    outer loop
      vertex -0.627868 -0.362499 0
      vertex -0.724999 0 0.299999
      vertex -0.724999 0 0
    endloop
  endfacet
  facet normal -0.965926 -0.258818 0
    outer loop
      vertex -0.724999 0 0.299999
      vertex -0.627868 -0.362499 0
      vertex -0.627868 -0.362499 0.299999
    endloop
  endfacet
  facet normal 0.707107 0.707107 0
    outer loop
      vertex 0.627868 0.362499 0.299999
      vertex 0.362499 0.627868 0
      vertex 0.362499 0.627868 0.299999
    endloop
  endfacet
  facet normal 0.707107 0.707107 0
    outer loop
      vertex 0.362499 0.627868 0
      vertex 0.627868 0.362499 0.299999
      vertex 0.627868 0.362499 0
    endloop
  endfacet
  facet normal 0.965926 0.258818 0
    outer loop
      vertex 0.724999 0 0.299999
      vertex 0.627868 0.362499 0
      vertex 0.627868 0.362499 0.299999
    endloop
  endfacet
  facet normal 0.965926 0.258818 0
    outer loop
      vertex 0.627868 0.362499 0
      vertex 0.724999 0 0.299999
      vertex 0.724999 0 0
    endloop
  endfacet
  facet normal 0.258818 0.965926 -0
    outer loop
      vertex 0.362499 0.627868 0
      vertex 0 0.724999 0.299999
      vertex 0.362499 0.627868 0.299999
    endloop
  endfacet
  facet normal 0.258818 0.965926 0
    outer loop
      vertex 0 0.724999 0.299999
      vertex 0.362499 0.627868 0
      vertex 0 0.724999 0
    endloop
  endfacet
  facet normal 0.258818 -0.965926 0
    outer loop
      vertex 0 -0.724999 0
      vertex 0.362499 -0.627868 0.299999
      vertex 0 -0.724999 0.299999
    endloop
  endfacet
  facet normal 0.258818 -0.965926 0
    outer loop
      vertex 0.362499 -0.627868 0.299999
      vertex 0 -0.724999 0
      vertex 0.362499 -0.627868 0
    endloop
  endfacet
  facet normal 0.965926 -0.258818 0
    outer loop
      vertex 0.627868 -0.362499 0.299999
      vertex 0.724999 0 0
      vertex 0.724999 0 0.299999
    endloop
  endfacet
  facet normal 0.965926 -0.258818 0
    outer loop
      vertex 0.724999 0 0
      vertex 0.627868 -0.362499 0.299999
      vertex 0.627868 -0.362499 0
    endloop
  endfacet
  facet normal -0.707107 0.707107 0
    outer loop
      vertex -0.627868 0.362499 0
      vertex -0.362499 0.627868 0.299999
      vertex -0.362499 0.627868 0
    endloop
  endfacet
  facet normal -0.707107 0.707107 0
    outer loop
      vertex -0.362499 0.627868 0.299999
      vertex -0.627868 0.362499 0
      vertex -0.627868 0.362499 0.299999
    endloop
  endfacet
  facet normal -0.258818 0.965926 0
    outer loop
      vertex 0 0.724999 0
      vertex -0.362499 0.627868 0.299999
      vertex 0 0.724999 0.299999
    endloop
  endfacet
  facet normal -0.258818 0.965926 0
    outer loop
      vertex -0.362499 0.627868 0.299999
      vertex 0 0.724999 0
      vertex -0.362499 0.627868 0
    endloop
  endfacet
  facet normal -0.965926 0.258818 0
    outer loop
      vertex -0.724999 0 0
      vertex -0.627868 0.362499 0.299999
      vertex -0.627868 0.362499 0
    endloop
  endfacet
  facet normal -0.965926 0.258818 0
    outer loop
      vertex -0.627868 0.362499 0.299999
      vertex -0.724999 0 0
      vertex -0.724999 0 0.299999
    endloop
  endfacet
  facet normal 0.707107 -0.707107 0
    outer loop
      vertex 0.362499 -0.627868 0.299999
      vertex 0.627868 -0.362499 0
      vertex 0.627868 -0.362499 0.299999
    endloop
  endfacet
  facet normal 0.707107 -0.707107 0
    outer loop
      vertex 0.627868 -0.362499 0
      vertex 0.362499 -0.627868 0.299999
      vertex 0.362499 -0.627868 0
    endloop
  endfacet
  facet normal 0 0 1
    outer loop
      vertex 0.525 0 0.299999
      vertex 0.724999 0 0.299999
      vertex 0.627868 0.362499 0.299999
    endloop
  endfacet
  facet normal 0 0 1
    outer loop
      vertex 0.724999 0 0.299999
      vertex 0.525 0 0.299999
      vertex 0.627868 -0.362499 0.299999
    endloop
  endfacet
  facet normal 0 0 1
    outer loop
      vertex 0.627868 0.362499 0.299999
      vertex 0.454663 0.2625 0.299999
      vertex 0.525 0 0.299999
    endloop
  endfacet
  facet normal 0 0 1
    outer loop
      vertex 0.362499 0.627868 0.299999
      vertex 0.454663 0.2625 0.299999
      vertex 0.627868 0.362499 0.299999
    endloop
  endfacet
  facet normal 0 0 1
    outer loop
      vertex 0.362499 0.627868 0.299999
      vertex 0.2625 0.454663 0.299999
      vertex 0.454663 0.2625 0.299999
    endloop
  endfacet
  facet normal 0 0 1
    outer loop
      vertex 0 0.724999 0.299999
      vertex 0.2625 0.454663 0.299999
      vertex 0.362499 0.627868 0.299999
    endloop
  endfacet
  facet normal 0 0 1
    outer loop
      vertex 0 0.724999 0.299999
      vertex 0 0.525 0.299999
      vertex 0.2625 0.454663 0.299999
    endloop
  endfacet
  facet normal 0 0 1
    outer loop
      vertex 0 0.724999 0.299999
      vertex -0.2625 0.454663 0.299999
      vertex 0 0.525 0.299999
    endloop
  endfacet
  facet normal -0 0 1
    outer loop
      vertex -0.362499 0.627868 0.299999
      vertex -0.2625 0.454663 0.299999
      vertex 0 0.724999 0.299999
    endloop
  endfacet
  facet normal 0 0 1
    outer loop
      vertex -0.362499 0.627868 0.299999
      vertex -0.454663 0.2625 0.299999
      vertex -0.2625 0.454663 0.299999
    endloop
  endfacet
  facet normal -0 0 1
    outer loop
      vertex -0.627868 0.362499 0.299999
      vertex -0.454663 0.2625 0.299999
      vertex -0.362499 0.627868 0.299999
    endloop
  endfacet
  facet normal 0 0 1
    outer loop
      vertex -0.454663 0.2625 0.299999
      vertex -0.627868 0.362499 0.299999
      vertex -0.525 0 0.299999
    endloop
  endfacet
  facet normal -0 0 1
    outer loop
      vertex 0.454663 -0.2625 0.299999
      vertex 0.627868 -0.362499 0.299999
      vertex 0.525 0 0.299999
    endloop
  endfacet
  facet normal 0 0 1
    outer loop
      vertex 0.454663 -0.2625 0.299999
      vertex 0.362499 -0.627868 0.299999
      vertex 0.627868 -0.362499 0.299999
    endloop
  endfacet
  facet normal -0 0 1
    outer loop
      vertex 0.2625 -0.454663 0.299999
      vertex 0.362499 -0.627868 0.299999
      vertex 0.454663 -0.2625 0.299999
    endloop
  endfacet
  facet normal -0 0 1
    outer loop
      vertex 0 -0.525 0.299999
      vertex 0.362499 -0.627868 0.299999
      vertex 0.2625 -0.454663 0.299999
    endloop
  endfacet
  facet normal 0 0 1
    outer loop
      vertex 0 -0.525 0.299999
      vertex 0 -0.724999 0.299999
      vertex 0.362499 -0.627868 0.299999
    endloop
  endfacet
  facet normal 0 0 1
    outer loop
      vertex -0.2625 -0.454663 0.299999
      vertex 0 -0.724999 0.299999
      vertex 0 -0.525 0.299999
    endloop
  endfacet
  facet normal 0 0 1
    outer loop
      vertex -0.2625 -0.454663 0.299999
      vertex -0.362499 -0.627868 0.299999
      vertex 0 -0.724999 0.299999
    endloop
  endfacet
  facet normal 0 0 1
    outer loop
      vertex -0.454663 -0.2625 0.299999
      vertex -0.362499 -0.627868 0.299999
      vertex -0.2625 -0.454663 0.299999
    endloop
  endfacet
  facet normal 0 0 1
    outer loop
      vertex -0.627868 -0.362499 0.299999
      vertex -0.454663 -0.2625 0.299999
      vertex -0.525 0 0.299999
    endloop
  endfacet
  facet normal 0 0 1
    outer loop
      vertex -0.724999 0 0.299999
      vertex -0.525 0 0.299999
      vertex -0.627868 0.362499 0.299999
    endloop
  endfacet
  facet normal 0 0 1
    outer loop
      vertex -0.454663 -0.2625 0.299999
      vertex -0.627868 -0.362499 0.299999
      vertex -0.362499 -0.627868 0.299999
    endloop
  endfacet
  facet normal 0 0 1
    outer loop
      vertex -0.525 0 0.299999
      vertex -0.724999 0 0.299999
      vertex -0.627868 -0.362499 0.299999
    endloop
  endfacet
  facet normal -0.707107 -0.707107 0
    outer loop
      vertex -0.362499 -0.627868 0
      vertex -0.627868 -0.362499 0.299999
      vertex -0.627868 -0.362499 0
    endloop
  endfacet
  facet normal -0.707107 -0.707107 0
    outer loop
      vertex -0.627868 -0.362499 0.299999
      vertex -0.362499 -0.627868 0
      vertex -0.362499 -0.627868 0.299999
    endloop
  endfacet
  facet normal -0.258818 -0.965926 0
    outer loop
      vertex -0.362499 -0.627868 0
      vertex 0 -0.724999 0.299999
      vertex -0.362499 -0.627868 0.299999
    endloop
  endfacet
  facet normal -0.258818 -0.965926 -0
    outer loop
      vertex 0 -0.724999 0.299999
      vertex -0.362499 -0.627868 0
      vertex 0 -0.724999 0
    endloop
  endfacet
  facet normal -0.707107 -0.707107 0
    outer loop
      vertex 0.454663 0.2625 -0.2
      vertex 0.2625 0.454663 0.299999
      vertex 0.2625 0.454663 -0.2
    endloop
  endfacet
  facet normal -0.707107 -0.707107 0
    outer loop
      vertex 0.2625 0.454663 0.299999
      vertex 0.454663 0.2625 -0.2
      vertex 0.454663 0.2625 0.299999
    endloop
  endfacet
  facet normal -0.965926 -0.25882 0
    outer loop
      vertex 0.525 0 -0.2
      vertex 0.454663 0.2625 0.299999
      vertex 0.454663 0.2625 -0.2
    endloop
  endfacet
  facet normal -0.965926 -0.25882 0
    outer loop
      vertex 0.454663 0.2625 0.299999
      vertex 0.525 0 -0.2
      vertex 0.525 0 0.299999
    endloop
  endfacet
  facet normal -0.25882 -0.965926 0
    outer loop
      vertex 0 0.525 -0.2
      vertex 0.2625 0.454663 0.299999
      vertex 0 0.525 0.299999
    endloop
  endfacet
  facet normal -0.25882 -0.965926 -0
    outer loop
      vertex 0.2625 0.454663 0.299999
      vertex 0 0.525 -0.2
      vertex 0.2625 0.454663 -0.2
    endloop
  endfacet
  facet normal -0.965926 0.25882 0
    outer loop
      vertex 0.454663 -0.2625 -0.2
      vertex 0.525 0 0.299999
      vertex 0.525 0 -0.2
    endloop
  endfacet
  facet normal -0.965926 0.25882 0
    outer loop
      vertex 0.525 0 0.299999
      vertex 0.454663 -0.2625 -0.2
      vertex 0.454663 -0.2625 0.299999
    endloop
  endfacet
  facet normal 0.707107 -0.707107 0
    outer loop
      vertex -0.454663 0.2625 0.299999
      vertex -0.2625 0.454663 -0.2
      vertex -0.2625 0.454663 0.299999
    endloop
  endfacet
  facet normal 0.707107 -0.707107 0
    outer loop
      vertex -0.2625 0.454663 -0.2
      vertex -0.454663 0.2625 0.299999
      vertex -0.454663 0.2625 -0.2
    endloop
  endfacet
  facet normal 0.25882 0.965926 -0
    outer loop
      vertex 0 -0.525 -0.2
      vertex -0.2625 -0.454663 0.299999
      vertex 0 -0.525 0.299999
    endloop
  endfacet
  facet normal 0.25882 0.965926 0
    outer loop
      vertex -0.2625 -0.454663 0.299999
      vertex 0 -0.525 -0.2
      vertex -0.2625 -0.454663 -0.2
    endloop
  endfacet
  facet normal 0.965926 -0.25882 0
    outer loop
      vertex -0.525 0 0.299999
      vertex -0.454663 0.2625 -0.2
      vertex -0.454663 0.2625 0.299999
    endloop
  endfacet
  facet normal 0.965926 -0.25882 0
    outer loop
      vertex -0.454663 0.2625 -0.2
      vertex -0.525 0 0.299999
      vertex -0.525 0 -0.2
    endloop
  endfacet
  facet normal -0.707107 0.707107 0
    outer loop
      vertex 0.2625 -0.454663 -0.2
      vertex 0.454663 -0.2625 0.299999
      vertex 0.454663 -0.2625 -0.2
    endloop
  endfacet
  facet normal -0.707107 0.707107 0
    outer loop
      vertex 0.454663 -0.2625 0.299999
      vertex 0.2625 -0.454663 -0.2
      vertex 0.2625 -0.454663 0.299999
    endloop
  endfacet
  facet normal 0.25882 -0.965926 0
    outer loop
      vertex -0.2625 0.454663 -0.2
      vertex 0 0.525 0.299999
      vertex -0.2625 0.454663 0.299999
    endloop
  endfacet
  facet normal 0.25882 -0.965926 0
    outer loop
      vertex 0 0.525 0.299999
      vertex -0.2625 0.454663 -0.2
      vertex 0 0.525 -0.2
    endloop
  endfacet
  facet normal -0.25882 0.965926 0
    outer loop
      vertex 0.2625 -0.454663 -0.2
      vertex 0 -0.525 0.299999
      vertex 0.2625 -0.454663 0.299999
    endloop
  endfacet
  facet normal -0.25882 0.965926 0
    outer loop
      vertex 0 -0.525 0.299999
      vertex 0.2625 -0.454663 -0.2
      vertex 0 -0.525 -0.2
    endloop
  endfacet
  facet normal 0.707107 0.707107 0
    outer loop
      vertex -0.2625 -0.454663 0.299999
      vertex -0.454663 -0.2625 -0.2
      vertex -0.454663 -0.2625 0.299999
    endloop
  endfacet
  facet normal 0.707107 0.707107 0
    outer loop
      vertex -0.454663 -0.2625 -0.2
      vertex -0.2625 -0.454663 0.299999
      vertex -0.2625 -0.454663 -0.2
    endloop
  endfacet
  facet normal 0.965926 0.25882 0
    outer loop
      vertex -0.454663 -0.2625 0.299999
      vertex -0.525 0 -0.2
      vertex -0.525 0 0.299999
    endloop
  endfacet
  facet normal 0.965926 0.25882 0
    outer loop
      vertex -0.525 0 -0.2
      vertex -0.454663 -0.2625 0.299999
      vertex -0.454663 -0.2625 -0.2
    endloop
  endfacet
  facet normal 0 0.258835 -0.965922
    outer loop
      vertex -0.9 -0.0958328 -1.35901
      vertex -0.65 0 -1.33333
      vertex -0.65 -0.0958328 -1.35901
    endloop
  endfacet
  facet normal 0 0.258835 -0.965922
    outer loop
      vertex -0.65 0 -1.33333
      vertex -0.9 -0.0958328 -1.35901
      vertex -0.9 0 -1.33333
    endloop
  endfacet
  facet normal 0 0.258835 -0.965922
    outer loop
      vertex 0.65 -0.0958328 -1.35901
      vertex 0.9 0 -1.33333
      vertex 0.9 -0.0958328 -1.35901
    endloop
  endfacet
  facet normal 0 0.258835 -0.965922
    outer loop
      vertex 0.9 0 -1.33333
      vertex 0.65 -0.0958328 -1.35901
      vertex 0.65 0 -1.33333
    endloop
  endfacet
  facet normal 0 -0.965922 0.258832
    outer loop
      vertex -0.9 0.165988 -1.62083
      vertex -0.65 0.191667 -1.525
      vertex -0.9 0.191667 -1.525
    endloop
  endfacet
  facet normal 0 -0.965922 0.258832
    outer loop
      vertex -0.65 0.191667 -1.525
      vertex -0.9 0.165988 -1.62083
      vertex -0.65 0.165988 -1.62083
    endloop
  endfacet
  facet normal 0 -0.965922 0.258832
    outer loop
      vertex 0.65 0.165988 -1.62083
      vertex 0.9 0.191667 -1.525
      vertex 0.65 0.191667 -1.525
    endloop
  endfacet
  facet normal 0 -0.965922 0.258832
    outer loop
      vertex 0.9 0.191667 -1.525
      vertex 0.65 0.165988 -1.62083
      vertex 0.9 0.165988 -1.62083
    endloop
  endfacet
  facet normal -0 0.258835 0.965922
    outer loop
      vertex -0.9 0 -1.71667
      vertex -0.65 -0.0958328 -1.69099
      vertex -0.65 0 -1.71667
    endloop
  endfacet
  facet normal 0 0.258835 0.965922
    outer loop
      vertex -0.65 -0.0958328 -1.69099
      vertex -0.9 0 -1.71667
      vertex -0.9 -0.0958328 -1.69099
    endloop
  endfacet
  facet normal -0 0.258835 0.965922
    outer loop
      vertex 0.65 0 -1.71667
      vertex 0.9 -0.0958328 -1.69099
      vertex 0.9 0 -1.71667
    endloop
  endfacet
  facet normal 0 0.258835 0.965922
    outer loop
      vertex 0.9 -0.0958328 -1.69099
      vertex 0.65 0 -1.71667
      vertex 0.65 -0.0958328 -1.69099
    endloop
  endfacet
  facet normal 0 0.965922 0.258832
    outer loop
      vertex -0.65 -0.165988 -1.62083
      vertex -0.9 -0.191667 -1.525
      vertex -0.65 -0.191667 -1.525
    endloop
  endfacet
  facet normal 0 0.965922 0.258832
    outer loop
      vertex -0.9 -0.191667 -1.525
      vertex -0.65 -0.165988 -1.62083
      vertex -0.9 -0.165988 -1.62083
    endloop
  endfacet
  facet normal 0 0.965922 0.258832
    outer loop
      vertex 0.9 -0.165988 -1.62083
      vertex 0.65 -0.191667 -1.525
      vertex 0.9 -0.191667 -1.525
    endloop
  endfacet
  facet normal 0 0.965922 0.258832
    outer loop
      vertex 0.65 -0.191667 -1.525
      vertex 0.9 -0.165988 -1.62083
      vertex 0.65 -0.165988 -1.62083
    endloop
  endfacet
  facet normal 0 -0.707131 -0.707083
    outer loop
      vertex -0.9 0.165988 -1.42917
      vertex -0.65 0.0958328 -1.35901
      vertex -0.9 0.0958328 -1.35901
    endloop
  endfacet
  facet normal 0 -0.707131 -0.707083
    outer loop
      vertex -0.65 0.0958328 -1.35901
      vertex -0.9 0.165988 -1.42917
      vertex -0.65 0.165988 -1.42917
    endloop
  endfacet
  facet normal 0 -0.707131 -0.707083
    outer loop
      vertex 0.65 0.165988 -1.42917
      vertex 0.9 0.0958328 -1.35901
      vertex 0.65 0.0958328 -1.35901
    endloop
  endfacet
  facet normal 0 -0.707131 -0.707083
    outer loop
      vertex 0.9 0.0958328 -1.35901
      vertex 0.65 0.165988 -1.42917
      vertex 0.9 0.165988 -1.42917
    endloop
  endfacet
  facet normal 0 -0.258835 0.965922
    outer loop
      vertex -0.9 0.0958328 -1.69099
      vertex -0.65 0 -1.71667
      vertex -0.65 0.0958328 -1.69099
    endloop
  endfacet
  facet normal 0 -0.258835 0.965922
    outer loop
      vertex -0.65 0 -1.71667
      vertex -0.9 0.0958328 -1.69099
      vertex -0.9 0 -1.71667
    endloop
  endfacet
  facet normal 0 -0.258835 0.965922
    outer loop
      vertex 0.65 0.0958328 -1.69099
      vertex 0.9 0 -1.71667
      vertex 0.9 0.0958328 -1.69099
    endloop
  endfacet
  facet normal 0 -0.258835 0.965922
    outer loop
      vertex 0.9 0 -1.71667
      vertex 0.65 0.0958328 -1.69099
      vertex 0.65 0 -1.71667
    endloop
  endfacet
  facet normal 0 -0.965922 -0.258832
    outer loop
      vertex -0.9 0.191667 -1.525
      vertex -0.65 0.165988 -1.42917
      vertex -0.9 0.165988 -1.42917
    endloop
  endfacet
  facet normal 0 -0.965922 -0.258832
    outer loop
      vertex -0.65 0.165988 -1.42917
      vertex -0.9 0.191667 -1.525
      vertex -0.65 0.191667 -1.525
    endloop
  endfacet
  facet normal 0 -0.965922 -0.258832
    outer loop
      vertex 0.65 0.191667 -1.525
      vertex 0.9 0.165988 -1.42917
      vertex 0.65 0.165988 -1.42917
    endloop
  endfacet
  facet normal 0 -0.965922 -0.258832
    outer loop
      vertex 0.9 0.165988 -1.42917
      vertex 0.65 0.191667 -1.525
      vertex 0.9 0.191667 -1.525
    endloop
  endfacet
  facet normal 0 -0.707131 0.707083
    outer loop
      vertex -0.9 0.0958328 -1.69099
      vertex -0.65 0.165988 -1.62083
      vertex -0.9 0.165988 -1.62083
    endloop
  endfacet
  facet normal 0 -0.707131 0.707083
    outer loop
      vertex -0.65 0.165988 -1.62083
      vertex -0.9 0.0958328 -1.69099
      vertex -0.65 0.0958328 -1.69099
    endloop
  endfacet
  facet normal 0 -0.707131 0.707083
    outer loop
      vertex 0.65 0.0958328 -1.69099
      vertex 0.9 0.165988 -1.62083
      vertex 0.65 0.165988 -1.62083
    endloop
  endfacet
  facet normal 0 -0.707131 0.707083
    outer loop
      vertex 0.9 0.165988 -1.62083
      vertex 0.65 0.0958328 -1.69099
      vertex 0.9 0.0958328 -1.69099
    endloop
  endfacet
  facet normal 0 -0.258835 -0.965922
    outer loop
      vertex -0.9 0 -1.33333
      vertex -0.65 0.0958328 -1.35901
      vertex -0.65 0 -1.33333
    endloop
  endfacet
  facet normal -0 -0.258835 -0.965922
    outer loop
      vertex -0.65 0.0958328 -1.35901
      vertex -0.9 0 -1.33333
      vertex -0.9 0.0958328 -1.35901
    endloop
  endfacet
  facet normal 0 -0.258835 -0.965922
    outer loop
      vertex 0.65 0 -1.33333
      vertex 0.9 0.0958328 -1.35901
      vertex 0.9 0 -1.33333
    endloop
  endfacet
  facet normal -0 -0.258835 -0.965922
    outer loop
      vertex 0.9 0.0958328 -1.35901
      vertex 0.65 0 -1.33333
      vertex 0.65 0.0958328 -1.35901
    endloop
  endfacet
  facet normal 0 0.707131 0.707083
    outer loop
      vertex -0.65 -0.0958328 -1.69099
      vertex -0.9 -0.165988 -1.62083
      vertex -0.65 -0.165988 -1.62083
    endloop
  endfacet
  facet normal 0 0.707131 0.707083
    outer loop
      vertex -0.9 -0.165988 -1.62083
      vertex -0.65 -0.0958328 -1.69099
      vertex -0.9 -0.0958328 -1.69099
    endloop
  endfacet
  facet normal 0 0.707131 0.707083
    outer loop
      vertex 0.9 -0.0958328 -1.69099
      vertex 0.65 -0.165988 -1.62083
      vertex 0.9 -0.165988 -1.62083
    endloop
  endfacet
  facet normal 0 0.707131 0.707083
    outer loop
      vertex 0.65 -0.165988 -1.62083
      vertex 0.9 -0.0958328 -1.69099
      vertex 0.65 -0.0958328 -1.69099
    endloop
  endfacet
  facet normal 0 0.707131 -0.707083
    outer loop
      vertex -0.65 -0.165988 -1.42917
      vertex -0.9 -0.0958328 -1.35901
      vertex -0.65 -0.0958328 -1.35901
    endloop
  endfacet
  facet normal 0 0.707131 -0.707083
    outer loop
      vertex -0.9 -0.0958328 -1.35901
      vertex -0.65 -0.165988 -1.42917
      vertex -0.9 -0.165988 -1.42917
    endloop
  endfacet
  facet normal 0 0.707131 -0.707083
    outer loop
      vertex 0.9 -0.165988 -1.42917
      vertex 0.65 -0.0958328 -1.35901
      vertex 0.9 -0.0958328 -1.35901
    endloop
  endfacet
  facet normal 0 0.707131 -0.707083
    outer loop
      vertex 0.65 -0.0958328 -1.35901
      vertex 0.9 -0.165988 -1.42917
      vertex 0.65 -0.165988 -1.42917
    endloop
  endfacet
  facet normal 0 0.965922 -0.258832
    outer loop
      vertex -0.65 -0.191667 -1.525
      vertex -0.9 -0.165988 -1.42917
      vertex -0.65 -0.165988 -1.42917
    endloop
  endfacet
  facet normal 0 0.965922 -0.258832
    outer loop
      vertex -0.9 -0.165988 -1.42917
      vertex -0.65 -0.191667 -1.525
      vertex -0.9 -0.191667 -1.525
    endloop
  endfacet
  facet normal 0 0.965922 -0.258832
    outer loop
      vertex 0.9 -0.191667 -1.525
      vertex 0.65 -0.165988 -1.42917
      vertex 0.9 -0.165988 -1.42917
    endloop
  endfacet
  facet normal 0 0.965922 -0.258832
    outer loop
      vertex 0.65 -0.165988 -1.42917
      vertex 0.9 -0.191667 -1.525
      vertex 0.65 -0.191667 -1.525
    endloop
  endfacet
endsolid OpenSCAD_Model
