solid OpenSCAD_Model
  facet normal 0.226046 0.84361 0.487057
    outer loop
      vertex 0 0.965925 0.483819
      vertex 0 0.707107 0.932106
      vertex 0.353553 0.612372 0.932106
    endloop
  endfacet
  facet normal -0.495579 -0.132791 0.858352
    outer loop
      vertex -0.258819 0 1.19093
      vertex -0.707107 0 0.932106
      vertex -0.612372 -0.353553 0.932106
    endloop
  endfacet
  facet normal -0.495579 0.132791 0.858352
    outer loop
      vertex -0.612372 0.353553 0.932106
      vertex -0.707107 0 0.932106
      vertex -0.258819 0 1.19093
    endloop
  endfacet
  facet normal 0.226046 -0.84361 0.487057
    outer loop
      vertex 0 -0.707107 0.932106
      vertex 0 -0.965925 0.483819
      vertex 0.353553 -0.612372 0.932106
    endloop
  endfacet
  facet normal 0.84361 0.226046 0.487057
    outer loop
      vertex 0.965925 0 0.483819
      vertex 0.612372 0.353553 0.932106
      vertex 0.707107 0 0.932106
    endloop
  endfacet
  facet normal -0.84361 0.226045 0.487058
    outer loop
      vertex -0.836515 0.482963 0.483819
      vertex -0.965925 0 0.483819
      vertex -0.612372 0.353553 0.932106
    endloop
  endfacet
  facet normal 0.84361 0.226045 0.487058
    outer loop
      vertex 0.836515 0.482963 0.483819
      vertex 0.612372 0.353553 0.932106
      vertex 0.965925 0 0.483819
    endloop
  endfacet
  facet normal 0.965926 0.25882 0
    outer loop
      vertex 0.965925 0 0.483819
      vertex 0.836515 0.482963 0.224999
      vertex 0.836515 0.482963 0.483819
    endloop
  endfacet
  facet normal 0.965926 0.25882 0
    outer loop
      vertex 0.836515 0.482963 0.224999
      vertex 0.965925 0 0.483819
      vertex 0.965925 0 0.224999
    endloop
  endfacet
  facet normal 0.707107 0.707107 0
    outer loop
      vertex 0.836515 0.482963 0.483819
      vertex 0.482963 0.836515 0.224999
      vertex 0.482963 0.836515 0.483819
    endloop
  endfacet
  facet normal 0.707107 0.707107 0
    outer loop
      vertex 0.482963 0.836515 0.224999
      vertex 0.836515 0.482963 0.483819
      vertex 0.836515 0.482963 0.224999
    endloop
  endfacet
  facet normal 0.25882 -0.965926 0
    outer loop
      vertex 0 -0.965925 0.224999
      vertex 0.482963 -0.836515 0.483819
      vertex 0 -0.965925 0.483819
    endloop
  endfacet
  facet normal 0.25882 -0.965926 0
    outer loop
      vertex 0.482963 -0.836515 0.483819
      vertex 0 -0.965925 0.224999
      vertex 0.482963 -0.836515 0.224999
    endloop
  endfacet
  facet normal -0.25882 0.965926 0
    outer loop
      vertex 0 0.965925 0.224999
      vertex -0.482963 0.836515 0.483819
      vertex 0 0.965925 0.483819
    endloop
  endfacet
  facet normal -0.25882 0.965926 0
    outer loop
      vertex -0.482963 0.836515 0.483819
      vertex 0 0.965925 0.224999
      vertex -0.482963 0.836515 0.224999
    endloop
  endfacet
  facet normal 0.495577 0.132793 0.858353
    outer loop
      vertex 0.612372 0.353553 0.932106
      vertex 0.224143 0.129409 1.19093
      vertex 0.258819 0 1.19093
    endloop
  endfacet
  facet normal -0.84361 -0.226045 0.487058
    outer loop
      vertex -0.612372 -0.353553 0.932106
      vertex -0.965925 0 0.483819
      vertex -0.836515 -0.482963 0.483819
    endloop
  endfacet
  facet normal 0.495579 0.132791 0.858352
    outer loop
      vertex 0.612372 0.353553 0.932106
      vertex 0.258819 0 1.19093
      vertex 0.707107 0 0.932106
    endloop
  endfacet
  facet normal -0.362789 -0.362789 0.858352
    outer loop
      vertex -0.224143 -0.129409 1.19093
      vertex -0.353553 -0.612372 0.932106
      vertex -0.129409 -0.224143 1.19093
    endloop
  endfacet
  facet normal -0.362789 -0.362789 0.858352
    outer loop
      vertex -0.353553 -0.612372 0.932106
      vertex -0.224143 -0.129409 1.19093
      vertex -0.612372 -0.353553 0.932106
    endloop
  endfacet
  facet normal 0.362789 -0.362789 0.858352
    outer loop
      vertex 0.224143 -0.129409 1.19093
      vertex 0.353553 -0.612372 0.932106
      vertex 0.612372 -0.353553 0.932106
    endloop
  endfacet
  facet normal 0.362789 -0.362789 0.858352
    outer loop
      vertex 0.353553 -0.612372 0.932106
      vertex 0.224143 -0.129409 1.19093
      vertex 0.129409 -0.224143 1.19093
    endloop
  endfacet
  facet normal -0.132793 -0.495577 0.858353
    outer loop
      vertex -0.129409 -0.224143 1.19093
      vertex -0.353553 -0.612372 0.932106
      vertex 0 -0.258819 1.19093
    endloop
  endfacet
  facet normal 0.965926 -0.25882 0
    outer loop
      vertex 0.836515 -0.482963 0.483819
      vertex 0.965925 0 0.224999
      vertex 0.965925 0 0.483819
    endloop
  endfacet
  facet normal 0.965926 -0.25882 0
    outer loop
      vertex 0.965925 0 0.224999
      vertex 0.836515 -0.482963 0.483819
      vertex 0.836515 -0.482963 0.224999
    endloop
  endfacet
  facet normal 0.132791 -0.495579 0.858352
    outer loop
      vertex 0 -0.258819 1.19093
      vertex 0 -0.707107 0.932106
      vertex 0.353553 -0.612372 0.932106
    endloop
  endfacet
  facet normal 0.226045 0.84361 0.487058
    outer loop
      vertex 0.482963 0.836515 0.483819
      vertex 0 0.965925 0.483819
      vertex 0.353553 0.612372 0.932106
    endloop
  endfacet
  facet normal 0.362789 0.362789 0.858352
    outer loop
      vertex 0.353553 0.612372 0.932106
      vertex 0.224143 0.129409 1.19093
      vertex 0.612372 0.353553 0.932106
    endloop
  endfacet
  facet normal 0.362789 0.362789 0.858352
    outer loop
      vertex 0.224143 0.129409 1.19093
      vertex 0.353553 0.612372 0.932106
      vertex 0.129409 0.224143 1.19093
    endloop
  endfacet
  facet normal -0.617565 -0.617565 0.487059
    outer loop
      vertex -0.482963 -0.836515 0.483819
      vertex -0.612372 -0.353553 0.932106
      vertex -0.836515 -0.482963 0.483819
    endloop
  endfacet
  facet normal -0.617565 -0.617565 0.487059
    outer loop
      vertex -0.612372 -0.353553 0.932106
      vertex -0.482963 -0.836515 0.483819
      vertex -0.353553 -0.612372 0.932106
    endloop
  endfacet
  facet normal 0.707107 -0.707107 0
    outer loop
      vertex 0.482963 -0.836515 0.483819
      vertex 0.836515 -0.482963 0.224999
      vertex 0.836515 -0.482963 0.483819
    endloop
  endfacet
  facet normal 0.707107 -0.707107 0
    outer loop
      vertex 0.836515 -0.482963 0.224999
      vertex 0.482963 -0.836515 0.483819
      vertex 0.482963 -0.836515 0.224999
    endloop
  endfacet
  facet normal 0.25882 0.965926 -0
    outer loop
      vertex 0.482963 0.836515 0.224999
      vertex 0 0.965925 0.483819
      vertex 0.482963 0.836515 0.483819
    endloop
  endfacet
  facet normal 0.25882 0.965926 0
    outer loop
      vertex 0 0.965925 0.483819
      vertex 0.482963 0.836515 0.224999
      vertex 0 0.965925 0.224999
    endloop
  endfacet
  facet normal 0.617565 0.617565 0.487059
    outer loop
      vertex 0.353553 0.612372 0.932106
      vertex 0.836515 0.482963 0.483819
      vertex 0.482963 0.836515 0.483819
    endloop
  endfacet
  facet normal 0.617565 0.617565 0.487059
    outer loop
      vertex 0.836515 0.482963 0.483819
      vertex 0.353553 0.612372 0.932106
      vertex 0.612372 0.353553 0.932106
    endloop
  endfacet
  facet normal -0.226045 -0.84361 0.487058
    outer loop
      vertex -0.353553 -0.612372 0.932106
      vertex -0.482963 -0.836515 0.483819
      vertex 0 -0.965925 0.483819
    endloop
  endfacet
  facet normal 0.132791 0.495579 0.858352
    outer loop
      vertex 0 0.707107 0.932106
      vertex 0 0.258819 1.19093
      vertex 0.353553 0.612372 0.932106
    endloop
  endfacet
  facet normal -0.965926 -0.25882 0
    outer loop
      vertex -0.836515 -0.482963 0.224999
      vertex -0.965925 0 0.483819
      vertex -0.965925 0 0.224999
    endloop
  endfacet
  facet normal -0.965926 -0.25882 0
    outer loop
      vertex -0.965925 0 0.483819
      vertex -0.836515 -0.482963 0.224999
      vertex -0.836515 -0.482963 0.483819
    endloop
  endfacet
  facet normal -0.495577 -0.132793 0.858353
    outer loop
      vertex -0.258819 0 1.19093
      vertex -0.612372 -0.353553 0.932106
      vertex -0.224143 -0.129409 1.19093
    endloop
  endfacet
  facet normal 0.226045 -0.84361 0.487058
    outer loop
      vertex 0.353553 -0.612372 0.932106
      vertex 0 -0.965925 0.483819
      vertex 0.482963 -0.836515 0.483819
    endloop
  endfacet
  facet normal 0.617565 -0.617565 0.487059
    outer loop
      vertex 0.353553 -0.612372 0.932106
      vertex 0.836515 -0.482963 0.483819
      vertex 0.612372 -0.353553 0.932106
    endloop
  endfacet
  facet normal 0.617565 -0.617565 0.487059
    outer loop
      vertex 0.836515 -0.482963 0.483819
      vertex 0.353553 -0.612372 0.932106
      vertex 0.482963 -0.836515 0.483819
    endloop
  endfacet
  facet normal -0.226046 -0.84361 0.487057
    outer loop
      vertex 0 -0.707107 0.932106
      vertex -0.353553 -0.612372 0.932106
      vertex 0 -0.965925 0.483819
    endloop
  endfacet
  facet normal -0.132791 -0.495579 0.858352
    outer loop
      vertex 0 -0.258819 1.19093
      vertex -0.353553 -0.612372 0.932106
      vertex 0 -0.707107 0.932106
    endloop
  endfacet
  facet normal -0.25882 -0.965926 0
    outer loop
      vertex -0.482963 -0.836515 0.224999
      vertex 0 -0.965925 0.483819
      vertex -0.482963 -0.836515 0.483819
    endloop
  endfacet
  facet normal -0.25882 -0.965926 -0
    outer loop
      vertex 0 -0.965925 0.483819
      vertex -0.482963 -0.836515 0.224999
      vertex 0 -0.965925 0.224999
    endloop
  endfacet
  facet normal -0.226046 0.84361 0.487057
    outer loop
      vertex 0 0.965925 0.483819
      vertex -0.353553 0.612372 0.932106
      vertex 0 0.707107 0.932106
    endloop
  endfacet
  facet normal 0.132793 0.495577 0.858353
    outer loop
      vertex 0.353553 0.612372 0.932106
      vertex 0 0.258819 1.19093
      vertex 0.129409 0.224143 1.19093
    endloop
  endfacet
  facet normal -0.226045 0.84361 0.487058
    outer loop
      vertex 0 0.965925 0.483819
      vertex -0.482963 0.836515 0.483819
      vertex -0.353553 0.612372 0.932106
    endloop
  endfacet
  facet normal -0.965926 0.25882 0
    outer loop
      vertex -0.965925 0 0.224999
      vertex -0.836515 0.482963 0.483819
      vertex -0.836515 0.482963 0.224999
    endloop
  endfacet
  facet normal -0.965926 0.25882 0
    outer loop
      vertex -0.836515 0.482963 0.483819
      vertex -0.965925 0 0.224999
      vertex -0.965925 0 0.483819
    endloop
  endfacet
  facet normal -0.707107 -0.707107 0
    outer loop
      vertex -0.482963 -0.836515 0.224999
      vertex -0.836515 -0.482963 0.483819
      vertex -0.836515 -0.482963 0.224999
    endloop
  endfacet
  facet normal -0.707107 -0.707107 0
    outer loop
      vertex -0.836515 -0.482963 0.483819
      vertex -0.482963 -0.836515 0.224999
      vertex -0.482963 -0.836515 0.483819
    endloop
  endfacet
  facet normal -0.132791 0.495579 0.858352
    outer loop
      vertex 0 0.707107 0.932106
      vertex -0.353553 0.612372 0.932106
      vertex 0 0.258819 1.19093
    endloop
  endfacet
  facet normal -0.132793 0.495577 0.858353
    outer loop
      vertex 0 0.258819 1.19093
      vertex -0.353553 0.612372 0.932106
      vertex -0.129409 0.224143 1.19093
    endloop
  endfacet
  facet normal 0 0 1
    outer loop
      vertex 0.224143 0.129409 1.19093
      vertex 0.224143 -0.129409 1.19093
      vertex 0.258819 0 1.19093
    endloop
  endfacet
  facet normal 0 0 1
    outer loop
      vertex 0.129409 0.224143 1.19093
      vertex 0.224143 -0.129409 1.19093
      vertex 0.224143 0.129409 1.19093
    endloop
  endfacet
  facet normal 0 0 1
    outer loop
      vertex 0.129409 0.224143 1.19093
      vertex 0.129409 -0.224143 1.19093
      vertex 0.224143 -0.129409 1.19093
    endloop
  endfacet
  facet normal 0 0 1
    outer loop
      vertex 0 0.258819 1.19093
      vertex 0.129409 -0.224143 1.19093
      vertex 0.129409 0.224143 1.19093
    endloop
  endfacet
  facet normal 0 0 1
    outer loop
      vertex 0 0.258819 1.19093
      vertex 0 -0.258819 1.19093
      vertex 0.129409 -0.224143 1.19093
    endloop
  endfacet
  facet normal -0 0 1
    outer loop
      vertex -0.129409 0.224143 1.19093
      vertex 0 -0.258819 1.19093
      vertex 0 0.258819 1.19093
    endloop
  endfacet
  facet normal 0 0 1
    outer loop
      vertex -0.129409 0.224143 1.19093
      vertex -0.129409 -0.224143 1.19093
      vertex 0 -0.258819 1.19093
    endloop
  endfacet
  facet normal -0 0 1
    outer loop
      vertex -0.224143 0.129409 1.19093
      vertex -0.129409 -0.224143 1.19093
      vertex -0.129409 0.224143 1.19093
    endloop
  endfacet
  facet normal 0 0 1
    outer loop
      vertex -0.224143 0.129409 1.19093
      vertex -0.224143 -0.129409 1.19093
      vertex -0.129409 -0.224143 1.19093
    endloop
  endfacet
  facet normal 0 -0 1
    outer loop
      vertex -0.224143 -0.129409 1.19093
      vertex -0.224143 0.129409 1.19093
      vertex -0.258819 0 1.19093
    endloop
  endfacet
  facet normal 0.132793 -0.495577 0.858353
    outer loop
      vertex 0.129409 -0.224143 1.19093
      vertex 0 -0.258819 1.19093
      vertex 0.353553 -0.612372 0.932106
    endloop
  endfacet
  facet normal 0.84361 -0.226045 0.487058
    outer loop
      vertex 0.965925 0 0.483819
      vertex 0.612372 -0.353553 0.932106
      vertex 0.836515 -0.482963 0.483819
    endloop
  endfacet
  facet normal 0.84361 -0.226046 0.487057
    outer loop
      vertex 0.707107 0 0.932106
      vertex 0.612372 -0.353553 0.932106
      vertex 0.965925 0 0.483819
    endloop
  endfacet
  facet normal 0.495579 -0.132791 0.858352
    outer loop
      vertex 0.707107 0 0.932106
      vertex 0.258819 0 1.19093
      vertex 0.612372 -0.353553 0.932106
    endloop
  endfacet
  facet normal -0.362789 0.362789 0.858352
    outer loop
      vertex -0.353553 0.612372 0.932106
      vertex -0.224143 0.129409 1.19093
      vertex -0.129409 0.224143 1.19093
    endloop
  endfacet
  facet normal -0.362789 0.362789 0.858352
    outer loop
      vertex -0.224143 0.129409 1.19093
      vertex -0.353553 0.612372 0.932106
      vertex -0.612372 0.353553 0.932106
    endloop
  endfacet
  facet normal -0.495577 0.132793 0.858353
    outer loop
      vertex -0.224143 0.129409 1.19093
      vertex -0.612372 0.353553 0.932106
      vertex -0.258819 0 1.19093
    endloop
  endfacet
  facet normal -0.84361 0.226046 0.487057
    outer loop
      vertex -0.612372 0.353553 0.932106
      vertex -0.965925 0 0.483819
      vertex -0.707107 0 0.932106
    endloop
  endfacet
  facet normal -0.84361 -0.226046 0.487057
    outer loop
      vertex -0.707107 0 0.932106
      vertex -0.965925 0 0.483819
      vertex -0.612372 -0.353553 0.932106
    endloop
  endfacet
  facet normal -0.617565 0.617565 0.487059
    outer loop
      vertex -0.482963 0.836515 0.483819
      vertex -0.612372 0.353553 0.932106
      vertex -0.353553 0.612372 0.932106
    endloop
  endfacet
  facet normal -0.617565 0.617565 0.487059
    outer loop
      vertex -0.612372 0.353553 0.932106
      vertex -0.482963 0.836515 0.483819
      vertex -0.836515 0.482963 0.483819
    endloop
  endfacet
  facet normal 0.495577 -0.132793 0.858353
    outer loop
      vertex 0.258819 0 1.19093
      vertex 0.224143 -0.129409 1.19093
      vertex 0.612372 -0.353553 0.932106
    endloop
  endfacet
  facet normal -0.707107 0.707107 0
    outer loop
      vertex -0.836515 0.482963 0.224999
      vertex -0.482963 0.836515 0.483819
      vertex -0.482963 0.836515 0.224999
    endloop
  endfacet
  facet normal -0.707107 0.707107 0
    outer loop
      vertex -0.482963 0.836515 0.483819
      vertex -0.836515 0.482963 0.224999
      vertex -0.836515 0.482963 0.483819
    endloop
  endfacet
  facet normal 0.617566 0.617566 -0.487056
    outer loop
      vertex -0.38637 -0.669212 0.432055
      vertex -0.489898 -0.282843 0.790685
      vertex -0.282843 -0.489898 0.790685
    endloop
  endfacet
  facet normal 0.617566 0.617566 -0.487056
    outer loop
      vertex -0.489898 -0.282843 0.790685
      vertex -0.38637 -0.669212 0.432055
      vertex -0.669212 -0.38637 0.432055
    endloop
  endfacet
  facet normal -0.226043 0.84361 -0.487058
    outer loop
      vertex 0 -0.565685 0.790685
      vertex 0.282843 -0.489898 0.790685
      vertex 0 -0.77274 0.432055
    endloop
  endfacet
  facet normal -0.84361 -0.226043 -0.487058
    outer loop
      vertex 0.77274 0 0.432055
      vertex 0.565685 0 0.790685
      vertex 0.489898 0.282843 0.790685
    endloop
  endfacet
  facet normal 0.843611 0.226046 -0.487057
    outer loop
      vertex -0.489898 -0.282843 0.790685
      vertex -0.669212 -0.38637 0.432055
      vertex -0.77274 0 0.432055
    endloop
  endfacet
  facet normal -0.843611 -0.226046 -0.487057
    outer loop
      vertex 0.669212 0.38637 0.432055
      vertex 0.77274 0 0.432055
      vertex 0.489898 0.282843 0.790685
    endloop
  endfacet
  facet normal -0.965926 -0.25882 0
    outer loop
      vertex 0.77274 0 0.225374
      vertex 0.669212 0.38637 0.432055
      vertex 0.669212 0.38637 0.225374
    endloop
  endfacet
  facet normal -0.965926 -0.25882 0
    outer loop
      vertex 0.669212 0.38637 0.432055
      vertex 0.77274 0 0.225374
      vertex 0.77274 0 0.432055
    endloop
  endfacet
  facet normal -0.617566 -0.617566 -0.487056
    outer loop
      vertex 0.669212 0.38637 0.432055
      vertex 0.282843 0.489898 0.790685
      vertex 0.38637 0.669212 0.432055
    endloop
  endfacet
  facet normal -0.617566 -0.617566 -0.487056
    outer loop
      vertex 0.282843 0.489898 0.790685
      vertex 0.669212 0.38637 0.432055
      vertex 0.489898 0.282843 0.790685
    endloop
  endfacet
  facet normal -0.495571 -0.132788 -0.858357
    outer loop
      vertex 0.489898 0.282843 0.790685
      vertex 0.207055 0 0.99774
      vertex 0.179315 0.103527 0.99774
    endloop
  endfacet
  facet normal 0.843611 -0.226046 -0.487057
    outer loop
      vertex -0.669212 0.38637 0.432055
      vertex -0.489898 0.282843 0.790685
      vertex -0.77274 0 0.432055
    endloop
  endfacet
  facet normal -0.495572 -0.132787 -0.858357
    outer loop
      vertex 0.489898 0.282843 0.790685
      vertex 0.565685 0 0.790685
      vertex 0.207055 0 0.99774
    endloop
  endfacet
  facet normal 0.362783 -0.362783 -0.858357
    outer loop
      vertex -0.179315 0.103527 0.99774
      vertex -0.282843 0.489898 0.790685
      vertex -0.103527 0.179315 0.99774
    endloop
  endfacet
  facet normal 0.362783 -0.362783 -0.858357
    outer loop
      vertex -0.282843 0.489898 0.790685
      vertex -0.179315 0.103527 0.99774
      vertex -0.489898 0.282843 0.790685
    endloop
  endfacet
  facet normal 0.226046 0.843611 -0.487057
    outer loop
      vertex -0.282843 -0.489898 0.790685
      vertex 0 -0.77274 0.432055
      vertex -0.38637 -0.669212 0.432055
    endloop
  endfacet
  facet normal 0.362783 0.362783 -0.858357
    outer loop
      vertex -0.282843 -0.489898 0.790685
      vertex -0.179315 -0.103527 0.99774
      vertex -0.103527 -0.179315 0.99774
    endloop
  endfacet
  facet normal 0.362783 0.362783 -0.858357
    outer loop
      vertex -0.179315 -0.103527 0.99774
      vertex -0.282843 -0.489898 0.790685
      vertex -0.489898 -0.282843 0.790685
    endloop
  endfacet
  facet normal 0.132788 0.495571 -0.858357
    outer loop
      vertex -0.103527 -0.179315 0.99774
      vertex 0 -0.207055 0.99774
      vertex -0.282843 -0.489898 0.790685
    endloop
  endfacet
  facet normal 0.25882 0.965926 -0
    outer loop
      vertex 0 -0.77274 0.225374
      vertex -0.38637 -0.669212 0.432055
      vertex 0 -0.77274 0.432055
    endloop
  endfacet
  facet normal 0.25882 0.965926 0
    outer loop
      vertex -0.38637 -0.669212 0.432055
      vertex 0 -0.77274 0.225374
      vertex -0.38637 -0.669212 0.225374
    endloop
  endfacet
  facet normal -0.965926 0.25882 0
    outer loop
      vertex 0.669212 -0.38637 0.225374
      vertex 0.77274 0 0.432055
      vertex 0.77274 0 0.225374
    endloop
  endfacet
  facet normal -0.965926 0.25882 0
    outer loop
      vertex 0.77274 0 0.432055
      vertex 0.669212 -0.38637 0.225374
      vertex 0.669212 -0.38637 0.432055
    endloop
  endfacet
  facet normal 0.25882 -0.965926 0
    outer loop
      vertex -0.38637 0.669212 0.225374
      vertex 0 0.77274 0.432055
      vertex -0.38637 0.669212 0.432055
    endloop
  endfacet
  facet normal 0.25882 -0.965926 0
    outer loop
      vertex 0 0.77274 0.432055
      vertex -0.38637 0.669212 0.225374
      vertex 0 0.77274 0.225374
    endloop
  endfacet
  facet normal -0.132787 0.495572 -0.858357
    outer loop
      vertex 0 -0.207055 0.99774
      vertex 0.282843 -0.489898 0.790685
      vertex 0 -0.565685 0.790685
    endloop
  endfacet
  facet normal -0.226043 -0.84361 -0.487058
    outer loop
      vertex 0 0.77274 0.432055
      vertex 0.282843 0.489898 0.790685
      vertex 0 0.565685 0.790685
    endloop
  endfacet
  facet normal 0.226043 -0.84361 -0.487058
    outer loop
      vertex 0 0.77274 0.432055
      vertex 0 0.565685 0.790685
      vertex -0.282843 0.489898 0.790685
    endloop
  endfacet
  facet normal 0.84361 0.226043 -0.487058
    outer loop
      vertex -0.565685 0 0.790685
      vertex -0.489898 -0.282843 0.790685
      vertex -0.77274 0 0.432055
    endloop
  endfacet
  facet normal -0.226046 -0.843611 -0.487057
    outer loop
      vertex 0.38637 0.669212 0.432055
      vertex 0.282843 0.489898 0.790685
      vertex 0 0.77274 0.432055
    endloop
  endfacet
  facet normal -0.707107 0.707107 0
    outer loop
      vertex 0.38637 -0.669212 0.225374
      vertex 0.669212 -0.38637 0.432055
      vertex 0.669212 -0.38637 0.225374
    endloop
  endfacet
  facet normal -0.707107 0.707107 0
    outer loop
      vertex 0.669212 -0.38637 0.432055
      vertex 0.38637 -0.669212 0.225374
      vertex 0.38637 -0.669212 0.432055
    endloop
  endfacet
  facet normal 0.132787 -0.495572 -0.858357
    outer loop
      vertex 0 0.565685 0.790685
      vertex 0 0.207055 0.99774
      vertex -0.282843 0.489898 0.790685
    endloop
  endfacet
  facet normal 0.226043 0.84361 -0.487058
    outer loop
      vertex 0 -0.565685 0.790685
      vertex 0 -0.77274 0.432055
      vertex -0.282843 -0.489898 0.790685
    endloop
  endfacet
  facet normal 0.132787 0.495572 -0.858357
    outer loop
      vertex 0 -0.207055 0.99774
      vertex 0 -0.565685 0.790685
      vertex -0.282843 -0.489898 0.790685
    endloop
  endfacet
  facet normal -0.25882 0.965926 0
    outer loop
      vertex 0.38637 -0.669212 0.225374
      vertex 0 -0.77274 0.432055
      vertex 0.38637 -0.669212 0.432055
    endloop
  endfacet
  facet normal -0.25882 0.965926 0
    outer loop
      vertex 0 -0.77274 0.432055
      vertex 0.38637 -0.669212 0.225374
      vertex 0 -0.77274 0.225374
    endloop
  endfacet
  facet normal -0.132788 -0.495571 -0.858357
    outer loop
      vertex 0.282843 0.489898 0.790685
      vertex 0.103527 0.179315 0.99774
      vertex 0 0.207055 0.99774
    endloop
  endfacet
  facet normal -0.362783 -0.362783 -0.858357
    outer loop
      vertex 0.179315 0.103527 0.99774
      vertex 0.282843 0.489898 0.790685
      vertex 0.489898 0.282843 0.790685
    endloop
  endfacet
  facet normal -0.362783 -0.362783 -0.858357
    outer loop
      vertex 0.282843 0.489898 0.790685
      vertex 0.179315 0.103527 0.99774
      vertex 0.103527 0.179315 0.99774
    endloop
  endfacet
  facet normal 0.132788 -0.495571 -0.858357
    outer loop
      vertex 0 0.207055 0.99774
      vertex -0.103527 0.179315 0.99774
      vertex -0.282843 0.489898 0.790685
    endloop
  endfacet
  facet normal -0.25882 -0.965926 0
    outer loop
      vertex 0 0.77274 0.225374
      vertex 0.38637 0.669212 0.432055
      vertex 0 0.77274 0.432055
    endloop
  endfacet
  facet normal -0.25882 -0.965926 -0
    outer loop
      vertex 0.38637 0.669212 0.432055
      vertex 0 0.77274 0.225374
      vertex 0.38637 0.669212 0.225374
    endloop
  endfacet
  facet normal -0.707107 -0.707107 0
    outer loop
      vertex 0.669212 0.38637 0.225374
      vertex 0.38637 0.669212 0.432055
      vertex 0.38637 0.669212 0.225374
    endloop
  endfacet
  facet normal -0.707107 -0.707107 0
    outer loop
      vertex 0.38637 0.669212 0.432055
      vertex 0.669212 0.38637 0.225374
      vertex 0.669212 0.38637 0.432055
    endloop
  endfacet
  facet normal -0.226046 0.843611 -0.487057
    outer loop
      vertex 0.282843 -0.489898 0.790685
      vertex 0.38637 -0.669212 0.432055
      vertex 0 -0.77274 0.432055
    endloop
  endfacet
  facet normal -0.617566 0.617566 -0.487056
    outer loop
      vertex 0.669212 -0.38637 0.432055
      vertex 0.282843 -0.489898 0.790685
      vertex 0.489898 -0.282843 0.790685
    endloop
  endfacet
  facet normal -0.617566 0.617566 -0.487056
    outer loop
      vertex 0.282843 -0.489898 0.790685
      vertex 0.669212 -0.38637 0.432055
      vertex 0.38637 -0.669212 0.432055
    endloop
  endfacet
  facet normal 0.226046 -0.843611 -0.487057
    outer loop
      vertex 0 0.77274 0.432055
      vertex -0.282843 0.489898 0.790685
      vertex -0.38637 0.669212 0.432055
    endloop
  endfacet
  facet normal 0.965926 0.25882 0
    outer loop
      vertex -0.669212 -0.38637 0.432055
      vertex -0.77274 0 0.225374
      vertex -0.77274 0 0.432055
    endloop
  endfacet
  facet normal 0.965926 0.25882 0
    outer loop
      vertex -0.77274 0 0.225374
      vertex -0.669212 -0.38637 0.432055
      vertex -0.669212 -0.38637 0.225374
    endloop
  endfacet
  facet normal 0 0 -1
    outer loop
      vertex 0.179315 -0.103527 0.99774
      vertex 0.179315 0.103527 0.99774
      vertex 0.207055 0 0.99774
    endloop
  endfacet
  facet normal 0 0 -1
    outer loop
      vertex 0.103527 -0.179315 0.99774
      vertex 0.179315 0.103527 0.99774
      vertex 0.179315 -0.103527 0.99774
    endloop
  endfacet
  facet normal 0 0 -1
    outer loop
      vertex 0.103527 -0.179315 0.99774
      vertex 0.103527 0.179315 0.99774
      vertex 0.179315 0.103527 0.99774
    endloop
  endfacet
  facet normal 0 0 -1
    outer loop
      vertex 0 -0.207055 0.99774
      vertex 0.103527 0.179315 0.99774
      vertex 0.103527 -0.179315 0.99774
    endloop
  endfacet
  facet normal 0 0 -1
    outer loop
      vertex 0 -0.207055 0.99774
      vertex 0 0.207055 0.99774
      vertex 0.103527 0.179315 0.99774
    endloop
  endfacet
  facet normal 0 0 -1
    outer loop
      vertex -0.103527 -0.179315 0.99774
      vertex 0 0.207055 0.99774
      vertex 0 -0.207055 0.99774
    endloop
  endfacet
  facet normal 0 0 -1
    outer loop
      vertex -0.103527 -0.179315 0.99774
      vertex -0.103527 0.179315 0.99774
      vertex 0 0.207055 0.99774
    endloop
  endfacet
  facet normal 0 0 -1
    outer loop
      vertex -0.179315 -0.103527 0.99774
      vertex -0.103527 0.179315 0.99774
      vertex -0.103527 -0.179315 0.99774
    endloop
  endfacet
  facet normal 0 0 -1
    outer loop
      vertex -0.179315 -0.103527 0.99774
      vertex -0.179315 0.103527 0.99774
      vertex -0.103527 0.179315 0.99774
    endloop
  endfacet
  facet normal 0 -0 -1
    outer loop
      vertex -0.179315 0.103527 0.99774
      vertex -0.179315 -0.103527 0.99774
      vertex -0.207055 0 0.99774
    endloop
  endfacet
  facet normal 0.495572 -0.132787 -0.858357
    outer loop
      vertex -0.489898 0.282843 0.790685
      vertex -0.207055 0 0.99774
      vertex -0.565685 0 0.790685
    endloop
  endfacet
  facet normal 0.617566 -0.617566 -0.487056
    outer loop
      vertex -0.38637 0.669212 0.432055
      vertex -0.489898 0.282843 0.790685
      vertex -0.669212 0.38637 0.432055
    endloop
  endfacet
  facet normal 0.617566 -0.617566 -0.487056
    outer loop
      vertex -0.489898 0.282843 0.790685
      vertex -0.38637 0.669212 0.432055
      vertex -0.282843 0.489898 0.790685
    endloop
  endfacet
  facet normal -0.132787 -0.495572 -0.858357
    outer loop
      vertex 0 0.565685 0.790685
      vertex 0.282843 0.489898 0.790685
      vertex 0 0.207055 0.99774
    endloop
  endfacet
  facet normal 0.965926 -0.25882 0
    outer loop
      vertex -0.77274 0 0.432055
      vertex -0.669212 0.38637 0.225374
      vertex -0.669212 0.38637 0.432055
    endloop
  endfacet
  facet normal 0.965926 -0.25882 0
    outer loop
      vertex -0.669212 0.38637 0.225374
      vertex -0.77274 0 0.432055
      vertex -0.77274 0 0.225374
    endloop
  endfacet
  facet normal 0.707107 0.707107 0
    outer loop
      vertex -0.38637 -0.669212 0.432055
      vertex -0.669212 -0.38637 0.225374
      vertex -0.669212 -0.38637 0.432055
    endloop
  endfacet
  facet normal 0.707107 0.707107 0
    outer loop
      vertex -0.669212 -0.38637 0.225374
      vertex -0.38637 -0.669212 0.432055
      vertex -0.38637 -0.669212 0.225374
    endloop
  endfacet
  facet normal -0.132788 0.495571 -0.858357
    outer loop
      vertex 0.103527 -0.179315 0.99774
      vertex 0.282843 -0.489898 0.790685
      vertex 0 -0.207055 0.99774
    endloop
  endfacet
  facet normal -0.843611 0.226046 -0.487057
    outer loop
      vertex 0.77274 0 0.432055
      vertex 0.669212 -0.38637 0.432055
      vertex 0.489898 -0.282843 0.790685
    endloop
  endfacet
  facet normal -0.84361 0.226043 -0.487058
    outer loop
      vertex 0.565685 0 0.790685
      vertex 0.77274 0 0.432055
      vertex 0.489898 -0.282843 0.790685
    endloop
  endfacet
  facet normal -0.495572 0.132787 -0.858357
    outer loop
      vertex 0.565685 0 0.790685
      vertex 0.489898 -0.282843 0.790685
      vertex 0.207055 0 0.99774
    endloop
  endfacet
  facet normal 0.495571 -0.132788 -0.858357
    outer loop
      vertex -0.179315 0.103527 0.99774
      vertex -0.207055 0 0.99774
      vertex -0.489898 0.282843 0.790685
    endloop
  endfacet
  facet normal -0.362783 0.362783 -0.858357
    outer loop
      vertex 0.282843 -0.489898 0.790685
      vertex 0.179315 -0.103527 0.99774
      vertex 0.489898 -0.282843 0.790685
    endloop
  endfacet
  facet normal -0.362783 0.362783 -0.858357
    outer loop
      vertex 0.179315 -0.103527 0.99774
      vertex 0.282843 -0.489898 0.790685
      vertex 0.103527 -0.179315 0.99774
    endloop
  endfacet
  facet normal 0.707107 -0.707107 0
    outer loop
      vertex -0.669212 0.38637 0.432055
      vertex -0.38637 0.669212 0.225374
      vertex -0.38637 0.669212 0.432055
    endloop
  endfacet
  facet normal 0.707107 -0.707107 0
    outer loop
      vertex -0.38637 0.669212 0.225374
      vertex -0.669212 0.38637 0.432055
      vertex -0.669212 0.38637 0.225374
    endloop
  endfacet
  facet normal 0.84361 -0.226043 -0.487058
    outer loop
      vertex -0.489898 0.282843 0.790685
      vertex -0.565685 0 0.790685
      vertex -0.77274 0 0.432055
    endloop
  endfacet
  facet normal -0.495571 0.132788 -0.858357
    outer loop
      vertex 0.207055 0 0.99774
      vertex 0.489898 -0.282843 0.790685
      vertex 0.179315 -0.103527 0.99774
    endloop
  endfacet
  facet normal 0.495572 0.132787 -0.858357
    outer loop
      vertex -0.207055 0 0.99774
      vertex -0.489898 -0.282843 0.790685
      vertex -0.565685 0 0.790685
    endloop
  endfacet
  facet normal 0.495571 0.132788 -0.858357
    outer loop
      vertex -0.207055 0 0.99774
      vertex -0.179315 -0.103527 0.99774
      vertex -0.489898 -0.282843 0.790685
    endloop
  endfacet
  facet normal 0 0 -1
    outer loop
      vertex 0.799999 0 0
      vertex 1 0 0
      vertex 0.866025 -0.5 0
    endloop
  endfacet
  facet normal 0 0 -1
    outer loop
      vertex 1 0 0
      vertex 0.799999 0 0
      vertex 0.866025 0.5 0
    endloop
  endfacet
  facet normal 0 0 -1
    outer loop
      vertex 0.866025 -0.5 0
      vertex 0.69282 -0.4 0
      vertex 0.799999 0 0
    endloop
  endfacet
  facet normal 0 0 -1
    outer loop
      vertex 0.5 -0.866025 0
      vertex 0.69282 -0.4 0
      vertex 0.866025 -0.5 0
    endloop
  endfacet
  facet normal 0 0 -1
    outer loop
      vertex 0.5 -0.866025 0
      vertex 0.4 -0.69282 0
      vertex 0.69282 -0.4 0
    endloop
  endfacet
  facet normal 0 0 -1
    outer loop
      vertex 0 -1 0
      vertex 0.4 -0.69282 0
      vertex 0.5 -0.866025 0
    endloop
  endfacet
  facet normal 0 0 -1
    outer loop
      vertex 0 -1 0
      vertex 0 -0.799999 0
      vertex 0.4 -0.69282 0
    endloop
  endfacet
  facet normal 0 0 -1
    outer loop
      vertex 0 -1 0
      vertex -0.4 -0.69282 0
      vertex 0 -0.799999 0
    endloop
  endfacet
  facet normal 0 0 -1
    outer loop
      vertex -0.5 -0.866025 0
      vertex -0.4 -0.69282 0
      vertex 0 -1 0
    endloop
  endfacet
  facet normal 0 0 -1
    outer loop
      vertex -0.5 -0.866025 0
      vertex -0.69282 -0.4 0
      vertex -0.4 -0.69282 0
    endloop
  endfacet
  facet normal -0 0 -1
    outer loop
      vertex -0.69282 -0.4 0
      vertex -0.866025 -0.5 0
      vertex -0.799999 0 0
    endloop
  endfacet
  facet normal 0 0 -1
    outer loop
      vertex -0.866025 -0.5 0
      vertex -0.69282 -0.4 0
      vertex -0.5 -0.866025 0
    endloop
  endfacet
  facet normal 0 0 -1
    outer loop
      vertex 0.69282 0.4 0
      vertex 0.866025 0.5 0
      vertex 0.799999 0 0
    endloop
  endfacet
  facet normal 0 0 -1
    outer loop
      vertex 0.69282 0.4 0
      vertex 0.5 0.866025 0
      vertex 0.866025 0.5 0
    endloop
  endfacet
  facet normal 0 0 -1
    outer loop
      vertex 0.4 0.69282 0
      vertex 0.5 0.866025 0
      vertex 0.69282 0.4 0
    endloop
  endfacet
  facet normal 0 0 -1
    outer loop
      vertex 0 0.799999 0
      vertex 0.5 0.866025 0
      vertex 0.4 0.69282 0
    endloop
  endfacet
  facet normal 0 0 -1
    outer loop
      vertex 0 0.799999 0
      vertex 0 1 0
      vertex 0.5 0.866025 0
    endloop
  endfacet
  facet normal 0 0 -1
    outer loop
      vertex -0.4 0.69282 0
      vertex 0 1 0
      vertex 0 0.799999 0
    endloop
  endfacet
  facet normal 0 0 -1
    outer loop
      vertex -0.4 0.69282 0
      vertex -0.5 0.866025 0
      vertex 0 1 0
    endloop
  endfacet
  facet normal 0 0 -1
    outer loop
      vertex -0.69282 0.4 0
      vertex -0.5 0.866025 0
      vertex -0.4 0.69282 0
    endloop
  endfacet
  facet normal 0 0 -1
    outer loop
      vertex -0.69282 0.4 0
      vertex -0.866025 0.5 0
      vertex -0.5 0.866025 0
    endloop
  endfacet
  facet normal 0 0 -1
    outer loop
      vertex -0.799999 0 0
      vertex -0.866025 0.5 0
      vertex -0.69282 0.4 0
    endloop
  endfacet
  facet normal 0 0 -1
    outer loop
      vertex -1 0 0
      vertex -0.799999 0 0
      vertex -0.866025 -0.5 0
    endloop
  endfacet
  facet normal 0 0 -1
    outer loop
      vertex -0.799999 0 0
      vertex -1 0 0
      vertex -0.866025 0.5 0
    endloop
  endfacet
  facet normal -0.965926 -0.25882 0
    outer loop
      vertex -0.866025 -0.5 0
      vertex -1 0 0.224999
      vertex -1 0 0
    endloop
  endfacet
  facet normal -0.965926 -0.25882 0
    outer loop
      vertex -1 0 0.224999
      vertex -0.866025 -0.5 0
      vertex -0.866025 -0.5 0.224999
    endloop
  endfacet
  facet normal 0.707107 0.707107 0
    outer loop
      vertex 0.866025 0.5 0.224999
      vertex 0.5 0.866025 0
      vertex 0.5 0.866025 0.224999
    endloop
  endfacet
  facet normal 0.707107 0.707107 0
    outer loop
      vertex 0.5 0.866025 0
      vertex 0.866025 0.5 0.224999
      vertex 0.866025 0.5 0
    endloop
  endfacet
  facet normal 0.965926 0.25882 0
    outer loop
      vertex 1 0 0.224999
      vertex 0.866025 0.5 0
      vertex 0.866025 0.5 0.224999
    endloop
  endfacet
  facet normal 0.965926 0.25882 0
    outer loop
      vertex 0.866025 0.5 0
      vertex 1 0 0.224999
      vertex 1 0 0
    endloop
  endfacet
  facet normal 0.25882 0.965926 -0
    outer loop
      vertex 0.5 0.866025 0
      vertex 0 1 0.224999
      vertex 0.5 0.866025 0.224999
    endloop
  endfacet
  facet normal 0.25882 0.965926 0
    outer loop
      vertex 0 1 0.224999
      vertex 0.5 0.866025 0
      vertex 0 1 0
    endloop
  endfacet
  facet normal 0.25882 -0.965926 0
    outer loop
      vertex 0 -1 0
      vertex 0.5 -0.866025 0.224999
      vertex 0 -1 0.224999
    endloop
  endfacet
  facet normal 0.25882 -0.965926 0
    outer loop
      vertex 0.5 -0.866025 0.224999
      vertex 0 -1 0
      vertex 0.5 -0.866025 0
    endloop
  endfacet
  facet normal 0.965926 -0.25882 0
    outer loop
      vertex 0.866025 -0.5 0.224999
      vertex 1 0 0
      vertex 1 0 0.224999
    endloop
  endfacet
  facet normal 0.965926 -0.25882 0
    outer loop
      vertex 1 0 0
      vertex 0.866025 -0.5 0.224999
      vertex 0.866025 -0.5 0
    endloop
  endfacet
  facet normal -0.707107 0.707107 0
    outer loop
      vertex -0.866025 0.5 0
      vertex -0.5 0.866025 0.224999
      vertex -0.5 0.866025 0
    endloop
  endfacet
  facet normal -0.707107 0.707107 0
    outer loop
      vertex -0.5 0.866025 0.224999
      vertex -0.866025 0.5 0
      vertex -0.866025 0.5 0.224999
    endloop
  endfacet
  facet normal -0.25882 0.965926 0
    outer loop
      vertex 0 1 0
      vertex -0.5 0.866025 0.224999
      vertex 0 1 0.224999
    endloop
  endfacet
  facet normal -0.25882 0.965926 0
    outer loop
      vertex -0.5 0.866025 0.224999
      vertex 0 1 0
      vertex -0.5 0.866025 0
    endloop
  endfacet
  facet normal -0.965926 0.25882 0
    outer loop
      vertex -1 0 0
      vertex -0.866025 0.5 0.224999
      vertex -0.866025 0.5 0
    endloop
  endfacet
  facet normal -0.965926 0.25882 0
    outer loop
      vertex -0.866025 0.5 0.224999
      vertex -1 0 0
      vertex -1 0 0.224999
    endloop
  endfacet
  facet normal 0.707107 -0.707107 0
    outer loop
      vertex 0.5 -0.866025 0.224999
      vertex 0.866025 -0.5 0
      vertex 0.866025 -0.5 0.224999
    endloop
  endfacet
  facet normal 0.707107 -0.707107 0
    outer loop
      vertex 0.866025 -0.5 0
      vertex 0.5 -0.866025 0.224999
      vertex 0.5 -0.866025 0
    endloop
  endfacet
  facet normal 0 0 1
    outer loop
      vertex 0.866025 0.5 0.224999
      vertex 0.965925 0 0.224999
      vertex 1 0 0.224999
    endloop
  endfacet
  facet normal 0 0 1
    outer loop
      vertex 0.866025 0.5 0.224999
      vertex 0.836515 0.482963 0.224999
      vertex 0.965925 0 0.224999
    endloop
  endfacet
  facet normal 0 0 1
    outer loop
      vertex 0.5 0.866025 0.224999
      vertex 0.836515 0.482963 0.224999
      vertex 0.866025 0.5 0.224999
    endloop
  endfacet
  facet normal 0 0 1
    outer loop
      vertex 0.5 0.866025 0.224999
      vertex 0.482963 0.836515 0.224999
      vertex 0.836515 0.482963 0.224999
    endloop
  endfacet
  facet normal 0 0 1
    outer loop
      vertex 0 1 0.224999
      vertex 0.482963 0.836515 0.224999
      vertex 0.5 0.866025 0.224999
    endloop
  endfacet
  facet normal 0 0 1
    outer loop
      vertex 0 1 0.224999
      vertex 0 0.965925 0.224999
      vertex 0.482963 0.836515 0.224999
    endloop
  endfacet
  facet normal 0 0 1
    outer loop
      vertex 0 1 0.224999
      vertex -0.482963 0.836515 0.224999
      vertex 0 0.965925 0.224999
    endloop
  endfacet
  facet normal -0 0 1
    outer loop
      vertex -0.5 0.866025 0.224999
      vertex -0.482963 0.836515 0.224999
      vertex 0 1 0.224999
    endloop
  endfacet
  facet normal 0 0 1
    outer loop
      vertex -0.5 0.866025 0.224999
      vertex -0.836515 0.482963 0.224999
      vertex -0.482963 0.836515 0.224999
    endloop
  endfacet
  facet normal -0 0 1
    outer loop
      vertex -0.866025 0.5 0.224999
      vertex -0.836515 0.482963 0.224999
      vertex -0.5 0.866025 0.224999
    endloop
  endfacet
  facet normal 0 0 1
    outer loop
      vertex -0.866025 0.5 0.224999
      vertex -0.965925 0 0.224999
      vertex -0.836515 0.482963 0.224999
    endloop
  endfacet
  facet normal 0 -0 1
    outer loop
      vertex -0.965925 0 0.224999
      vertex -0.866025 0.5 0.224999
      vertex -1 0 0.224999
    endloop
  endfacet
  facet normal -0 0 1
    outer loop
      vertex 0.965925 0 0.224999
      vertex 0.866025 -0.5 0.224999
      vertex 1 0 0.224999
    endloop
  endfacet
  facet normal -0 0 1
    outer loop
      vertex 0.836515 -0.482963 0.224999
      vertex 0.866025 -0.5 0.224999
      vertex 0.965925 0 0.224999
    endloop
  endfacet
  facet normal 0 0 1
    outer loop
      vertex 0.836515 -0.482963 0.224999
      vertex 0.5 -0.866025 0.224999
      vertex 0.866025 -0.5 0.224999
    endloop
  endfacet
  facet normal -0 0 1
    outer loop
      vertex 0.482963 -0.836515 0.224999
      vertex 0.5 -0.866025 0.224999
      vertex 0.836515 -0.482963 0.224999
    endloop
  endfacet
  facet normal 0 0 1
    outer loop
      vertex 0 -0.965925 0.224999
      vertex 0.5 -0.866025 0.224999
      vertex 0.482963 -0.836515 0.224999
    endloop
  endfacet
  facet normal -0 0 1
    outer loop
      vertex 0 -0.965925 0.224999
      vertex 0 -1 0.224999
      vertex 0.5 -0.866025 0.224999
    endloop
  endfacet
  facet normal 0 0 1
    outer loop
      vertex -0.482963 -0.836515 0.224999
      vertex 0 -1 0.224999
      vertex 0 -0.965925 0.224999
    endloop
  endfacet
  facet normal 0 0 1
    outer loop
      vertex -0.482963 -0.836515 0.224999
      vertex -0.5 -0.866025 0.224999
      vertex 0 -1 0.224999
    endloop
  endfacet
  facet normal 0 0 1
    outer loop
      vertex -0.836515 -0.482963 0.224999
      vertex -0.5 -0.866025 0.224999
      vertex -0.482963 -0.836515 0.224999
    endloop
  endfacet
  facet normal 0 0 1
    outer loop
      vertex -0.836515 -0.482963 0.224999
      vertex -0.866025 -0.5 0.224999
      vertex -0.5 -0.866025 0.224999
    endloop
  endfacet
  facet normal 0 0 1
    outer loop
      vertex -0.965925 0 0.224999
      vertex -0.866025 -0.5 0.224999
      vertex -0.836515 -0.482963 0.224999
    endloop
  endfacet
  facet normal 0 0 1
    outer loop
      vertex -0.866025 -0.5 0.224999
      vertex -0.965925 0 0.224999
      vertex -1 0 0.224999
    endloop
  endfacet
  facet normal -0.707107 -0.707107 0
    outer loop
      vertex -0.5 -0.866025 0
      vertex -0.866025 -0.5 0.224999
      vertex -0.866025 -0.5 0
    endloop
  endfacet
  facet normal -0.707107 -0.707107 0
    outer loop
      vertex -0.866025 -0.5 0.224999
      vertex -0.5 -0.866025 0
      vertex -0.5 -0.866025 0.224999
    endloop
  endfacet
  facet normal -0.25882 -0.965926 0
    outer loop
      vertex -0.5 -0.866025 0
      vertex 0 -1 0.224999
      vertex -0.5 -0.866025 0.224999
    endloop
  endfacet
  facet normal -0.25882 -0.965926 -0
    outer loop
      vertex 0 -1 0.224999
      vertex -0.5 -0.866025 0
      vertex 0 -1 0
    endloop
  endfacet
  facet normal 0.965926 0.258818 0
    outer loop
      vertex -0.69282 -0.4 0.225374
      vertex -0.799999 0 0
      vertex -0.799999 0 0.225374
    endloop
  endfacet
  facet normal 0.965926 0.258818 0
    outer loop
      vertex -0.799999 0 0
      vertex -0.69282 -0.4 0.225374
      vertex -0.69282 -0.4 0
    endloop
  endfacet
  facet normal -0.707107 -0.707107 0
    outer loop
      vertex 0.69282 0.4 0
      vertex 0.4 0.69282 0.225374
      vertex 0.4 0.69282 0
    endloop
  endfacet
  facet normal -0.707107 -0.707107 0
    outer loop
      vertex 0.4 0.69282 0.225374
      vertex 0.69282 0.4 0
      vertex 0.69282 0.4 0.225374
    endloop
  endfacet
  facet normal -0.965926 -0.258818 0
    outer loop
      vertex 0.799999 0 0
      vertex 0.69282 0.4 0.225374
      vertex 0.69282 0.4 0
    endloop
  endfacet
  facet normal -0.965926 -0.258818 0
    outer loop
      vertex 0.69282 0.4 0.225374
      vertex 0.799999 0 0
      vertex 0.799999 0 0.225374
    endloop
  endfacet
  facet normal -0.258818 -0.965926 0
    outer loop
      vertex 0 0.799999 0
      vertex 0.4 0.69282 0.225374
      vertex 0 0.799999 0.225374
    endloop
  endfacet
  facet normal -0.258818 -0.965926 -0
    outer loop
      vertex 0.4 0.69282 0.225374
      vertex 0 0.799999 0
      vertex 0.4 0.69282 0
    endloop
  endfacet
  facet normal -0.258818 0.965926 0
    outer loop
      vertex 0.4 -0.69282 0
      vertex 0 -0.799999 0.225374
      vertex 0.4 -0.69282 0.225374
    endloop
  endfacet
  facet normal -0.258818 0.965926 0
    outer loop
      vertex 0 -0.799999 0.225374
      vertex 0.4 -0.69282 0
      vertex 0 -0.799999 0
    endloop
  endfacet
  facet normal -0.965926 0.258818 0
    outer loop
      vertex 0.69282 -0.4 0
      vertex 0.799999 0 0.225374
      vertex 0.799999 0 0
    endloop
  endfacet
  facet normal -0.965926 0.258818 0
    outer loop
      vertex 0.799999 0 0.225374
      vertex 0.69282 -0.4 0
      vertex 0.69282 -0.4 0.225374
    endloop
  endfacet
  facet normal 0.707107 -0.707107 0
    outer loop
      vertex -0.69282 0.4 0.225374
      vertex -0.4 0.69282 0
      vertex -0.4 0.69282 0.225374
    endloop
  endfacet
  facet normal 0.707107 -0.707107 0
    outer loop
      vertex -0.4 0.69282 0
      vertex -0.69282 0.4 0.225374
      vertex -0.69282 0.4 0
    endloop
  endfacet
  facet normal 0.258818 -0.965926 0
    outer loop
      vertex -0.4 0.69282 0
      vertex 0 0.799999 0.225374
      vertex -0.4 0.69282 0.225374
    endloop
  endfacet
  facet normal 0.258818 -0.965926 0
    outer loop
      vertex 0 0.799999 0.225374
      vertex -0.4 0.69282 0
      vertex 0 0.799999 0
    endloop
  endfacet
  facet normal 0.965926 -0.258818 0
    outer loop
      vertex -0.799999 0 0.225374
      vertex -0.69282 0.4 0
      vertex -0.69282 0.4 0.225374
    endloop
  endfacet
  facet normal 0.965926 -0.258818 0
    outer loop
      vertex -0.69282 0.4 0
      vertex -0.799999 0 0.225374
      vertex -0.799999 0 0
    endloop
  endfacet
  facet normal -0.707107 0.707107 0
    outer loop
      vertex 0.4 -0.69282 0
      vertex 0.69282 -0.4 0.225374
      vertex 0.69282 -0.4 0
    endloop
  endfacet
  facet normal -0.707107 0.707107 0
    outer loop
      vertex 0.69282 -0.4 0.225374
      vertex 0.4 -0.69282 0
      vertex 0.4 -0.69282 0.225374
    endloop
  endfacet
  facet normal 0 0 -1
    outer loop
      vertex 0.69282 -0.4 0.225374
      vertex 0.77274 0 0.225374
      vertex 0.799999 0 0.225374
    endloop
  endfacet
  facet normal 0 0 -1
    outer loop
      vertex 0.69282 -0.4 0.225374
      vertex 0.669212 -0.38637 0.225374
      vertex 0.77274 0 0.225374
    endloop
  endfacet
  facet normal 0 0 -1
    outer loop
      vertex 0.4 -0.69282 0.225374
      vertex 0.669212 -0.38637 0.225374
      vertex 0.69282 -0.4 0.225374
    endloop
  endfacet
  facet normal 0 0 -1
    outer loop
      vertex 0.4 -0.69282 0.225374
      vertex 0.38637 -0.669212 0.225374
      vertex 0.669212 -0.38637 0.225374
    endloop
  endfacet
  facet normal 0 0 -1
    outer loop
      vertex 0 -0.799999 0.225374
      vertex 0.38637 -0.669212 0.225374
      vertex 0.4 -0.69282 0.225374
    endloop
  endfacet
  facet normal 0 0 -1
    outer loop
      vertex 0 -0.799999 0.225374
      vertex 0 -0.77274 0.225374
      vertex 0.38637 -0.669212 0.225374
    endloop
  endfacet
  facet normal 0 0 -1
    outer loop
      vertex 0 -0.799999 0.225374
      vertex -0.38637 -0.669212 0.225374
      vertex 0 -0.77274 0.225374
    endloop
  endfacet
  facet normal 0 0 -1
    outer loop
      vertex -0.4 -0.69282 0.225374
      vertex -0.38637 -0.669212 0.225374
      vertex 0 -0.799999 0.225374
    endloop
  endfacet
  facet normal 0 0 -1
    outer loop
      vertex -0.4 -0.69282 0.225374
      vertex -0.669212 -0.38637 0.225374
      vertex -0.38637 -0.669212 0.225374
    endloop
  endfacet
  facet normal 0 0 -1
    outer loop
      vertex -0.69282 -0.4 0.225374
      vertex -0.669212 -0.38637 0.225374
      vertex -0.4 -0.69282 0.225374
    endloop
  endfacet
  facet normal 0 0 -1
    outer loop
      vertex -0.69282 -0.4 0.225374
      vertex -0.77274 0 0.225374
      vertex -0.669212 -0.38637 0.225374
    endloop
  endfacet
  facet normal -0 -0 -1
    outer loop
      vertex -0.77274 0 0.225374
      vertex -0.69282 -0.4 0.225374
      vertex -0.799999 0 0.225374
    endloop
  endfacet
  facet normal 0 0 -1
    outer loop
      vertex 0.77274 0 0.225374
      vertex 0.69282 0.4 0.225374
      vertex 0.799999 0 0.225374
    endloop
  endfacet
  facet normal 0 0 -1
    outer loop
      vertex 0.669212 0.38637 0.225374
      vertex 0.69282 0.4 0.225374
      vertex 0.77274 0 0.225374
    endloop
  endfacet
  facet normal 0 0 -1
    outer loop
      vertex 0.669212 0.38637 0.225374
      vertex 0.4 0.69282 0.225374
      vertex 0.69282 0.4 0.225374
    endloop
  endfacet
  facet normal 0 0 -1
    outer loop
      vertex 0.38637 0.669212 0.225374
      vertex 0.4 0.69282 0.225374
      vertex 0.669212 0.38637 0.225374
    endloop
  endfacet
  facet normal 0 0 -1
    outer loop
      vertex 0 0.77274 0.225374
      vertex 0.4 0.69282 0.225374
      vertex 0.38637 0.669212 0.225374
    endloop
  endfacet
  facet normal 0 0 -1
    outer loop
      vertex 0 0.77274 0.225374
      vertex 0 0.799999 0.225374
      vertex 0.4 0.69282 0.225374
    endloop
  endfacet
  facet normal 0 0 -1
    outer loop
      vertex -0.38637 0.669212 0.225374
      vertex 0 0.799999 0.225374
      vertex 0 0.77274 0.225374
    endloop
  endfacet
  facet normal 0 0 -1
    outer loop
      vertex -0.38637 0.669212 0.225374
      vertex -0.4 0.69282 0.225374
      vertex 0 0.799999 0.225374
    endloop
  endfacet
  facet normal 0 0 -1
    outer loop
      vertex -0.669212 0.38637 0.225374
      vertex -0.4 0.69282 0.225374
      vertex -0.38637 0.669212 0.225374
    endloop
  endfacet
  facet normal 0 0 -1
    outer loop
      vertex -0.669212 0.38637 0.225374
      vertex -0.69282 0.4 0.225374
      vertex -0.4 0.69282 0.225374
    endloop
  endfacet
  facet normal 0 0 -1
    outer loop
      vertex -0.77274 0 0.225374
      vertex -0.69282 0.4 0.225374
      vertex -0.669212 0.38637 0.225374
    endloop
  endfacet
  facet normal 0 0 -1
    outer loop
      vertex -0.69282 0.4 0.225374
      vertex -0.77274 0 0.225374
      vertex -0.799999 0 0.225374
    endloop
  endfacet
  facet normal 0.707107 0.707107 0
    outer loop
      vertex -0.4 -0.69282 0.225374
      vertex -0.69282 -0.4 0
      vertex -0.69282 -0.4 0.225374
    endloop
  endfacet
  facet normal 0.707107 0.707107 0
    outer loop
      vertex -0.69282 -0.4 0
      vertex -0.4 -0.69282 0.225374
      vertex -0.4 -0.69282 0
    endloop
  endfacet
  facet normal 0.258818 0.965926 -0
    outer loop
      vertex 0 -0.799999 0
      vertex -0.4 -0.69282 0.225374
      vertex 0 -0.799999 0.225374
    endloop
  endfacet
  facet normal 0.258818 0.965926 0
    outer loop
      vertex -0.4 -0.69282 0.225374
      vertex 0 -0.799999 0
      vertex -0.4 -0.69282 0
    endloop
  endfacet
endsolid OpenSCAD_Model
