solid OpenSCAD_Model
  facet normal 0 0.965921 -0.258836
    outer loop
      vertex 0.9 0.27424 -1.50833
      vertex 0.725 0.303269 -1.4
      vertex 0.9 0.303269 -1.4
    endloop
  endfacet
  facet normal 0 0.965921 -0.258836
    outer loop
      vertex 0.725 0.303269 -1.4
      vertex 0.9 0.27424 -1.50833
      vertex 0.725 0.27424 -1.50833
    endloop
  endfacet
  facet normal 0 -0.258846 -0.965919
    outer loop
      vertex 0.725 -0.158333 -1.62424
      vertex 0.9 0 -1.66667
      vertex 0.9 -0.158333 -1.62424
    endloop
  endfacet
  facet normal -0 -0.258846 -0.965919
    outer loop
      vertex 0.9 0 -1.66667
      vertex 0.725 -0.158333 -1.62424
      vertex 0.725 0 -1.66667
    endloop
  endfacet
  facet normal 0 -0.965921 -0.258836
    outer loop
      vertex 0.725 -0.27424 -1.50833
      vertex 0.9 -0.303269 -1.4
      vertex 0.725 -0.303269 -1.4
    endloop
  endfacet
  facet normal 0 -0.965921 -0.258836
    outer loop
      vertex 0.9 -0.303269 -1.4
      vertex 0.725 -0.27424 -1.50833
      vertex 0.9 -0.27424 -1.50833
    endloop
  endfacet
  facet normal 0 0.258846 -0.965919
    outer loop
      vertex 0.725 0 -1.66667
      vertex 0.9 0.158333 -1.62424
      vertex 0.9 0 -1.66667
    endloop
  endfacet
  facet normal 0 0.258846 -0.965919
    outer loop
      vertex 0.9 0.158333 -1.62424
      vertex 0.725 0 -1.66667
      vertex 0.725 0.158333 -1.62424
    endloop
  endfacet
  facet normal 0 0.707116 -0.707098
    outer loop
      vertex 0.9 0.158333 -1.62424
      vertex 0.725 0.27424 -1.50833
      vertex 0.9 0.27424 -1.50833
    endloop
  endfacet
  facet normal 0 0.707116 -0.707098
    outer loop
      vertex 0.725 0.27424 -1.50833
      vertex 0.9 0.158333 -1.62424
      vertex 0.725 0.158333 -1.62424
    endloop
  endfacet
  facet normal 1 -0 0
    outer loop
      vertex 0.9 0.187638 -1.24167
      vertex 0.9 0.316667 -1.4
      vertex 0.9 0.316667 -0.35
    endloop
  endfacet
  facet normal 1 -0 -0
    outer loop
      vertex 0.9 0.216666 -1.35
      vertex 0.9 0.316667 -1.4
      vertex 0.9 0.187638 -1.24167
    endloop
  endfacet
  facet normal 1 0 0
    outer loop
      vertex 0.9 0.187638 -1.45833
      vertex 0.9 0.303269 -1.4
      vertex 0.9 0.216666 -1.35
    endloop
  endfacet
  facet normal 1 0 0
    outer loop
      vertex 0.9 0.316667 -1.4
      vertex 0.9 0.216666 -1.35
      vertex 0.9 0.303269 -1.4
    endloop
  endfacet
  facet normal 1 0 0
    outer loop
      vertex 0.9 0.316667 -0.35
      vertex 0.9 0.108333 -1.16236
      vertex 0.9 0.187638 -1.24167
    endloop
  endfacet
  facet normal 1 0 0
    outer loop
      vertex 0.9 0.316667 -0.35
      vertex 0.9 0 -1.13333
      vertex 0.9 0.108333 -1.16236
    endloop
  endfacet
  facet normal 1 -0 0
    outer loop
      vertex 0.9 -0.316667 -0.35
      vertex 0.9 0 -1.13333
      vertex 0.9 0.316667 -0.35
    endloop
  endfacet
  facet normal 1 0 0
    outer loop
      vertex 0.9 0 -1.13333
      vertex 0.9 -0.316667 -0.35
      vertex 0.9 -0.108333 -1.16236
    endloop
  endfacet
  facet normal 1 0 0
    outer loop
      vertex 0.9 -0.316667 -1.4
      vertex 0.9 -0.216666 -1.35
      vertex 0.9 -0.187638 -1.24167
    endloop
  endfacet
  facet normal 1 0 0
    outer loop
      vertex 0.9 -0.216666 -1.35
      vertex 0.9 -0.303269 -1.4
      vertex 0.9 -0.27424 -1.50833
    endloop
  endfacet
  facet normal 1 0 0
    outer loop
      vertex 0.9 -0.108333 -1.16236
      vertex 0.9 -0.316667 -0.35
      vertex 0.9 -0.187638 -1.24167
    endloop
  endfacet
  facet normal 1 0 0
    outer loop
      vertex 0.9 -0.316667 -1.4
      vertex 0.9 -0.187638 -1.24167
      vertex 0.9 -0.316667 -0.35
    endloop
  endfacet
  facet normal 1 0 0
    outer loop
      vertex 0.9 -0.216666 -1.35
      vertex 0.9 -0.316667 -1.4
      vertex 0.9 -0.303269 -1.4
    endloop
  endfacet
  facet normal 1 0 0
    outer loop
      vertex 0.9 0.303269 -1.4
      vertex 0.9 0.187638 -1.45833
      vertex 0.9 0.27424 -1.50833
    endloop
  endfacet
  facet normal 1 0 0
    outer loop
      vertex 0.9 0.187638 -1.45833
      vertex 0.9 0.158333 -1.62424
      vertex 0.9 0.27424 -1.50833
    endloop
  endfacet
  facet normal 1 -0 0
    outer loop
      vertex 0.9 0.108333 -1.53764
      vertex 0.9 0.158333 -1.62424
      vertex 0.9 0.187638 -1.45833
    endloop
  endfacet
  facet normal 1 -0 0
    outer loop
      vertex 0.9 0 -1.56667
      vertex 0.9 0.158333 -1.62424
      vertex 0.9 0.108333 -1.53764
    endloop
  endfacet
  facet normal 1 0 0
    outer loop
      vertex 0.9 0 -1.56667
      vertex 0.9 0 -1.66667
      vertex 0.9 0.158333 -1.62424
    endloop
  endfacet
  facet normal 1 0 0
    outer loop
      vertex 0.9 -0.108333 -1.53764
      vertex 0.9 0 -1.66667
      vertex 0.9 0 -1.56667
    endloop
  endfacet
  facet normal 1 0 0
    outer loop
      vertex 0.9 -0.108333 -1.53764
      vertex 0.9 -0.158333 -1.62424
      vertex 0.9 0 -1.66667
    endloop
  endfacet
  facet normal 1 0 0
    outer loop
      vertex 0.9 -0.187638 -1.45833
      vertex 0.9 -0.158333 -1.62424
      vertex 0.9 -0.108333 -1.53764
    endloop
  endfacet
  facet normal 1 0 0
    outer loop
      vertex 0.9 -0.27424 -1.50833
      vertex 0.9 -0.187638 -1.45833
      vertex 0.9 -0.216666 -1.35
    endloop
  endfacet
  facet normal 1 0 0
    outer loop
      vertex 0.9 -0.187638 -1.45833
      vertex 0.9 -0.27424 -1.50833
      vertex 0.9 -0.158333 -1.62424
    endloop
  endfacet
  facet normal 0 -0.707116 -0.707098
    outer loop
      vertex 0.725 -0.158333 -1.62424
      vertex 0.9 -0.27424 -1.50833
      vertex 0.725 -0.27424 -1.50833
    endloop
  endfacet
  facet normal 0 -0.707116 -0.707098
    outer loop
      vertex 0.9 -0.27424 -1.50833
      vertex 0.725 -0.158333 -1.62424
      vertex 0.9 -0.158333 -1.62424
    endloop
  endfacet
  facet normal -1 -0 0
    outer loop
      vertex 0.725 -0.216666 -1.35
      vertex 0.725 -0.316667 -1.4
      vertex 0.725 -0.187638 -1.24167
    endloop
  endfacet
  facet normal -1 -0 0
    outer loop
      vertex 0.725 -0.187638 -1.24167
      vertex 0.725 -0.316667 -1.4
      vertex 0.725 -0.316667 -0.35
    endloop
  endfacet
  facet normal -1 0 0
    outer loop
      vertex 0.725 -0.187638 -1.24167
      vertex 0.725 -0.316667 -0.35
      vertex 0.725 -0.279899 -0.35
    endloop
  endfacet
  facet normal -1 -0 0
    outer loop
      vertex 0.725 0.303269 -1.4
      vertex 0.725 0.187638 -1.45833
      vertex 0.725 0.216666 -1.35
    endloop
  endfacet
  facet normal -1 0 0
    outer loop
      vertex 0.725 0.158333 -1.62424
      vertex 0.725 0.187638 -1.45833
      vertex 0.725 0.27424 -1.50833
    endloop
  endfacet
  facet normal -1 0 0
    outer loop
      vertex 0.725 0.158333 -1.62424
      vertex 0.725 0.108333 -1.53764
      vertex 0.725 0.187638 -1.45833
    endloop
  endfacet
  facet normal -1 0 0
    outer loop
      vertex 0.725 0 -1.66667
      vertex 0.725 0.108333 -1.53764
      vertex 0.725 0.158333 -1.62424
    endloop
  endfacet
  facet normal -1 0 0
    outer loop
      vertex 0.725 0 -1.66667
      vertex 0.725 0 -1.56667
      vertex 0.725 0.108333 -1.53764
    endloop
  endfacet
  facet normal -1 0 0
    outer loop
      vertex 0.725 0 -1.66667
      vertex 0.725 -0.108333 -1.53764
      vertex 0.725 0 -1.56667
    endloop
  endfacet
  facet normal -1 0 0
    outer loop
      vertex 0.725 -0.158333 -1.62424
      vertex 0.725 -0.108333 -1.53764
      vertex 0.725 0 -1.66667
    endloop
  endfacet
  facet normal -1 0 0
    outer loop
      vertex 0.725 -0.158333 -1.62424
      vertex 0.725 -0.187638 -1.45833
      vertex 0.725 -0.108333 -1.53764
    endloop
  endfacet
  facet normal -1 0 0
    outer loop
      vertex 0.725 -0.27424 -1.50833
      vertex 0.725 -0.187638 -1.45833
      vertex 0.725 -0.158333 -1.62424
    endloop
  endfacet
  facet normal -1 0 0
    outer loop
      vertex 0.725 -0.303269 -1.4
      vertex 0.725 -0.187638 -1.45833
      vertex 0.725 -0.27424 -1.50833
    endloop
  endfacet
  facet normal -1 0 0
    outer loop
      vertex 0.725 0.216666 -1.35
      vertex 0.725 0.316667 -1.4
      vertex 0.725 0.303269 -1.4
    endloop
  endfacet
  facet normal -1 0 0
    outer loop
      vertex 0.725 0.316667 -1.4
      vertex 0.725 0.187638 -1.24167
      vertex 0.725 0.316667 -0.35
    endloop
  endfacet
  facet normal -1 0 0
    outer loop
      vertex 0.725 0.187638 -1.45833
      vertex 0.725 0.303269 -1.4
      vertex 0.725 0.27424 -1.50833
    endloop
  endfacet
  facet normal -1 0 0
    outer loop
      vertex 0.725 0.316667 -1.4
      vertex 0.725 0.216666 -1.35
      vertex 0.725 0.187638 -1.24167
    endloop
  endfacet
  facet normal -1 0 0
    outer loop
      vertex 0.725 0.108333 -1.16236
      vertex 0.725 0.316667 -0.35
      vertex 0.725 0.187638 -1.24167
    endloop
  endfacet
  facet normal -1 -0 0
    outer loop
      vertex 0.725 0.316667 -0.35
      vertex 0.725 0.108333 -1.16236
      vertex 0.725 0.279899 -0.35
    endloop
  endfacet
  facet normal -1 0 0
    outer loop
      vertex 0.725 0 -1.13333
      vertex 0.725 0.279899 -0.35
      vertex 0.725 0.108333 -1.16236
    endloop
  endfacet
  facet normal -1 0 0
    outer loop
      vertex 0.725 -0.279899 -0.35
      vertex 0.725 0.279899 -0.35
      vertex 0.725 0 -1.13333
    endloop
  endfacet
  facet normal -1 0 0
    outer loop
      vertex 0.725 -0.279899 -0.35
      vertex 0.725 0 -1.13333
      vertex 0.725 -0.108333 -1.16236
    endloop
  endfacet
  facet normal -1 0 0
    outer loop
      vertex 0.725 -0.279899 -0.35
      vertex 0.725 -0.108333 -1.16236
      vertex 0.725 -0.187638 -1.24167
    endloop
  endfacet
  facet normal -1 0 0
    outer loop
      vertex 0.725 -0.187638 -1.45833
      vertex 0.725 -0.303269 -1.4
      vertex 0.725 -0.216666 -1.35
    endloop
  endfacet
  facet normal -1 0 0
    outer loop
      vertex 0.725 -0.316667 -1.4
      vertex 0.725 -0.216666 -1.35
      vertex 0.725 -0.303269 -1.4
    endloop
  endfacet
  facet normal -1 0 0
    outer loop
      vertex 0.725 0.279899 -0.35
      vertex 0.725 -0.279899 -0.35
      vertex 0.725 0.279899 -0.3
    endloop
  endfacet
  facet normal -1 -0 0
    outer loop
      vertex 0.725 0.279899 -0.3
      vertex 0.725 -0.279899 -0.35
      vertex 0.725 -0.279899 -0.3
    endloop
  endfacet
  facet normal 0 0 1
    outer loop
      vertex 0.725 0.279899 -0.3
      vertex 0.725 -0.279899 -0.3
      vertex 0.799999 0 -0.3
    endloop
  endfacet
  facet normal 0 0 -1
    outer loop
      vertex 0.725 0.303269 -1.4
      vertex 0.9 0.316667 -1.4
      vertex 0.9 0.303269 -1.4
    endloop
  endfacet
  facet normal -0 0 -1
    outer loop
      vertex 0.9 0.316667 -1.4
      vertex 0.725 0.303269 -1.4
      vertex 0.725 0.316667 -1.4
    endloop
  endfacet
  facet normal 0 0 -1
    outer loop
      vertex 0.725 -0.316667 -1.4
      vertex 0.9 -0.303269 -1.4
      vertex 0.9 -0.316667 -1.4
    endloop
  endfacet
  facet normal -0 0 -1
    outer loop
      vertex 0.9 -0.303269 -1.4
      vertex 0.725 -0.316667 -1.4
      vertex 0.725 -0.303269 -1.4
    endloop
  endfacet
  facet normal 0 1 -0
    outer loop
      vertex 0.9 0.316667 -1.4
      vertex 0.725 0.316667 -0.35
      vertex 0.9 0.316667 -0.35
    endloop
  endfacet
  facet normal 0 1 0
    outer loop
      vertex 0.725 0.316667 -0.35
      vertex 0.9 0.316667 -1.4
      vertex 0.725 0.316667 -1.4
    endloop
  endfacet
  facet normal 0 -1 0
    outer loop
      vertex 0.725 -0.316667 -1.4
      vertex 0.9 -0.316667 -0.35
      vertex 0.725 -0.316667 -0.35
    endloop
  endfacet
  facet normal 0 -1 -0
    outer loop
      vertex 0.9 -0.316667 -0.35
      vertex 0.725 -0.316667 -1.4
      vertex 0.9 -0.316667 -1.4
    endloop
  endfacet
  facet normal 0 0.965921 -0.258836
    outer loop
      vertex -0.725 0.27424 -1.50833
      vertex -0.9 0.303269 -1.4
      vertex -0.725 0.303269 -1.4
    endloop
  endfacet
  facet normal 0 0.965921 -0.258836
    outer loop
      vertex -0.9 0.303269 -1.4
      vertex -0.725 0.27424 -1.50833
      vertex -0.9 0.27424 -1.50833
    endloop
  endfacet
  facet normal 0 -0.965921 -0.258836
    outer loop
      vertex -0.9 -0.27424 -1.50833
      vertex -0.725 -0.303269 -1.4
      vertex -0.9 -0.303269 -1.4
    endloop
  endfacet
  facet normal 0 -0.965921 -0.258836
    outer loop
      vertex -0.725 -0.303269 -1.4
      vertex -0.9 -0.27424 -1.50833
      vertex -0.725 -0.27424 -1.50833
    endloop
  endfacet
  facet normal 0 -0.258846 -0.965919
    outer loop
      vertex -0.9 -0.158333 -1.62424
      vertex -0.725 0 -1.66667
      vertex -0.725 -0.158333 -1.62424
    endloop
  endfacet
  facet normal -0 -0.258846 -0.965919
    outer loop
      vertex -0.725 0 -1.66667
      vertex -0.9 -0.158333 -1.62424
      vertex -0.9 0 -1.66667
    endloop
  endfacet
  facet normal 0 0.258846 -0.965919
    outer loop
      vertex -0.9 0 -1.66667
      vertex -0.725 0.158333 -1.62424
      vertex -0.725 0 -1.66667
    endloop
  endfacet
  facet normal 0 0.258846 -0.965919
    outer loop
      vertex -0.725 0.158333 -1.62424
      vertex -0.9 0 -1.66667
      vertex -0.9 0.158333 -1.62424
    endloop
  endfacet
  facet normal 0 0.707116 -0.707098
    outer loop
      vertex -0.725 0.158333 -1.62424
      vertex -0.9 0.27424 -1.50833
      vertex -0.725 0.27424 -1.50833
    endloop
  endfacet
  facet normal 0 0.707116 -0.707098
    outer loop
      vertex -0.9 0.27424 -1.50833
      vertex -0.725 0.158333 -1.62424
      vertex -0.9 0.158333 -1.62424
    endloop
  endfacet
  facet normal 0 -0.707116 -0.707098
    outer loop
      vertex -0.9 -0.158333 -1.62424
      vertex -0.725 -0.27424 -1.50833
      vertex -0.9 -0.27424 -1.50833
    endloop
  endfacet
  facet normal 0 -0.707116 -0.707098
    outer loop
      vertex -0.725 -0.27424 -1.50833
      vertex -0.9 -0.158333 -1.62424
      vertex -0.725 -0.158333 -1.62424
    endloop
  endfacet
  facet normal -1 -0 0
    outer loop
      vertex -0.9 0.303269 -1.4
      vertex -0.9 0.187638 -1.45833
      vertex -0.9 0.216666 -1.35
    endloop
  endfacet
  facet normal -1 0 0
    outer loop
      vertex -0.9 0.158333 -1.62424
      vertex -0.9 0.187638 -1.45833
      vertex -0.9 0.27424 -1.50833
    endloop
  endfacet
  facet normal -1 0 0
    outer loop
      vertex -0.9 0.158333 -1.62424
      vertex -0.9 0.108333 -1.53764
      vertex -0.9 0.187638 -1.45833
    endloop
  endfacet
  facet normal -1 0 0
    outer loop
      vertex -0.9 0 -1.66667
      vertex -0.9 0.108333 -1.53764
      vertex -0.9 0.158333 -1.62424
    endloop
  endfacet
  facet normal -1 0 0
    outer loop
      vertex -0.9 0 -1.66667
      vertex -0.9 0 -1.56667
      vertex -0.9 0.108333 -1.53764
    endloop
  endfacet
  facet normal -1 0 0
    outer loop
      vertex -0.9 0 -1.66667
      vertex -0.9 -0.108333 -1.53764
      vertex -0.9 0 -1.56667
    endloop
  endfacet
  facet normal -1 0 0
    outer loop
      vertex -0.9 -0.158333 -1.62424
      vertex -0.9 -0.108333 -1.53764
      vertex -0.9 0 -1.66667
    endloop
  endfacet
  facet normal -1 0 0
    outer loop
      vertex -0.9 -0.158333 -1.62424
      vertex -0.9 -0.187638 -1.45833
      vertex -0.9 -0.108333 -1.53764
    endloop
  endfacet
  facet normal -1 0 0
    outer loop
      vertex -0.9 -0.27424 -1.50833
      vertex -0.9 -0.187638 -1.45833
      vertex -0.9 -0.158333 -1.62424
    endloop
  endfacet
  facet normal -1 0 0
    outer loop
      vertex -0.9 -0.303269 -1.4
      vertex -0.9 -0.187638 -1.45833
      vertex -0.9 -0.27424 -1.50833
    endloop
  endfacet
  facet normal -1 0 0
    outer loop
      vertex -0.9 0.216666 -1.35
      vertex -0.9 0.316667 -1.4
      vertex -0.9 0.303269 -1.4
    endloop
  endfacet
  facet normal -1 0 0
    outer loop
      vertex -0.9 0.187638 -1.45833
      vertex -0.9 0.303269 -1.4
      vertex -0.9 0.27424 -1.50833
    endloop
  endfacet
  facet normal -1 0 0
    outer loop
      vertex -0.9 0.316667 -1.4
      vertex -0.9 0.216666 -1.35
      vertex -0.9 0.187638 -1.24167
    endloop
  endfacet
  facet normal -1 0 0
    outer loop
      vertex -0.9 0.316667 -1.4
      vertex -0.9 0.187638 -1.24167
      vertex -0.9 0.316667 -0.35
    endloop
  endfacet
  facet normal -1 0 0
    outer loop
      vertex -0.9 0.108333 -1.16236
      vertex -0.9 0.316667 -0.35
      vertex -0.9 0.187638 -1.24167
    endloop
  endfacet
  facet normal -1 0 0
    outer loop
      vertex -0.9 0 -1.13333
      vertex -0.9 0.316667 -0.35
      vertex -0.9 0.108333 -1.16236
    endloop
  endfacet
  facet normal -1 0 0
    outer loop
      vertex -0.9 -0.316667 -0.35
      vertex -0.9 0 -1.13333
      vertex -0.9 -0.108333 -1.16236
    endloop
  endfacet
  facet normal -1 0 0
    outer loop
      vertex -0.9 -0.316667 -0.35
      vertex -0.9 -0.108333 -1.16236
      vertex -0.9 -0.187638 -1.24167
    endloop
  endfacet
  facet normal -1 0 0
    outer loop
      vertex -0.9 -0.187638 -1.45833
      vertex -0.9 -0.303269 -1.4
      vertex -0.9 -0.216666 -1.35
    endloop
  endfacet
  facet normal -1 0 0
    outer loop
      vertex -0.9 -0.316667 -1.4
      vertex -0.9 -0.216666 -1.35
      vertex -0.9 -0.303269 -1.4
    endloop
  endfacet
  facet normal -1 -0 0
    outer loop
      vertex -0.9 -0.216666 -1.35
      vertex -0.9 -0.316667 -1.4
      vertex -0.9 -0.187638 -1.24167
    endloop
  endfacet
  facet normal -1 -0 0
    outer loop
      vertex -0.9 -0.187638 -1.24167
      vertex -0.9 -0.316667 -1.4
      vertex -0.9 -0.316667 -0.35
    endloop
  endfacet
  facet normal -1 0 0
    outer loop
      vertex -0.9 0 -1.13333
      vertex -0.9 -0.316667 -0.35
      vertex -0.9 0.316667 -0.35
    endloop
  endfacet
  facet normal 1 0 0
    outer loop
      vertex -0.725 -0.279899 -0.35
      vertex -0.725 0.279899 -0.35
      vertex -0.725 0.279899 -0.3
    endloop
  endfacet
  facet normal 1 0 0
    outer loop
      vertex -0.725 0.279899 -0.35
      vertex -0.725 0.216666 -1.35
      vertex -0.725 0.27424 -1.50833
    endloop
  endfacet
  facet normal 1 0 0
    outer loop
      vertex -0.725 0.279899 -0.35
      vertex -0.725 0.187638 -1.24167
      vertex -0.725 0.216666 -1.35
    endloop
  endfacet
  facet normal 1 0 0
    outer loop
      vertex -0.725 0.279899 -0.35
      vertex -0.725 0.108333 -1.16236
      vertex -0.725 0.187638 -1.24167
    endloop
  endfacet
  facet normal 1 0 0
    outer loop
      vertex -0.725 0.279899 -0.35
      vertex -0.725 0 -1.13333
      vertex -0.725 0.108333 -1.16236
    endloop
  endfacet
  facet normal 1 0 0
    outer loop
      vertex -0.725 0.279899 -0.35
      vertex -0.725 -0.279899 -0.35
      vertex -0.725 0 -1.13333
    endloop
  endfacet
  facet normal 1 0 0
    outer loop
      vertex -0.725 0 -1.13333
      vertex -0.725 -0.279899 -0.35
      vertex -0.725 -0.108333 -1.16236
    endloop
  endfacet
  facet normal 1 0 0
    outer loop
      vertex -0.725 -0.316667 -1.4
      vertex -0.725 -0.216666 -1.35
      vertex -0.725 -0.187638 -1.24167
    endloop
  endfacet
  facet normal 1 0 0
    outer loop
      vertex -0.725 -0.279899 -0.35
      vertex -0.725 0.279899 -0.3
      vertex -0.725 -0.279899 -0.3
    endloop
  endfacet
  facet normal 1 -0 0
    outer loop
      vertex -0.725 -0.316667 -0.35
      vertex -0.725 -0.108333 -1.16236
      vertex -0.725 -0.279899 -0.35
    endloop
  endfacet
  facet normal 1 0 0
    outer loop
      vertex -0.725 -0.108333 -1.16236
      vertex -0.725 -0.316667 -0.35
      vertex -0.725 -0.187638 -1.24167
    endloop
  endfacet
  facet normal 1 0 0
    outer loop
      vertex -0.725 -0.216666 -1.35
      vertex -0.725 -0.303269 -1.4
      vertex -0.725 -0.27424 -1.50833
    endloop
  endfacet
  facet normal 1 0 0
    outer loop
      vertex -0.725 -0.316667 -1.4
      vertex -0.725 -0.187638 -1.24167
      vertex -0.725 -0.316667 -0.35
    endloop
  endfacet
  facet normal 1 0 0
    outer loop
      vertex -0.725 -0.216666 -1.35
      vertex -0.725 -0.316667 -1.4
      vertex -0.725 -0.303269 -1.4
    endloop
  endfacet
  facet normal 1 0 0
    outer loop
      vertex -0.725 0.316667 -0.35
      vertex -0.725 0.303269 -1.4
      vertex -0.725 0.316667 -1.4
    endloop
  endfacet
  facet normal 1 -0 0
    outer loop
      vertex -0.725 0.279899 -0.35
      vertex -0.725 0.303269 -1.4
      vertex -0.725 0.316667 -0.35
    endloop
  endfacet
  facet normal 1 0 0
    outer loop
      vertex -0.725 0.303269 -1.4
      vertex -0.725 0.279899 -0.35
      vertex -0.725 0.27424 -1.50833
    endloop
  endfacet
  facet normal 1 -0 0
    outer loop
      vertex -0.725 0.187638 -1.45833
      vertex -0.725 0.27424 -1.50833
      vertex -0.725 0.216666 -1.35
    endloop
  endfacet
  facet normal 1 0 0
    outer loop
      vertex -0.725 0.187638 -1.45833
      vertex -0.725 0.158333 -1.62424
      vertex -0.725 0.27424 -1.50833
    endloop
  endfacet
  facet normal 1 -0 0
    outer loop
      vertex -0.725 0.108333 -1.53764
      vertex -0.725 0.158333 -1.62424
      vertex -0.725 0.187638 -1.45833
    endloop
  endfacet
  facet normal 1 -0 0
    outer loop
      vertex -0.725 0 -1.56667
      vertex -0.725 0.158333 -1.62424
      vertex -0.725 0.108333 -1.53764
    endloop
  endfacet
  facet normal 1 0 0
    outer loop
      vertex -0.725 0 -1.56667
      vertex -0.725 0 -1.66667
      vertex -0.725 0.158333 -1.62424
    endloop
  endfacet
  facet normal 1 0 0
    outer loop
      vertex -0.725 -0.108333 -1.53764
      vertex -0.725 0 -1.66667
      vertex -0.725 0 -1.56667
    endloop
  endfacet
  facet normal 1 0 0
    outer loop
      vertex -0.725 -0.108333 -1.53764
      vertex -0.725 -0.158333 -1.62424
      vertex -0.725 0 -1.66667
    endloop
  endfacet
  facet normal 1 0 0
    outer loop
      vertex -0.725 -0.187638 -1.45833
      vertex -0.725 -0.158333 -1.62424
      vertex -0.725 -0.108333 -1.53764
    endloop
  endfacet
  facet normal 1 0 0
    outer loop
      vertex -0.725 -0.27424 -1.50833
      vertex -0.725 -0.187638 -1.45833
      vertex -0.725 -0.216666 -1.35
    endloop
  endfacet
  facet normal 1 0 0
    outer loop
      vertex -0.725 -0.187638 -1.45833
      vertex -0.725 -0.27424 -1.50833
      vertex -0.725 -0.158333 -1.62424
    endloop
  endfacet
  facet normal 0 0 1
    outer loop
      vertex -0.725 0.279899 -0.3
      vertex -0.799999 0 -0.3
      vertex -0.725 -0.279899 -0.3
    endloop
  endfacet
  facet normal 0 0 -1
    outer loop
      vertex -0.9 0.303269 -1.4
      vertex -0.725 0.316667 -1.4
      vertex -0.725 0.303269 -1.4
    endloop
  endfacet
  facet normal -0 0 -1
    outer loop
      vertex -0.725 0.316667 -1.4
      vertex -0.9 0.303269 -1.4
      vertex -0.9 0.316667 -1.4
    endloop
  endfacet
  facet normal 0 0 -1
    outer loop
      vertex -0.9 -0.316667 -1.4
      vertex -0.725 -0.303269 -1.4
      vertex -0.725 -0.316667 -1.4
    endloop
  endfacet
  facet normal -0 0 -1
    outer loop
      vertex -0.725 -0.303269 -1.4
      vertex -0.9 -0.316667 -1.4
      vertex -0.9 -0.303269 -1.4
    endloop
  endfacet
  facet normal 0 1 -0
    outer loop
      vertex -0.725 0.316667 -1.4
      vertex -0.9 0.316667 -0.35
      vertex -0.725 0.316667 -0.35
    endloop
  endfacet
  facet normal 0 1 0
    outer loop
      vertex -0.9 0.316667 -0.35
      vertex -0.725 0.316667 -1.4
      vertex -0.9 0.316667 -1.4
    endloop
  endfacet
  facet normal 0 -1 0
    outer loop
      vertex -0.9 -0.316667 -1.4
      vertex -0.725 -0.316667 -0.35
      vertex -0.9 -0.316667 -0.35
    endloop
  endfacet
  facet normal 0 -1 -0
    outer loop
      vertex -0.725 -0.316667 -0.35
      vertex -0.9 -0.316667 -1.4
      vertex -0.725 -0.316667 -1.4
    endloop
  endfacet
  facet normal -0.965926 -0.25882 0
    outer loop
      vertex -0.866025 -0.5 -0.35
      vertex -1 0 0
      vertex -1 0 -0.35
    endloop
  endfacet
  facet normal -0.965926 -0.25882 0
    outer loop
      vertex -1 0 0
      vertex -0.866025 -0.5 -0.35
      vertex -0.866025 -0.5 0
    endloop
  endfacet
  facet normal 0.707107 0.707107 0
    outer loop
      vertex 0.866025 0.5 0
      vertex 0.5 0.866025 -0.35
      vertex 0.5 0.866025 0
    endloop
  endfacet
  facet normal 0.707107 0.707107 0
    outer loop
      vertex 0.5 0.866025 -0.35
      vertex 0.866025 0.5 0
      vertex 0.866025 0.5 -0.35
    endloop
  endfacet
  facet normal 0.965926 0.25882 0
    outer loop
      vertex 1 0 0
      vertex 0.866025 0.5 -0.35
      vertex 0.866025 0.5 0
    endloop
  endfacet
  facet normal 0.965926 0.25882 0
    outer loop
      vertex 0.866025 0.5 -0.35
      vertex 1 0 0
      vertex 1 0 -0.35
    endloop
  endfacet
  facet normal 0.25882 0.965926 -0
    outer loop
      vertex 0.5 0.866025 -0.35
      vertex 0 1 0
      vertex 0.5 0.866025 0
    endloop
  endfacet
  facet normal 0.25882 0.965926 0
    outer loop
      vertex 0 1 0
      vertex 0.5 0.866025 -0.35
      vertex 0 1 -0.35
    endloop
  endfacet
  facet normal 0.25882 -0.965926 0
    outer loop
      vertex 0 -1 -0.35
      vertex 0.5 -0.866025 0
      vertex 0 -1 0
    endloop
  endfacet
  facet normal 0.25882 -0.965926 0
    outer loop
      vertex 0.5 -0.866025 0
      vertex 0 -1 -0.35
      vertex 0.5 -0.866025 -0.35
    endloop
  endfacet
  facet normal 0.965926 -0.25882 0
    outer loop
      vertex 0.866025 -0.5 0
      vertex 1 0 -0.35
      vertex 1 0 0
    endloop
  endfacet
  facet normal 0.965926 -0.25882 0
    outer loop
      vertex 1 0 -0.35
      vertex 0.866025 -0.5 0
      vertex 0.866025 -0.5 -0.35
    endloop
  endfacet
  facet normal -0.707107 0.707107 0
    outer loop
      vertex -0.866025 0.5 -0.35
      vertex -0.5 0.866025 0
      vertex -0.5 0.866025 -0.35
    endloop
  endfacet
  facet normal -0.707107 0.707107 0
    outer loop
      vertex -0.5 0.866025 0
      vertex -0.866025 0.5 -0.35
      vertex -0.866025 0.5 0
    endloop
  endfacet
  facet normal -0.25882 0.965926 0
    outer loop
      vertex 0 1 -0.35
      vertex -0.5 0.866025 0
      vertex 0 1 0
    endloop
  endfacet
  facet normal -0.25882 0.965926 0
    outer loop
      vertex -0.5 0.866025 0
      vertex 0 1 -0.35
      vertex -0.5 0.866025 -0.35
    endloop
  endfacet
  facet normal -0.965926 0.25882 0
    outer loop
      vertex -1 0 -0.35
      vertex -0.866025 0.5 0
      vertex -0.866025 0.5 -0.35
    endloop
  endfacet
  facet normal -0.965926 0.25882 0
    outer loop
      vertex -0.866025 0.5 0
      vertex -1 0 -0.35
      vertex -1 0 0
    endloop
  endfacet
  facet normal 0 0 -1
    outer loop
      vertex 0.725 0.279899 -0.35
      vertex 0.69282 0.4 -0.35
      vertex 0.725 0.316667 -0.35
    endloop
  endfacet
  facet normal 0 0 -1
    outer loop
      vertex 0.866025 -0.5 -0.35
      vertex 0.9 -0.316667 -0.35
      vertex 1 0 -0.35
    endloop
  endfacet
  facet normal 0 0 -1
    outer loop
      vertex 0.866025 -0.5 -0.35
      vertex 0.725 -0.316667 -0.35
      vertex 0.9 -0.316667 -0.35
    endloop
  endfacet
  facet normal -0 0 -1
    outer loop
      vertex 0.725 -0.316667 -0.35
      vertex 0.69282 -0.4 -0.35
      vertex 0.725 -0.279899 -0.35
    endloop
  endfacet
  facet normal 0 0 -1
    outer loop
      vertex 0.866025 -0.5 -0.35
      vertex 0.69282 -0.4 -0.35
      vertex 0.725 -0.316667 -0.35
    endloop
  endfacet
  facet normal 0 0 -1
    outer loop
      vertex 0.5 -0.866025 -0.35
      vertex 0.69282 -0.4 -0.35
      vertex 0.866025 -0.5 -0.35
    endloop
  endfacet
  facet normal 0 0 -1
    outer loop
      vertex 0.5 -0.866025 -0.35
      vertex 0.4 -0.69282 -0.35
      vertex 0.69282 -0.4 -0.35
    endloop
  endfacet
  facet normal 0 0 -1
    outer loop
      vertex 0 -1 -0.35
      vertex 0.4 -0.69282 -0.35
      vertex 0.5 -0.866025 -0.35
    endloop
  endfacet
  facet normal 0 0 -1
    outer loop
      vertex 0 -1 -0.35
      vertex 0 -0.799999 -0.35
      vertex 0.4 -0.69282 -0.35
    endloop
  endfacet
  facet normal 0 0 -1
    outer loop
      vertex 0 -1 -0.35
      vertex -0.4 -0.69282 -0.35
      vertex 0 -0.799999 -0.35
    endloop
  endfacet
  facet normal 0 0 -1
    outer loop
      vertex -0.5 -0.866025 -0.35
      vertex -0.4 -0.69282 -0.35
      vertex 0 -1 -0.35
    endloop
  endfacet
  facet normal 0 0 -1
    outer loop
      vertex -0.5 -0.866025 -0.35
      vertex -0.69282 -0.4 -0.35
      vertex -0.4 -0.69282 -0.35
    endloop
  endfacet
  facet normal 0 0 -1
    outer loop
      vertex -0.866025 -0.5 -0.35
      vertex -0.69282 -0.4 -0.35
      vertex -0.5 -0.866025 -0.35
    endloop
  endfacet
  facet normal 0 0 -1
    outer loop
      vertex -0.866025 -0.5 -0.35
      vertex -0.725 -0.316667 -0.35
      vertex -0.69282 -0.4 -0.35
    endloop
  endfacet
  facet normal 0 0 -1
    outer loop
      vertex -0.866025 -0.5 -0.35
      vertex -0.9 -0.316667 -0.35
      vertex -0.725 -0.316667 -0.35
    endloop
  endfacet
  facet normal 0 0 -1
    outer loop
      vertex -0.9 -0.316667 -0.35
      vertex -1 0 -0.35
      vertex -0.9 0.316667 -0.35
    endloop
  endfacet
  facet normal 0 0 -1
    outer loop
      vertex -1 0 -0.35
      vertex -0.9 -0.316667 -0.35
      vertex -0.866025 -0.5 -0.35
    endloop
  endfacet
  facet normal 0 0 -1
    outer loop
      vertex 0.9 0.316667 -0.35
      vertex 1 0 -0.35
      vertex 0.9 -0.316667 -0.35
    endloop
  endfacet
  facet normal 0 0 -1
    outer loop
      vertex 0.9 0.316667 -0.35
      vertex 0.866025 0.5 -0.35
      vertex 1 0 -0.35
    endloop
  endfacet
  facet normal 0 0 -1
    outer loop
      vertex 0.725 0.316667 -0.35
      vertex 0.866025 0.5 -0.35
      vertex 0.9 0.316667 -0.35
    endloop
  endfacet
  facet normal 0 0 -1
    outer loop
      vertex 0.69282 0.4 -0.35
      vertex 0.866025 0.5 -0.35
      vertex 0.725 0.316667 -0.35
    endloop
  endfacet
  facet normal 0 0 -1
    outer loop
      vertex 0.69282 0.4 -0.35
      vertex 0.5 0.866025 -0.35
      vertex 0.866025 0.5 -0.35
    endloop
  endfacet
  facet normal 0 0 -1
    outer loop
      vertex 0.4 0.69282 -0.35
      vertex 0.5 0.866025 -0.35
      vertex 0.69282 0.4 -0.35
    endloop
  endfacet
  facet normal 0 0 -1
    outer loop
      vertex 0 0.799999 -0.35
      vertex 0.5 0.866025 -0.35
      vertex 0.4 0.69282 -0.35
    endloop
  endfacet
  facet normal 0 0 -1
    outer loop
      vertex 0 0.799999 -0.35
      vertex 0 1 -0.35
      vertex 0.5 0.866025 -0.35
    endloop
  endfacet
  facet normal 0 0 -1
    outer loop
      vertex -0.4 0.69282 -0.35
      vertex 0 1 -0.35
      vertex 0 0.799999 -0.35
    endloop
  endfacet
  facet normal 0 0 -1
    outer loop
      vertex -0.4 0.69282 -0.35
      vertex -0.5 0.866025 -0.35
      vertex 0 1 -0.35
    endloop
  endfacet
  facet normal 0 0 -1
    outer loop
      vertex -0.69282 0.4 -0.35
      vertex -0.5 0.866025 -0.35
      vertex -0.4 0.69282 -0.35
    endloop
  endfacet
  facet normal 0 0 -1
    outer loop
      vertex -0.725 0.316667 -0.35
      vertex -0.69282 0.4 -0.35
      vertex -0.725 0.279899 -0.35
    endloop
  endfacet
  facet normal 0 0 -1
    outer loop
      vertex -0.69282 0.4 -0.35
      vertex -0.866025 0.5 -0.35
      vertex -0.5 0.866025 -0.35
    endloop
  endfacet
  facet normal 0 0 -1
    outer loop
      vertex -0.725 0.316667 -0.35
      vertex -0.866025 0.5 -0.35
      vertex -0.69282 0.4 -0.35
    endloop
  endfacet
  facet normal 0 0 -1
    outer loop
      vertex -0.9 0.316667 -0.35
      vertex -0.866025 0.5 -0.35
      vertex -0.725 0.316667 -0.35
    endloop
  endfacet
  facet normal 0 0 -1
    outer loop
      vertex -0.866025 0.5 -0.35
      vertex -0.9 0.316667 -0.35
      vertex -1 0 -0.35
    endloop
  endfacet
  facet normal 0 0 -1
    outer loop
      vertex -0.69282 -0.4 -0.35
      vertex -0.725 -0.316667 -0.35
      vertex -0.725 -0.279899 -0.35
    endloop
  endfacet
  facet normal 0.707107 -0.707107 0
    outer loop
      vertex 0.5 -0.866025 0
      vertex 0.866025 -0.5 -0.35
      vertex 0.866025 -0.5 0
    endloop
  endfacet
  facet normal 0.707107 -0.707107 0
    outer loop
      vertex 0.866025 -0.5 -0.35
      vertex 0.5 -0.866025 0
      vertex 0.5 -0.866025 -0.35
    endloop
  endfacet
  facet normal -0.707107 -0.707107 0
    outer loop
      vertex -0.5 -0.866025 -0.35
      vertex -0.866025 -0.5 0
      vertex -0.866025 -0.5 -0.35
    endloop
  endfacet
  facet normal -0.707107 -0.707107 0
    outer loop
      vertex -0.866025 -0.5 0
      vertex -0.5 -0.866025 -0.35
      vertex -0.5 -0.866025 0
    endloop
  endfacet
  facet normal -0.25882 -0.965926 0
    outer loop
      vertex -0.5 -0.866025 -0.35
      vertex 0 -1 0
      vertex -0.5 -0.866025 0
    endloop
  endfacet
  facet normal -0.25882 -0.965926 -0
    outer loop
      vertex 0 -1 0
      vertex -0.5 -0.866025 -0.35
      vertex 0 -1 -0.35
    endloop
  endfacet
  facet normal 0.965926 0.25882 0
    outer loop
      vertex -0.799999 0 -0.2
      vertex -0.725 -0.279899 -0.3
      vertex -0.799999 0 -0.3
    endloop
  endfacet
  facet normal 0.965926 0.258818 7.3671e-06
    outer loop
      vertex -0.69282 -0.4 -0.2
      vertex -0.725 -0.279899 -0.3
      vertex -0.799999 0 -0.2
    endloop
  endfacet
  facet normal 0.965928 0.258812 -0
    outer loop
      vertex -0.69282 -0.4 -0.35
      vertex -0.725 -0.279899 -0.3
      vertex -0.69282 -0.4 -0.2
    endloop
  endfacet
  facet normal 0.965928 0.258812 0
    outer loop
      vertex -0.725 -0.279899 -0.3
      vertex -0.69282 -0.4 -0.35
      vertex -0.725 -0.279899 -0.35
    endloop
  endfacet
  facet normal 0.965927 0.258814 0
    outer loop
      vertex -0.799999 0 -0.0999994
      vertex -0.770384 -0.110527 -0.115789
      vertex -0.799999 0 -0.115789
    endloop
  endfacet
  facet normal 0.965926 0.258818 -2.6509e-05
    outer loop
      vertex -0.69282 -0.4 -0.0999994
      vertex -0.770384 -0.110527 -0.115789
      vertex -0.799999 0 -0.0999994
    endloop
  endfacet
  facet normal 0.965926 0.258819 0
    outer loop
      vertex -0.770384 -0.110527 -0.115789
      vertex -0.69282 -0.4 -0.0999994
      vertex -0.69282 -0.4 -0.115789
    endloop
  endfacet
  facet normal -0.707107 -0.707107 0
    outer loop
      vertex 0.69282 0.4 -0.35
      vertex 0.4 0.69282 -0.2
      vertex 0.4 0.69282 -0.35
    endloop
  endfacet
  facet normal -0.707107 -0.707107 0
    outer loop
      vertex 0.4 0.69282 -0.2
      vertex 0.69282 0.4 -0.35
      vertex 0.69282 0.4 -0.2
    endloop
  endfacet
  facet normal -0.707107 -0.707107 -0
    outer loop
      vertex 0.4 0.69282 -0.0999994
      vertex 0.4 0.69282 -0.115789
      vertex 0.69282 0.4 -0.0999994
    endloop
  endfacet
  facet normal -0.707107 -0.707107 -0
    outer loop
      vertex 0.69282 0.4 -0.0999994
      vertex 0.4 0.69282 -0.115789
      vertex 0.69282 0.4 -0.115789
    endloop
  endfacet
  facet normal -0.965928 -0.258812 -0
    outer loop
      vertex 0.725 0.279899 -0.3
      vertex 0.69282 0.4 -0.35
      vertex 0.725 0.279899 -0.35
    endloop
  endfacet
  facet normal -0.965928 -0.258812 0
    outer loop
      vertex 0.69282 0.4 -0.35
      vertex 0.725 0.279899 -0.3
      vertex 0.69282 0.4 -0.2
    endloop
  endfacet
  facet normal -0.965926 -0.25882 -0
    outer loop
      vertex 0.799999 0 -0.2
      vertex 0.725 0.279899 -0.3
      vertex 0.799999 0 -0.3
    endloop
  endfacet
  facet normal -0.965926 -0.258818 7.3671e-06
    outer loop
      vertex 0.725 0.279899 -0.3
      vertex 0.799999 0 -0.2
      vertex 0.69282 0.4 -0.2
    endloop
  endfacet
  facet normal -0.965926 -0.258819 0
    outer loop
      vertex 0.770384 0.110527 -0.115789
      vertex 0.69282 0.4 -0.0999994
      vertex 0.69282 0.4 -0.115789
    endloop
  endfacet
  facet normal -0.965927 -0.258814 -0
    outer loop
      vertex 0.799999 0 -0.0999994
      vertex 0.770384 0.110527 -0.115789
      vertex 0.799999 0 -0.115789
    endloop
  endfacet
  facet normal -0.965926 -0.258818 -2.6509e-05
    outer loop
      vertex 0.770384 0.110527 -0.115789
      vertex 0.799999 0 -0.0999994
      vertex 0.69282 0.4 -0.0999994
    endloop
  endfacet
  facet normal -0.258818 -0.965926 0
    outer loop
      vertex 0 0.799999 -0.35
      vertex 0.4 0.69282 -0.2
      vertex 0 0.799999 -0.2
    endloop
  endfacet
  facet normal -0.258818 -0.965926 -0
    outer loop
      vertex 0.4 0.69282 -0.2
      vertex 0 0.799999 -0.35
      vertex 0.4 0.69282 -0.35
    endloop
  endfacet
  facet normal -0.258818 -0.965926 -2.6509e-05
    outer loop
      vertex 0 0.799999 -0.0999994
      vertex 0.110527 0.770384 -0.115789
      vertex 0.4 0.69282 -0.0999994
    endloop
  endfacet
  facet normal -0.258814 -0.965927 0
    outer loop
      vertex 0.110527 0.770384 -0.115789
      vertex 0 0.799999 -0.0999994
      vertex 0 0.799999 -0.115789
    endloop
  endfacet
  facet normal -0.258819 -0.965926 -0
    outer loop
      vertex 0.4 0.69282 -0.0999994
      vertex 0.110527 0.770384 -0.115789
      vertex 0.4 0.69282 -0.115789
    endloop
  endfacet
  facet normal -0.258818 0.965926 0
    outer loop
      vertex 0.4 -0.69282 -0.35
      vertex 0 -0.799999 -0.2
      vertex 0.4 -0.69282 -0.2
    endloop
  endfacet
  facet normal -0.258818 0.965926 0
    outer loop
      vertex 0 -0.799999 -0.2
      vertex 0.4 -0.69282 -0.35
      vertex 0 -0.799999 -0.35
    endloop
  endfacet
  facet normal -0.258818 0.965926 -2.6509e-05
    outer loop
      vertex 0.4 -0.69282 -0.0999994
      vertex 0.110527 -0.770384 -0.115789
      vertex 0 -0.799999 -0.0999994
    endloop
  endfacet
  facet normal -0.258819 0.965926 0
    outer loop
      vertex 0.110527 -0.770384 -0.115789
      vertex 0.4 -0.69282 -0.0999994
      vertex 0.4 -0.69282 -0.115789
    endloop
  endfacet
  facet normal -0.258814 0.965927 0
    outer loop
      vertex 0 -0.799999 -0.0999994
      vertex 0.110527 -0.770384 -0.115789
      vertex 0 -0.799999 -0.115789
    endloop
  endfacet
  facet normal -0.965928 0.258812 0
    outer loop
      vertex 0.725 -0.279899 -0.35
      vertex 0.69282 -0.4 -0.35
      vertex 0.725 -0.279899 -0.3
    endloop
  endfacet
  facet normal -0.965926 0.25882 0
    outer loop
      vertex 0.725 -0.279899 -0.3
      vertex 0.799999 0 -0.2
      vertex 0.799999 0 -0.3
    endloop
  endfacet
  facet normal -0.965926 0.258818 7.3671e-06
    outer loop
      vertex 0.725 -0.279899 -0.3
      vertex 0.69282 -0.4 -0.2
      vertex 0.799999 0 -0.2
    endloop
  endfacet
  facet normal -0.965928 0.258812 0
    outer loop
      vertex 0.69282 -0.4 -0.2
      vertex 0.725 -0.279899 -0.3
      vertex 0.69282 -0.4 -0.35
    endloop
  endfacet
  facet normal -0.965927 0.258814 0
    outer loop
      vertex 0.770384 -0.110527 -0.115789
      vertex 0.799999 0 -0.0999994
      vertex 0.799999 0 -0.115789
    endloop
  endfacet
  facet normal -0.965926 0.258819 0
    outer loop
      vertex 0.69282 -0.4 -0.0999994
      vertex 0.770384 -0.110527 -0.115789
      vertex 0.69282 -0.4 -0.115789
    endloop
  endfacet
  facet normal -0.965926 0.258818 -2.6509e-05
    outer loop
      vertex 0.770384 -0.110527 -0.115789
      vertex 0.69282 -0.4 -0.0999994
      vertex 0.799999 0 -0.0999994
    endloop
  endfacet
  facet normal 0.707107 -0.707107 0
    outer loop
      vertex -0.69282 0.4 -0.2
      vertex -0.4 0.69282 -0.35
      vertex -0.4 0.69282 -0.2
    endloop
  endfacet
  facet normal 0.707107 -0.707107 0
    outer loop
      vertex -0.4 0.69282 -0.35
      vertex -0.69282 0.4 -0.2
      vertex -0.69282 0.4 -0.35
    endloop
  endfacet
  facet normal 0.707107 -0.707107 0
    outer loop
      vertex -0.4 0.69282 -0.0999994
      vertex -0.69282 0.4 -0.115789
      vertex -0.4 0.69282 -0.115789
    endloop
  endfacet
  facet normal 0.707107 -0.707107 0
    outer loop
      vertex -0.69282 0.4 -0.0999994
      vertex -0.69282 0.4 -0.115789
      vertex -0.4 0.69282 -0.0999994
    endloop
  endfacet
  facet normal 0.258818 -0.965926 0
    outer loop
      vertex -0.4 0.69282 -0.35
      vertex 0 0.799999 -0.2
      vertex -0.4 0.69282 -0.2
    endloop
  endfacet
  facet normal 0.258818 -0.965926 0
    outer loop
      vertex 0 0.799999 -0.2
      vertex -0.4 0.69282 -0.35
      vertex 0 0.799999 -0.35
    endloop
  endfacet
  facet normal 0.258818 -0.965926 -2.6509e-05
    outer loop
      vertex -0.4 0.69282 -0.0999994
      vertex -0.110527 0.770384 -0.115789
      vertex 0 0.799999 -0.0999994
    endloop
  endfacet
  facet normal 0.258819 -0.965926 0
    outer loop
      vertex -0.110527 0.770384 -0.115789
      vertex -0.4 0.69282 -0.0999994
      vertex -0.4 0.69282 -0.115789
    endloop
  endfacet
  facet normal 0.258814 -0.965927 0
    outer loop
      vertex 0 0.799999 -0.0999994
      vertex -0.110527 0.770384 -0.115789
      vertex 0 0.799999 -0.115789
    endloop
  endfacet
  facet normal 0.965928 -0.258812 0
    outer loop
      vertex -0.69282 0.4 -0.2
      vertex -0.725 0.279899 -0.3
      vertex -0.69282 0.4 -0.35
    endloop
  endfacet
  facet normal 0.965926 -0.258818 7.3671e-06
    outer loop
      vertex -0.799999 0 -0.2
      vertex -0.725 0.279899 -0.3
      vertex -0.69282 0.4 -0.2
    endloop
  endfacet
  facet normal 0.965926 -0.25882 0
    outer loop
      vertex -0.725 0.279899 -0.3
      vertex -0.799999 0 -0.2
      vertex -0.799999 0 -0.3
    endloop
  endfacet
  facet normal 0.965928 -0.258812 0
    outer loop
      vertex -0.69282 0.4 -0.35
      vertex -0.725 0.279899 -0.3
      vertex -0.725 0.279899 -0.35
    endloop
  endfacet
  facet normal 0.965926 -0.258819 0
    outer loop
      vertex -0.69282 0.4 -0.0999994
      vertex -0.770384 0.110527 -0.115789
      vertex -0.69282 0.4 -0.115789
    endloop
  endfacet
  facet normal 0.965926 -0.258818 -2.6509e-05
    outer loop
      vertex -0.799999 0 -0.0999994
      vertex -0.770384 0.110527 -0.115789
      vertex -0.69282 0.4 -0.0999994
    endloop
  endfacet
  facet normal 0.965927 -0.258814 0
    outer loop
      vertex -0.770384 0.110527 -0.115789
      vertex -0.799999 0 -0.0999994
      vertex -0.799999 0 -0.115789
    endloop
  endfacet
  facet normal -0.707107 0.707107 0
    outer loop
      vertex 0.4 -0.69282 -0.35
      vertex 0.69282 -0.4 -0.2
      vertex 0.69282 -0.4 -0.35
    endloop
  endfacet
  facet normal -0.707107 0.707107 0
    outer loop
      vertex 0.69282 -0.4 -0.2
      vertex 0.4 -0.69282 -0.35
      vertex 0.4 -0.69282 -0.2
    endloop
  endfacet
  facet normal -0.707107 0.707107 0
    outer loop
      vertex 0.4 -0.69282 -0.115789
      vertex 0.69282 -0.4 -0.0999994
      vertex 0.69282 -0.4 -0.115789
    endloop
  endfacet
  facet normal -0.707107 0.707107 0
    outer loop
      vertex 0.69282 -0.4 -0.0999994
      vertex 0.4 -0.69282 -0.115789
      vertex 0.4 -0.69282 -0.0999994
    endloop
  endfacet
  facet normal 0.707107 0.707107 0
    outer loop
      vertex -0.4 -0.69282 -0.2
      vertex -0.69282 -0.4 -0.35
      vertex -0.69282 -0.4 -0.2
    endloop
  endfacet
  facet normal 0.707107 0.707107 0
    outer loop
      vertex -0.69282 -0.4 -0.35
      vertex -0.4 -0.69282 -0.2
      vertex -0.4 -0.69282 -0.35
    endloop
  endfacet
  facet normal 0.707107 0.707107 0
    outer loop
      vertex -0.4 -0.69282 -0.0999994
      vertex -0.4 -0.69282 -0.115789
      vertex -0.69282 -0.4 -0.0999994
    endloop
  endfacet
  facet normal 0.707107 0.707107 0
    outer loop
      vertex -0.69282 -0.4 -0.0999994
      vertex -0.4 -0.69282 -0.115789
      vertex -0.69282 -0.4 -0.115789
    endloop
  endfacet
  facet normal 0.258818 0.965926 -0
    outer loop
      vertex 0 -0.799999 -0.35
      vertex -0.4 -0.69282 -0.2
      vertex 0 -0.799999 -0.2
    endloop
  endfacet
  facet normal 0.258818 0.965926 0
    outer loop
      vertex -0.4 -0.69282 -0.2
      vertex 0 -0.799999 -0.35
      vertex -0.4 -0.69282 -0.35
    endloop
  endfacet
  facet normal 0.258818 0.965926 -2.6509e-05
    outer loop
      vertex 0 -0.799999 -0.0999994
      vertex -0.110527 -0.770384 -0.115789
      vertex -0.4 -0.69282 -0.0999994
    endloop
  endfacet
  facet normal 0.258814 0.965927 0
    outer loop
      vertex -0.110527 -0.770384 -0.115789
      vertex 0 -0.799999 -0.0999994
      vertex 0 -0.799999 -0.115789
    endloop
  endfacet
  facet normal 0.258819 0.965926 0
    outer loop
      vertex -0.4 -0.69282 -0.0999994
      vertex -0.110527 -0.770384 -0.115789
      vertex -0.4 -0.69282 -0.115789
    endloop
  endfacet
  facet normal -0 0 -1
    outer loop
      vertex 0.799999 0 -0.0999994
      vertex 0.72733 -0.131251 -0.0999994
      vertex 0.762499 0 -0.0999994
    endloop
  endfacet
  facet normal 0 0 -1
    outer loop
      vertex 0.69282 -0.4 -0.0999994
      vertex 0.72733 -0.131251 -0.0999994
      vertex 0.799999 0 -0.0999994
    endloop
  endfacet
  facet normal 0 0 -1
    outer loop
      vertex 0.69282 -0.4 -0.0999994
      vertex 0.660343 -0.381249 -0.0999994
      vertex 0.72733 -0.131251 -0.0999994
    endloop
  endfacet
  facet normal 0 0 -1
    outer loop
      vertex 0.4 -0.69282 -0.0999994
      vertex 0.660343 -0.381249 -0.0999994
      vertex 0.69282 -0.4 -0.0999994
    endloop
  endfacet
  facet normal 0 0 -1
    outer loop
      vertex 0.4 -0.69282 -0.0999994
      vertex 0.381249 -0.660343 -0.0999994
      vertex 0.660343 -0.381249 -0.0999994
    endloop
  endfacet
  facet normal -0 0 -1
    outer loop
      vertex 0.4 -0.69282 -0.0999994
      vertex 0.131251 -0.72733 -0.0999994
      vertex 0.381249 -0.660343 -0.0999994
    endloop
  endfacet
  facet normal 0 0 -1
    outer loop
      vertex 0 -0.799999 -0.0999994
      vertex 0.131251 -0.72733 -0.0999994
      vertex 0.4 -0.69282 -0.0999994
    endloop
  endfacet
  facet normal 0 0 -1
    outer loop
      vertex 0 -0.799999 -0.0999994
      vertex 0 -0.762499 -0.0999994
      vertex 0.131251 -0.72733 -0.0999994
    endloop
  endfacet
  facet normal 0 0 -1
    outer loop
      vertex 0 -0.799999 -0.0999994
      vertex -0.131251 -0.72733 -0.0999994
      vertex 0 -0.762499 -0.0999994
    endloop
  endfacet
  facet normal 0 0 -1
    outer loop
      vertex -0.4 -0.69282 -0.0999994
      vertex -0.131251 -0.72733 -0.0999994
      vertex 0 -0.799999 -0.0999994
    endloop
  endfacet
  facet normal 0 0 -1
    outer loop
      vertex -0.131251 -0.72733 -0.0999994
      vertex -0.4 -0.69282 -0.0999994
      vertex -0.381249 -0.660343 -0.0999994
    endloop
  endfacet
  facet normal 0 0 -1
    outer loop
      vertex -0.4 -0.69282 -0.0999994
      vertex -0.660343 -0.381249 -0.0999994
      vertex -0.381249 -0.660343 -0.0999994
    endloop
  endfacet
  facet normal 0 0 -1
    outer loop
      vertex -0.69282 -0.4 -0.0999994
      vertex -0.660343 -0.381249 -0.0999994
      vertex -0.4 -0.69282 -0.0999994
    endloop
  endfacet
  facet normal 0 0 -1
    outer loop
      vertex -0.69282 -0.4 -0.0999994
      vertex -0.72733 -0.131251 -0.0999994
      vertex -0.660343 -0.381249 -0.0999994
    endloop
  endfacet
  facet normal 0 0 -1
    outer loop
      vertex -0.799999 0 -0.0999994
      vertex -0.72733 -0.131251 -0.0999994
      vertex -0.69282 -0.4 -0.0999994
    endloop
  endfacet
  facet normal 0 0 -1
    outer loop
      vertex -0.72733 -0.131251 -0.0999994
      vertex -0.799999 0 -0.0999994
      vertex -0.762499 0 -0.0999994
    endloop
  endfacet
  facet normal 0 0 -1
    outer loop
      vertex 0.72733 0.131251 -0.0999994
      vertex 0.799999 0 -0.0999994
      vertex 0.762499 0 -0.0999994
    endloop
  endfacet
  facet normal 0 0 -1
    outer loop
      vertex 0.72733 0.131251 -0.0999994
      vertex 0.69282 0.4 -0.0999994
      vertex 0.799999 0 -0.0999994
    endloop
  endfacet
  facet normal 0 0 -1
    outer loop
      vertex 0.660343 0.381249 -0.0999994
      vertex 0.69282 0.4 -0.0999994
      vertex 0.72733 0.131251 -0.0999994
    endloop
  endfacet
  facet normal 0 0 -1
    outer loop
      vertex 0.660343 0.381249 -0.0999994
      vertex 0.4 0.69282 -0.0999994
      vertex 0.69282 0.4 -0.0999994
    endloop
  endfacet
  facet normal 0 0 -1
    outer loop
      vertex 0.381249 0.660343 -0.0999994
      vertex 0.4 0.69282 -0.0999994
      vertex 0.660343 0.381249 -0.0999994
    endloop
  endfacet
  facet normal 0 0 -1
    outer loop
      vertex 0.131251 0.72733 -0.0999994
      vertex 0.4 0.69282 -0.0999994
      vertex 0.381249 0.660343 -0.0999994
    endloop
  endfacet
  facet normal 0 0 -1
    outer loop
      vertex 0 0.799999 -0.0999994
      vertex 0.131251 0.72733 -0.0999994
      vertex 0 0.762499 -0.0999994
    endloop
  endfacet
  facet normal 0 0 -1
    outer loop
      vertex 0.131251 0.72733 -0.0999994
      vertex 0 0.799999 -0.0999994
      vertex 0.4 0.69282 -0.0999994
    endloop
  endfacet
  facet normal 0 0 -1
    outer loop
      vertex -0.131251 0.72733 -0.0999994
      vertex 0 0.799999 -0.0999994
      vertex 0 0.762499 -0.0999994
    endloop
  endfacet
  facet normal 0 0 -1
    outer loop
      vertex -0.4 0.69282 -0.0999994
      vertex -0.131251 0.72733 -0.0999994
      vertex -0.381249 0.660343 -0.0999994
    endloop
  endfacet
  facet normal -0 0 -1
    outer loop
      vertex -0.131251 0.72733 -0.0999994
      vertex -0.4 0.69282 -0.0999994
      vertex 0 0.799999 -0.0999994
    endloop
  endfacet
  facet normal 0 0 -1
    outer loop
      vertex -0.660343 0.381249 -0.0999994
      vertex -0.4 0.69282 -0.0999994
      vertex -0.381249 0.660343 -0.0999994
    endloop
  endfacet
  facet normal 0 0 -1
    outer loop
      vertex -0.660343 0.381249 -0.0999994
      vertex -0.69282 0.4 -0.0999994
      vertex -0.4 0.69282 -0.0999994
    endloop
  endfacet
  facet normal 0 0 -1
    outer loop
      vertex -0.72733 0.131251 -0.0999994
      vertex -0.69282 0.4 -0.0999994
      vertex -0.660343 0.381249 -0.0999994
    endloop
  endfacet
  facet normal 0 0 -1
    outer loop
      vertex -0.799999 0 -0.0999994
      vertex -0.72733 0.131251 -0.0999994
      vertex -0.762499 0 -0.0999994
    endloop
  endfacet
  facet normal -0 0 -1
    outer loop
      vertex -0.72733 0.131251 -0.0999994
      vertex -0.799999 0 -0.0999994
      vertex -0.69282 0.4 -0.0999994
    endloop
  endfacet
  facet normal 0 0 1
    outer loop
      vertex 0.724999 0 0
      vertex 1 0 0
      vertex 0.866025 0.5 0
    endloop
  endfacet
  facet normal 0 0 1
    outer loop
      vertex 1 0 0
      vertex 0.724999 0 0
      vertex 0.866025 -0.5 0
    endloop
  endfacet
  facet normal 0 0 1
    outer loop
      vertex 0.866025 0.5 0
      vertex 0.627868 0.362499 0
      vertex 0.724999 0 0
    endloop
  endfacet
  facet normal 0 0 1
    outer loop
      vertex 0.5 0.866025 0
      vertex 0.627868 0.362499 0
      vertex 0.866025 0.5 0
    endloop
  endfacet
  facet normal 0 0 1
    outer loop
      vertex 0.5 0.866025 0
      vertex 0.362499 0.627868 0
      vertex 0.627868 0.362499 0
    endloop
  endfacet
  facet normal 0 0 1
    outer loop
      vertex 0 1 0
      vertex 0.362499 0.627868 0
      vertex 0.5 0.866025 0
    endloop
  endfacet
  facet normal 0 0 1
    outer loop
      vertex 0 1 0
      vertex 0 0.724999 0
      vertex 0.362499 0.627868 0
    endloop
  endfacet
  facet normal 0 0 1
    outer loop
      vertex 0 1 0
      vertex -0.362499 0.627868 0
      vertex 0 0.724999 0
    endloop
  endfacet
  facet normal -0 0 1
    outer loop
      vertex -0.5 0.866025 0
      vertex -0.362499 0.627868 0
      vertex 0 1 0
    endloop
  endfacet
  facet normal 0 0 1
    outer loop
      vertex -0.5 0.866025 0
      vertex -0.627868 0.362499 0
      vertex -0.362499 0.627868 0
    endloop
  endfacet
  facet normal -0 0 1
    outer loop
      vertex -0.866025 0.5 0
      vertex -0.627868 0.362499 0
      vertex -0.5 0.866025 0
    endloop
  endfacet
  facet normal 0 0 1
    outer loop
      vertex -0.627868 0.362499 0
      vertex -0.866025 0.5 0
      vertex -0.724999 0 0
    endloop
  endfacet
  facet normal -0 0 1
    outer loop
      vertex 0.627868 -0.362499 0
      vertex 0.866025 -0.5 0
      vertex 0.724999 0 0
    endloop
  endfacet
  facet normal 0 0 1
    outer loop
      vertex 0.627868 -0.362499 0
      vertex 0.5 -0.866025 0
      vertex 0.866025 -0.5 0
    endloop
  endfacet
  facet normal -0 0 1
    outer loop
      vertex 0.362499 -0.627868 0
      vertex 0.5 -0.866025 0
      vertex 0.627868 -0.362499 0
    endloop
  endfacet
  facet normal -0 0 1
    outer loop
      vertex 0 -0.724999 0
      vertex 0.5 -0.866025 0
      vertex 0.362499 -0.627868 0
    endloop
  endfacet
  facet normal 0 0 1
    outer loop
      vertex 0 -0.724999 0
      vertex 0 -1 0
      vertex 0.5 -0.866025 0
    endloop
  endfacet
  facet normal 0 0 1
    outer loop
      vertex -0.362499 -0.627868 0
      vertex 0 -1 0
      vertex 0 -0.724999 0
    endloop
  endfacet
  facet normal 0 0 1
    outer loop
      vertex -0.362499 -0.627868 0
      vertex -0.5 -0.866025 0
      vertex 0 -1 0
    endloop
  endfacet
  facet normal 0 0 1
    outer loop
      vertex -0.627868 -0.362499 0
      vertex -0.5 -0.866025 0
      vertex -0.362499 -0.627868 0
    endloop
  endfacet
  facet normal 0 0 1
    outer loop
      vertex -0.866025 -0.5 0
      vertex -0.627868 -0.362499 0
      vertex -0.724999 0 0
    endloop
  endfacet
  facet normal 0 0 1
    outer loop
      vertex -1 0 0
      vertex -0.724999 0 0
      vertex -0.866025 0.5 0
    endloop
  endfacet
  facet normal 0 0 1
    outer loop
      vertex -0.627868 -0.362499 0
      vertex -0.866025 -0.5 0
      vertex -0.5 -0.866025 0
    endloop
  endfacet
  facet normal 0 0 1
    outer loop
      vertex -0.724999 0 0
      vertex -1 0 0
      vertex -0.866025 -0.5 0
    endloop
  endfacet
  facet normal 0.103422 -0.38597 0.916696
    outer loop
      vertex 0 -0.762499 -0.0999994
      vertex 0.110527 -0.770384 -0.115789
      vertex 0.131251 -0.72733 -0.0999994
    endloop
  endfacet
  facet normal 0.103421 -0.385979 0.916692
    outer loop
      vertex 0.110527 -0.770384 -0.115789
      vertex 0 -0.762499 -0.0999994
      vertex 0 -0.799999 -0.115789
    endloop
  endfacet
  facet normal 0.385979 0.103421 0.916692
    outer loop
      vertex 0.770384 0.110527 -0.115789
      vertex 0.762499 0 -0.0999994
      vertex 0.799999 0 -0.115789
    endloop
  endfacet
  facet normal 0.38597 0.103422 0.916696
    outer loop
      vertex 0.762499 0 -0.0999994
      vertex 0.770384 0.110527 -0.115789
      vertex 0.72733 0.131251 -0.0999994
    endloop
  endfacet
  facet normal 0.38597 0.10342 0.916696
    outer loop
      vertex 0.69282 0.4 -0.115789
      vertex 0.72733 0.131251 -0.0999994
      vertex 0.770384 0.110527 -0.115789
    endloop
  endfacet
  facet normal 0.385967 0.10342 0.916697
    outer loop
      vertex 0.72733 0.131251 -0.0999994
      vertex 0.69282 0.4 -0.115789
      vertex 0.660343 0.381249 -0.0999994
    endloop
  endfacet
  facet normal 0.282547 0.282547 0.916698
    outer loop
      vertex 0.4 0.69282 -0.115789
      vertex 0.660343 0.381249 -0.0999994
      vertex 0.69282 0.4 -0.115789
    endloop
  endfacet
  facet normal 0.282547 0.282547 0.916698
    outer loop
      vertex 0.660343 0.381249 -0.0999994
      vertex 0.4 0.69282 -0.115789
      vertex 0.381249 0.660343 -0.0999994
    endloop
  endfacet
  facet normal -0.385967 0.10342 0.916697
    outer loop
      vertex -0.69282 0.4 -0.115789
      vertex -0.72733 0.131251 -0.0999994
      vertex -0.660343 0.381249 -0.0999994
    endloop
  endfacet
  facet normal -0.38597 0.10342 0.916696
    outer loop
      vertex -0.72733 0.131251 -0.0999994
      vertex -0.69282 0.4 -0.115789
      vertex -0.770384 0.110527 -0.115789
    endloop
  endfacet
  facet normal -0.10342 0.38597 0.916696
    outer loop
      vertex -0.4 0.69282 -0.115789
      vertex -0.131251 0.72733 -0.0999994
      vertex -0.110527 0.770384 -0.115789
    endloop
  endfacet
  facet normal -0.10342 0.385967 0.916697
    outer loop
      vertex -0.131251 0.72733 -0.0999994
      vertex -0.4 0.69282 -0.115789
      vertex -0.381249 0.660343 -0.0999994
    endloop
  endfacet
  facet normal -0.103421 -0.385979 0.916692
    outer loop
      vertex 0 -0.762499 -0.0999994
      vertex -0.110527 -0.770384 -0.115789
      vertex 0 -0.799999 -0.115789
    endloop
  endfacet
  facet normal -0.103422 -0.38597 0.916696
    outer loop
      vertex -0.110527 -0.770384 -0.115789
      vertex 0 -0.762499 -0.0999994
      vertex -0.131251 -0.72733 -0.0999994
    endloop
  endfacet
  facet normal -0.38597 0.103422 0.916696
    outer loop
      vertex -0.770384 0.110527 -0.115789
      vertex -0.762499 0 -0.0999994
      vertex -0.72733 0.131251 -0.0999994
    endloop
  endfacet
  facet normal -0.385979 0.103421 0.916692
    outer loop
      vertex -0.762499 0 -0.0999994
      vertex -0.770384 0.110527 -0.115789
      vertex -0.799999 0 -0.115789
    endloop
  endfacet
  facet normal -0.385967 -0.10342 0.916697
    outer loop
      vertex -0.72733 -0.131251 -0.0999994
      vertex -0.69282 -0.4 -0.115789
      vertex -0.660343 -0.381249 -0.0999994
    endloop
  endfacet
  facet normal -0.38597 -0.10342 0.916696
    outer loop
      vertex -0.69282 -0.4 -0.115789
      vertex -0.72733 -0.131251 -0.0999994
      vertex -0.770384 -0.110527 -0.115789
    endloop
  endfacet
  facet normal 0.103421 0.385979 0.916692
    outer loop
      vertex 0 0.762499 -0.0999994
      vertex 0.110527 0.770384 -0.115789
      vertex 0 0.799999 -0.115789
    endloop
  endfacet
  facet normal 0.103422 0.38597 0.916696
    outer loop
      vertex 0.110527 0.770384 -0.115789
      vertex 0 0.762499 -0.0999994
      vertex 0.131251 0.72733 -0.0999994
    endloop
  endfacet
  facet normal 0.385979 -0.103421 0.916692
    outer loop
      vertex 0.762499 0 -0.0999994
      vertex 0.770384 -0.110527 -0.115789
      vertex 0.799999 0 -0.115789
    endloop
  endfacet
  facet normal 0.38597 -0.103422 0.916696
    outer loop
      vertex 0.770384 -0.110527 -0.115789
      vertex 0.762499 0 -0.0999994
      vertex 0.72733 -0.131251 -0.0999994
    endloop
  endfacet
  facet normal 0.10342 0.385967 0.916697
    outer loop
      vertex 0.4 0.69282 -0.115789
      vertex 0.131251 0.72733 -0.0999994
      vertex 0.381249 0.660343 -0.0999994
    endloop
  endfacet
  facet normal 0.10342 0.38597 0.916696
    outer loop
      vertex 0.131251 0.72733 -0.0999994
      vertex 0.4 0.69282 -0.115789
      vertex 0.110527 0.770384 -0.115789
    endloop
  endfacet
  facet normal -0.103421 0.385979 0.916692
    outer loop
      vertex -0.110527 0.770384 -0.115789
      vertex 0 0.762499 -0.0999994
      vertex 0 0.799999 -0.115789
    endloop
  endfacet
  facet normal -0.103422 0.38597 0.916696
    outer loop
      vertex 0 0.762499 -0.0999994
      vertex -0.110527 0.770384 -0.115789
      vertex -0.131251 0.72733 -0.0999994
    endloop
  endfacet
  facet normal 0 0 -1
    outer loop
      vertex 0.525 0 -0.2
      vertex 0.799999 0 -0.2
      vertex 0.69282 -0.4 -0.2
    endloop
  endfacet
  facet normal 0 0 -1
    outer loop
      vertex 0.799999 0 -0.2
      vertex 0.525 0 -0.2
      vertex 0.69282 0.4 -0.2
    endloop
  endfacet
  facet normal 0 0 -1
    outer loop
      vertex 0.69282 -0.4 -0.2
      vertex 0.454663 -0.2625 -0.2
      vertex 0.525 0 -0.2
    endloop
  endfacet
  facet normal 0 0 -1
    outer loop
      vertex 0.4 -0.69282 -0.2
      vertex 0.454663 -0.2625 -0.2
      vertex 0.69282 -0.4 -0.2
    endloop
  endfacet
  facet normal 0 0 -1
    outer loop
      vertex 0.4 -0.69282 -0.2
      vertex 0.2625 -0.454663 -0.2
      vertex 0.454663 -0.2625 -0.2
    endloop
  endfacet
  facet normal 0 0 -1
    outer loop
      vertex 0 -0.799999 -0.2
      vertex 0.2625 -0.454663 -0.2
      vertex 0.4 -0.69282 -0.2
    endloop
  endfacet
  facet normal 0 0 -1
    outer loop
      vertex 0 -0.799999 -0.2
      vertex 0 -0.525 -0.2
      vertex 0.2625 -0.454663 -0.2
    endloop
  endfacet
  facet normal 0 0 -1
    outer loop
      vertex 0 -0.799999 -0.2
      vertex -0.2625 -0.454663 -0.2
      vertex 0 -0.525 -0.2
    endloop
  endfacet
  facet normal 0 0 -1
    outer loop
      vertex -0.4 -0.69282 -0.2
      vertex -0.2625 -0.454663 -0.2
      vertex 0 -0.799999 -0.2
    endloop
  endfacet
  facet normal 0 0 -1
    outer loop
      vertex -0.4 -0.69282 -0.2
      vertex -0.454663 -0.2625 -0.2
      vertex -0.2625 -0.454663 -0.2
    endloop
  endfacet
  facet normal 0 0 -1
    outer loop
      vertex -0.69282 -0.4 -0.2
      vertex -0.454663 -0.2625 -0.2
      vertex -0.4 -0.69282 -0.2
    endloop
  endfacet
  facet normal -0 0 -1
    outer loop
      vertex -0.454663 -0.2625 -0.2
      vertex -0.69282 -0.4 -0.2
      vertex -0.525 0 -0.2
    endloop
  endfacet
  facet normal 0 0 -1
    outer loop
      vertex 0.454663 0.2625 -0.2
      vertex 0.69282 0.4 -0.2
      vertex 0.525 0 -0.2
    endloop
  endfacet
  facet normal 0 0 -1
    outer loop
      vertex 0.454663 0.2625 -0.2
      vertex 0.4 0.69282 -0.2
      vertex 0.69282 0.4 -0.2
    endloop
  endfacet
  facet normal 0 0 -1
    outer loop
      vertex 0.2625 0.454663 -0.2
      vertex 0.4 0.69282 -0.2
      vertex 0.454663 0.2625 -0.2
    endloop
  endfacet
  facet normal 0 0 -1
    outer loop
      vertex 0 0.525 -0.2
      vertex 0.4 0.69282 -0.2
      vertex 0.2625 0.454663 -0.2
    endloop
  endfacet
  facet normal 0 0 -1
    outer loop
      vertex 0 0.525 -0.2
      vertex 0 0.799999 -0.2
      vertex 0.4 0.69282 -0.2
    endloop
  endfacet
  facet normal 0 0 -1
    outer loop
      vertex -0.2625 0.454663 -0.2
      vertex 0 0.799999 -0.2
      vertex 0 0.525 -0.2
    endloop
  endfacet
  facet normal 0 0 -1
    outer loop
      vertex -0.2625 0.454663 -0.2
      vertex -0.4 0.69282 -0.2
      vertex 0 0.799999 -0.2
    endloop
  endfacet
  facet normal 0 0 -1
    outer loop
      vertex -0.454663 0.2625 -0.2
      vertex -0.4 0.69282 -0.2
      vertex -0.2625 0.454663 -0.2
    endloop
  endfacet
  facet normal 0 0 -1
    outer loop
      vertex -0.69282 0.4 -0.2
      vertex -0.454663 0.2625 -0.2
      vertex -0.525 0 -0.2
    endloop
  endfacet
  facet normal 0 0 -1
    outer loop
      vertex -0.799999 0 -0.2
      vertex -0.525 0 -0.2
      vertex -0.69282 -0.4 -0.2
    endloop
  endfacet
  facet normal 0 0 -1
    outer loop
      vertex -0.454663 0.2625 -0.2
      vertex -0.69282 0.4 -0.2
      vertex -0.4 0.69282 -0.2
    endloop
  endfacet
  facet normal 0 0 -1
    outer loop
      vertex -0.525 0 -0.2
      vertex -0.799999 0 -0.2
      vertex -0.69282 0.4 -0.2
    endloop
  endfacet
  facet normal 0.282547 -0.282547 0.916698
    outer loop
      vertex 0.660343 -0.381249 -0.0999994
      vertex 0.4 -0.69282 -0.115789
      vertex 0.69282 -0.4 -0.115789
    endloop
  endfacet
  facet normal 0.282547 -0.282547 0.916698
    outer loop
      vertex 0.4 -0.69282 -0.115789
      vertex 0.660343 -0.381249 -0.0999994
      vertex 0.381249 -0.660343 -0.0999994
    endloop
  endfacet
  facet normal 0.10342 -0.385967 0.916697
    outer loop
      vertex 0.131251 -0.72733 -0.0999994
      vertex 0.4 -0.69282 -0.115789
      vertex 0.381249 -0.660343 -0.0999994
    endloop
  endfacet
  facet normal 0.10342 -0.38597 0.916696
    outer loop
      vertex 0.4 -0.69282 -0.115789
      vertex 0.131251 -0.72733 -0.0999994
      vertex 0.110527 -0.770384 -0.115789
    endloop
  endfacet
  facet normal 0.38597 -0.10342 0.916696
    outer loop
      vertex 0.72733 -0.131251 -0.0999994
      vertex 0.69282 -0.4 -0.115789
      vertex 0.770384 -0.110527 -0.115789
    endloop
  endfacet
  facet normal 0.385967 -0.10342 0.916697
    outer loop
      vertex 0.660343 -0.381249 -0.0999994
      vertex 0.69282 -0.4 -0.115789
      vertex 0.72733 -0.131251 -0.0999994
    endloop
  endfacet
  facet normal -0.38597 -0.103422 0.916696
    outer loop
      vertex -0.762499 0 -0.0999994
      vertex -0.770384 -0.110527 -0.115789
      vertex -0.72733 -0.131251 -0.0999994
    endloop
  endfacet
  facet normal -0.385979 -0.103421 0.916692
    outer loop
      vertex -0.770384 -0.110527 -0.115789
      vertex -0.762499 0 -0.0999994
      vertex -0.799999 0 -0.115789
    endloop
  endfacet
  facet normal -0.282547 -0.282547 0.916698
    outer loop
      vertex -0.660343 -0.381249 -0.0999994
      vertex -0.4 -0.69282 -0.115789
      vertex -0.381249 -0.660343 -0.0999994
    endloop
  endfacet
  facet normal -0.282547 -0.282547 0.916698
    outer loop
      vertex -0.4 -0.69282 -0.115789
      vertex -0.660343 -0.381249 -0.0999994
      vertex -0.69282 -0.4 -0.115789
    endloop
  endfacet
  facet normal -0.282547 0.282547 0.916698
    outer loop
      vertex -0.4 0.69282 -0.115789
      vertex -0.660343 0.381249 -0.0999994
      vertex -0.381249 0.660343 -0.0999994
    endloop
  endfacet
  facet normal -0.282547 0.282547 0.916698
    outer loop
      vertex -0.660343 0.381249 -0.0999994
      vertex -0.4 0.69282 -0.115789
      vertex -0.69282 0.4 -0.115789
    endloop
  endfacet
  facet normal -0.10342 -0.385967 0.916697
    outer loop
      vertex -0.4 -0.69282 -0.115789
      vertex -0.131251 -0.72733 -0.0999994
      vertex -0.381249 -0.660343 -0.0999994
    endloop
  endfacet
  facet normal -0.10342 -0.38597 0.916696
    outer loop
      vertex -0.131251 -0.72733 -0.0999994
      vertex -0.4 -0.69282 -0.115789
      vertex -0.110527 -0.770384 -0.115789
    endloop
  endfacet
  facet normal 0.707107 0.707107 0
    outer loop
      vertex 0.627868 0.362499 0.2
      vertex 0.362499 0.627868 0
      vertex 0.362499 0.627868 0.2
    endloop
  endfacet
  facet normal 0.707107 0.707107 0
    outer loop
      vertex 0.362499 0.627868 0
      vertex 0.627868 0.362499 0.2
      vertex 0.627868 0.362499 0
    endloop
  endfacet
  facet normal 0.965926 0.258818 0
    outer loop
      vertex 0.724999 0 0.2
      vertex 0.627868 0.362499 0
      vertex 0.627868 0.362499 0.2
    endloop
  endfacet
  facet normal 0.965926 0.258818 0
    outer loop
      vertex 0.627868 0.362499 0
      vertex 0.724999 0 0.2
      vertex 0.724999 0 0
    endloop
  endfacet
  facet normal 0.258818 0.965926 -0
    outer loop
      vertex 0.362499 0.627868 0
      vertex 0 0.724999 0.2
      vertex 0.362499 0.627868 0.2
    endloop
  endfacet
  facet normal 0.258818 0.965926 0
    outer loop
      vertex 0 0.724999 0.2
      vertex 0.362499 0.627868 0
      vertex 0 0.724999 0
    endloop
  endfacet
  facet normal -0.965926 -0.258818 0
    outer loop
      vertex -0.627868 -0.362499 0
      vertex -0.724999 0 0.2
      vertex -0.724999 0 0
    endloop
  endfacet
  facet normal -0.965926 -0.258818 0
    outer loop
      vertex -0.724999 0 0.2
      vertex -0.627868 -0.362499 0
      vertex -0.627868 -0.362499 0.2
    endloop
  endfacet
  facet normal 0.965926 -0.258818 0
    outer loop
      vertex 0.627868 -0.362499 0.2
      vertex 0.724999 0 0
      vertex 0.724999 0 0.2
    endloop
  endfacet
  facet normal 0.965926 -0.258818 0
    outer loop
      vertex 0.724999 0 0
      vertex 0.627868 -0.362499 0.2
      vertex 0.627868 -0.362499 0
    endloop
  endfacet
  facet normal -0.258818 0.965926 0
    outer loop
      vertex 0 0.724999 0
      vertex -0.362499 0.627868 0.2
      vertex 0 0.724999 0.2
    endloop
  endfacet
  facet normal -0.258818 0.965926 0
    outer loop
      vertex -0.362499 0.627868 0.2
      vertex 0 0.724999 0
      vertex -0.362499 0.627868 0
    endloop
  endfacet
  facet normal 0.258818 -0.965926 0
    outer loop
      vertex 0 -0.724999 0
      vertex 0.362499 -0.627868 0.2
      vertex 0 -0.724999 0.2
    endloop
  endfacet
  facet normal 0.258818 -0.965926 0
    outer loop
      vertex 0.362499 -0.627868 0.2
      vertex 0 -0.724999 0
      vertex 0.362499 -0.627868 0
    endloop
  endfacet
  facet normal -0.707107 0.707107 0
    outer loop
      vertex -0.627868 0.362499 0
      vertex -0.362499 0.627868 0.2
      vertex -0.362499 0.627868 0
    endloop
  endfacet
  facet normal -0.707107 0.707107 0
    outer loop
      vertex -0.362499 0.627868 0.2
      vertex -0.627868 0.362499 0
      vertex -0.627868 0.362499 0.2
    endloop
  endfacet
  facet normal 0.707107 -0.707107 0
    outer loop
      vertex 0.362499 -0.627868 0.2
      vertex 0.627868 -0.362499 0
      vertex 0.627868 -0.362499 0.2
    endloop
  endfacet
  facet normal 0.707107 -0.707107 0
    outer loop
      vertex 0.627868 -0.362499 0
      vertex 0.362499 -0.627868 0.2
      vertex 0.362499 -0.627868 0
    endloop
  endfacet
  facet normal -0.258818 -0.965926 0
    outer loop
      vertex -0.362499 -0.627868 0
      vertex 0 -0.724999 0.2
      vertex -0.362499 -0.627868 0.2
    endloop
  endfacet
  facet normal -0.258818 -0.965926 -0
    outer loop
      vertex 0 -0.724999 0.2
      vertex -0.362499 -0.627868 0
      vertex 0 -0.724999 0
    endloop
  endfacet
  facet normal -0.707107 -0.707107 0
    outer loop
      vertex -0.362499 -0.627868 0
      vertex -0.627868 -0.362499 0.2
      vertex -0.627868 -0.362499 0
    endloop
  endfacet
  facet normal -0.707107 -0.707107 0
    outer loop
      vertex -0.627868 -0.362499 0.2
      vertex -0.362499 -0.627868 0
      vertex -0.362499 -0.627868 0.2
    endloop
  endfacet
  facet normal -0.965926 0.258818 0
    outer loop
      vertex -0.724999 0 0
      vertex -0.627868 0.362499 0.2
      vertex -0.627868 0.362499 0
    endloop
  endfacet
  facet normal -0.965926 0.258818 0
    outer loop
      vertex -0.627868 0.362499 0.2
      vertex -0.724999 0 0
      vertex -0.724999 0 0.2
    endloop
  endfacet
  facet normal 0 0 1
    outer loop
      vertex 0.525 0 0.2
      vertex 0.724999 0 0.2
      vertex 0.627868 0.362499 0.2
    endloop
  endfacet
  facet normal 0 0 1
    outer loop
      vertex 0.724999 0 0.2
      vertex 0.525 0 0.2
      vertex 0.627868 -0.362499 0.2
    endloop
  endfacet
  facet normal 0 0 1
    outer loop
      vertex 0.627868 0.362499 0.2
      vertex 0.454663 0.2625 0.2
      vertex 0.525 0 0.2
    endloop
  endfacet
  facet normal 0 0 1
    outer loop
      vertex 0.362499 0.627868 0.2
      vertex 0.454663 0.2625 0.2
      vertex 0.627868 0.362499 0.2
    endloop
  endfacet
  facet normal 0 0 1
    outer loop
      vertex 0.362499 0.627868 0.2
      vertex 0.2625 0.454663 0.2
      vertex 0.454663 0.2625 0.2
    endloop
  endfacet
  facet normal 0 0 1
    outer loop
      vertex 0 0.724999 0.2
      vertex 0.2625 0.454663 0.2
      vertex 0.362499 0.627868 0.2
    endloop
  endfacet
  facet normal 0 0 1
    outer loop
      vertex 0 0.724999 0.2
      vertex 0 0.525 0.2
      vertex 0.2625 0.454663 0.2
    endloop
  endfacet
  facet normal 0 0 1
    outer loop
      vertex 0 0.724999 0.2
      vertex -0.2625 0.454663 0.2
      vertex 0 0.525 0.2
    endloop
  endfacet
  facet normal -0 0 1
    outer loop
      vertex -0.362499 0.627868 0.2
      vertex -0.2625 0.454663 0.2
      vertex 0 0.724999 0.2
    endloop
  endfacet
  facet normal 0 0 1
    outer loop
      vertex -0.362499 0.627868 0.2
      vertex -0.454663 0.2625 0.2
      vertex -0.2625 0.454663 0.2
    endloop
  endfacet
  facet normal -0 0 1
    outer loop
      vertex -0.627868 0.362499 0.2
      vertex -0.454663 0.2625 0.2
      vertex -0.362499 0.627868 0.2
    endloop
  endfacet
  facet normal 0 0 1
    outer loop
      vertex -0.454663 0.2625 0.2
      vertex -0.627868 0.362499 0.2
      vertex -0.525 0 0.2
    endloop
  endfacet
  facet normal -0 0 1
    outer loop
      vertex 0.454663 -0.2625 0.2
      vertex 0.627868 -0.362499 0.2
      vertex 0.525 0 0.2
    endloop
  endfacet
  facet normal 0 0 1
    outer loop
      vertex 0.454663 -0.2625 0.2
      vertex 0.362499 -0.627868 0.2
      vertex 0.627868 -0.362499 0.2
    endloop
  endfacet
  facet normal -0 0 1
    outer loop
      vertex 0.2625 -0.454663 0.2
      vertex 0.362499 -0.627868 0.2
      vertex 0.454663 -0.2625 0.2
    endloop
  endfacet
  facet normal -0 0 1
    outer loop
      vertex 0 -0.525 0.2
      vertex 0.362499 -0.627868 0.2
      vertex 0.2625 -0.454663 0.2
    endloop
  endfacet
  facet normal 0 0 1
    outer loop
      vertex 0 -0.525 0.2
      vertex 0 -0.724999 0.2
      vertex 0.362499 -0.627868 0.2
    endloop
  endfacet
  facet normal 0 0 1
    outer loop
      vertex -0.2625 -0.454663 0.2
      vertex 0 -0.724999 0.2
      vertex 0 -0.525 0.2
    endloop
  endfacet
  facet normal 0 0 1
    outer loop
      vertex -0.2625 -0.454663 0.2
      vertex -0.362499 -0.627868 0.2
      vertex 0 -0.724999 0.2
    endloop
  endfacet
  facet normal 0 0 1
    outer loop
      vertex -0.454663 -0.2625 0.2
      vertex -0.362499 -0.627868 0.2
      vertex -0.2625 -0.454663 0.2
    endloop
  endfacet
  facet normal 0 0 1
    outer loop
      vertex -0.627868 -0.362499 0.2
      vertex -0.454663 -0.2625 0.2
      vertex -0.525 0 0.2
    endloop
  endfacet
  facet normal 0 0 1
    outer loop
      vertex -0.724999 0 0.2
      vertex -0.525 0 0.2
      vertex -0.627868 0.362499 0.2
    endloop
  endfacet
  facet normal 0 0 1
    outer loop
      vertex -0.454663 -0.2625 0.2
      vertex -0.627868 -0.362499 0.2
      vertex -0.362499 -0.627868 0.2
    endloop
  endfacet
  facet normal 0 0 1
    outer loop
      vertex -0.525 0 0.2
      vertex -0.724999 0 0.2
      vertex -0.627868 -0.362499 0.2
    endloop
  endfacet
  facet normal -0.707107 -0.707107 0
    outer loop
      vertex 0.454663 0.2625 -0.2
      vertex 0.2625 0.454663 0.2
      vertex 0.2625 0.454663 -0.2
    endloop
  endfacet
  facet normal -0.707107 -0.707107 0
    outer loop
      vertex 0.2625 0.454663 0.2
      vertex 0.454663 0.2625 -0.2
      vertex 0.454663 0.2625 0.2
    endloop
  endfacet
  facet normal -0.965926 -0.25882 0
    outer loop
      vertex 0.525 0 -0.2
      vertex 0.454663 0.2625 0.2
      vertex 0.454663 0.2625 -0.2
    endloop
  endfacet
  facet normal -0.965926 -0.25882 0
    outer loop
      vertex 0.454663 0.2625 0.2
      vertex 0.525 0 -0.2
      vertex 0.525 0 0.2
    endloop
  endfacet
  facet normal 0.965926 0.25882 0
    outer loop
      vertex -0.454663 -0.2625 0.2
      vertex -0.525 0 -0.2
      vertex -0.525 0 0.2
    endloop
  endfacet
  facet normal 0.965926 0.25882 0
    outer loop
      vertex -0.525 0 -0.2
      vertex -0.454663 -0.2625 0.2
      vertex -0.454663 -0.2625 -0.2
    endloop
  endfacet
  facet normal 0.707107 -0.707107 0
    outer loop
      vertex -0.454663 0.2625 0.2
      vertex -0.2625 0.454663 -0.2
      vertex -0.2625 0.454663 0.2
    endloop
  endfacet
  facet normal 0.707107 -0.707107 0
    outer loop
      vertex -0.2625 0.454663 -0.2
      vertex -0.454663 0.2625 0.2
      vertex -0.454663 0.2625 -0.2
    endloop
  endfacet
  facet normal -0.965926 0.25882 0
    outer loop
      vertex 0.454663 -0.2625 -0.2
      vertex 0.525 0 0.2
      vertex 0.525 0 -0.2
    endloop
  endfacet
  facet normal -0.965926 0.25882 0
    outer loop
      vertex 0.525 0 0.2
      vertex 0.454663 -0.2625 -0.2
      vertex 0.454663 -0.2625 0.2
    endloop
  endfacet
  facet normal 0.965926 -0.25882 0
    outer loop
      vertex -0.525 0 0.2
      vertex -0.454663 0.2625 -0.2
      vertex -0.454663 0.2625 0.2
    endloop
  endfacet
  facet normal 0.965926 -0.25882 0
    outer loop
      vertex -0.454663 0.2625 -0.2
      vertex -0.525 0 0.2
      vertex -0.525 0 -0.2
    endloop
  endfacet
  facet normal -0.707107 0.707107 0
    outer loop
      vertex 0.2625 -0.454663 -0.2
      vertex 0.454663 -0.2625 0.2
      vertex 0.454663 -0.2625 -0.2
    endloop
  endfacet
  facet normal -0.707107 0.707107 0
    outer loop
      vertex 0.454663 -0.2625 0.2
      vertex 0.2625 -0.454663 -0.2
      vertex 0.2625 -0.454663 0.2
    endloop
  endfacet
  facet normal -0.25882 -0.965926 0
    outer loop
      vertex 0 0.525 -0.2
      vertex 0.2625 0.454663 0.2
      vertex 0 0.525 0.2
    endloop
  endfacet
  facet normal -0.25882 -0.965926 -0
    outer loop
      vertex 0.2625 0.454663 0.2
      vertex 0 0.525 -0.2
      vertex 0.2625 0.454663 -0.2
    endloop
  endfacet
  facet normal -0.25882 0.965926 0
    outer loop
      vertex 0.2625 -0.454663 -0.2
      vertex 0 -0.525 0.2
      vertex 0.2625 -0.454663 0.2
    endloop
  endfacet
  facet normal -0.25882 0.965926 0
    outer loop
      vertex 0 -0.525 0.2
      vertex 0.2625 -0.454663 -0.2
      vertex 0 -0.525 -0.2
    endloop
  endfacet
  facet normal 0.707107 0.707107 0
    outer loop
      vertex -0.2625 -0.454663 0.2
      vertex -0.454663 -0.2625 -0.2
      vertex -0.454663 -0.2625 0.2
    endloop
  endfacet
  facet normal 0.707107 0.707107 0
    outer loop
      vertex -0.454663 -0.2625 -0.2
      vertex -0.2625 -0.454663 0.2
      vertex -0.2625 -0.454663 -0.2
    endloop
  endfacet
  facet normal 0.25882 -0.965926 0
    outer loop
      vertex -0.2625 0.454663 -0.2
      vertex 0 0.525 0.2
      vertex -0.2625 0.454663 0.2
    endloop
  endfacet
  facet normal 0.25882 -0.965926 0
    outer loop
      vertex 0 0.525 0.2
      vertex -0.2625 0.454663 -0.2
      vertex 0 0.525 -0.2
    endloop
  endfacet
  facet normal 0.25882 0.965926 -0
    outer loop
      vertex 0 -0.525 -0.2
      vertex -0.2625 -0.454663 0.2
      vertex 0 -0.525 0.2
    endloop
  endfacet
  facet normal 0.25882 0.965926 0
    outer loop
      vertex -0.2625 -0.454663 0.2
      vertex 0 -0.525 -0.2
      vertex -0.2625 -0.454663 -0.2
    endloop
  endfacet
  facet normal 0 0.258838 -0.965921
    outer loop
      vertex -0.9 -0.108333 -1.16236
      vertex -0.725 0 -1.13333
      vertex -0.725 -0.108333 -1.16236
    endloop
  endfacet
  facet normal 0 0.258838 -0.965921
    outer loop
      vertex -0.725 0 -1.13333
      vertex -0.9 -0.108333 -1.16236
      vertex -0.9 0 -1.13333
    endloop
  endfacet
  facet normal 0 0.258838 -0.965921
    outer loop
      vertex 0.725 -0.108333 -1.16236
      vertex 0.9 0 -1.13333
      vertex 0.9 -0.108333 -1.16236
    endloop
  endfacet
  facet normal 0 0.258838 -0.965921
    outer loop
      vertex 0.9 0 -1.13333
      vertex 0.725 -0.108333 -1.16236
      vertex 0.725 0 -1.13333
    endloop
  endfacet
  facet normal 0 -0.965923 0.258828
    outer loop
      vertex -0.9 0.187638 -1.45833
      vertex -0.725 0.216666 -1.35
      vertex -0.9 0.216666 -1.35
    endloop
  endfacet
  facet normal 0 -0.965923 0.258828
    outer loop
      vertex -0.725 0.216666 -1.35
      vertex -0.9 0.187638 -1.45833
      vertex -0.725 0.187638 -1.45833
    endloop
  endfacet
  facet normal 0 -0.965923 0.258828
    outer loop
      vertex 0.725 0.187638 -1.45833
      vertex 0.9 0.216666 -1.35
      vertex 0.725 0.216666 -1.35
    endloop
  endfacet
  facet normal 0 -0.965923 0.258828
    outer loop
      vertex 0.9 0.216666 -1.35
      vertex 0.725 0.187638 -1.45833
      vertex 0.9 0.187638 -1.45833
    endloop
  endfacet
  facet normal -0 0.258838 0.965921
    outer loop
      vertex -0.9 0 -1.56667
      vertex -0.725 -0.108333 -1.53764
      vertex -0.725 0 -1.56667
    endloop
  endfacet
  facet normal 0 0.258838 0.965921
    outer loop
      vertex -0.725 -0.108333 -1.53764
      vertex -0.9 0 -1.56667
      vertex -0.9 -0.108333 -1.53764
    endloop
  endfacet
  facet normal -0 0.258838 0.965921
    outer loop
      vertex 0.725 0 -1.56667
      vertex 0.9 -0.108333 -1.53764
      vertex 0.9 0 -1.56667
    endloop
  endfacet
  facet normal 0 0.258838 0.965921
    outer loop
      vertex 0.9 -0.108333 -1.53764
      vertex 0.725 0 -1.56667
      vertex 0.725 -0.108333 -1.53764
    endloop
  endfacet
  facet normal 0 0.965923 0.258828
    outer loop
      vertex -0.725 -0.187638 -1.45833
      vertex -0.9 -0.216666 -1.35
      vertex -0.725 -0.216666 -1.35
    endloop
  endfacet
  facet normal 0 0.965923 0.258828
    outer loop
      vertex -0.9 -0.216666 -1.35
      vertex -0.725 -0.187638 -1.45833
      vertex -0.9 -0.187638 -1.45833
    endloop
  endfacet
  facet normal 0 0.965923 0.258828
    outer loop
      vertex 0.9 -0.187638 -1.45833
      vertex 0.725 -0.216666 -1.35
      vertex 0.9 -0.216666 -1.35
    endloop
  endfacet
  facet normal 0 0.965923 0.258828
    outer loop
      vertex 0.725 -0.216666 -1.35
      vertex 0.9 -0.187638 -1.45833
      vertex 0.725 -0.187638 -1.45833
    endloop
  endfacet
  facet normal 0 -0.707129 -0.707084
    outer loop
      vertex -0.9 0.187638 -1.24167
      vertex -0.725 0.108333 -1.16236
      vertex -0.9 0.108333 -1.16236
    endloop
  endfacet
  facet normal 0 -0.707129 -0.707084
    outer loop
      vertex -0.725 0.108333 -1.16236
      vertex -0.9 0.187638 -1.24167
      vertex -0.725 0.187638 -1.24167
    endloop
  endfacet
  facet normal 0 -0.707129 -0.707084
    outer loop
      vertex 0.725 0.187638 -1.24167
      vertex 0.9 0.108333 -1.16236
      vertex 0.725 0.108333 -1.16236
    endloop
  endfacet
  facet normal 0 -0.707129 -0.707084
    outer loop
      vertex 0.9 0.108333 -1.16236
      vertex 0.725 0.187638 -1.24167
      vertex 0.9 0.187638 -1.24167
    endloop
  endfacet
  facet normal 0 -0.258838 0.965921
    outer loop
      vertex -0.9 0.108333 -1.53764
      vertex -0.725 0 -1.56667
      vertex -0.725 0.108333 -1.53764
    endloop
  endfacet
  facet normal 0 -0.258838 0.965921
    outer loop
      vertex -0.725 0 -1.56667
      vertex -0.9 0.108333 -1.53764
      vertex -0.9 0 -1.56667
    endloop
  endfacet
  facet normal 0 -0.258838 0.965921
    outer loop
      vertex 0.725 0.108333 -1.53764
      vertex 0.9 0 -1.56667
      vertex 0.9 0.108333 -1.53764
    endloop
  endfacet
  facet normal 0 -0.258838 0.965921
    outer loop
      vertex 0.9 0 -1.56667
      vertex 0.725 0.108333 -1.53764
      vertex 0.725 0 -1.56667
    endloop
  endfacet
  facet normal 0 -0.965923 -0.258828
    outer loop
      vertex -0.9 0.216666 -1.35
      vertex -0.725 0.187638 -1.24167
      vertex -0.9 0.187638 -1.24167
    endloop
  endfacet
  facet normal 0 -0.965923 -0.258828
    outer loop
      vertex -0.725 0.187638 -1.24167
      vertex -0.9 0.216666 -1.35
      vertex -0.725 0.216666 -1.35
    endloop
  endfacet
  facet normal 0 -0.965923 -0.258828
    outer loop
      vertex 0.725 0.216666 -1.35
      vertex 0.9 0.187638 -1.24167
      vertex 0.725 0.187638 -1.24167
    endloop
  endfacet
  facet normal 0 -0.965923 -0.258828
    outer loop
      vertex 0.9 0.187638 -1.24167
      vertex 0.725 0.216666 -1.35
      vertex 0.9 0.216666 -1.35
    endloop
  endfacet
  facet normal 0 -0.707129 0.707084
    outer loop
      vertex -0.9 0.108333 -1.53764
      vertex -0.725 0.187638 -1.45833
      vertex -0.9 0.187638 -1.45833
    endloop
  endfacet
  facet normal 0 -0.707129 0.707084
    outer loop
      vertex -0.725 0.187638 -1.45833
      vertex -0.9 0.108333 -1.53764
      vertex -0.725 0.108333 -1.53764
    endloop
  endfacet
  facet normal 0 -0.707129 0.707084
    outer loop
      vertex 0.725 0.108333 -1.53764
      vertex 0.9 0.187638 -1.45833
      vertex 0.725 0.187638 -1.45833
    endloop
  endfacet
  facet normal 0 -0.707129 0.707084
    outer loop
      vertex 0.9 0.187638 -1.45833
      vertex 0.725 0.108333 -1.53764
      vertex 0.9 0.108333 -1.53764
    endloop
  endfacet
  facet normal 0 -0.258838 -0.965921
    outer loop
      vertex -0.9 0 -1.13333
      vertex -0.725 0.108333 -1.16236
      vertex -0.725 0 -1.13333
    endloop
  endfacet
  facet normal -0 -0.258838 -0.965921
    outer loop
      vertex -0.725 0.108333 -1.16236
      vertex -0.9 0 -1.13333
      vertex -0.9 0.108333 -1.16236
    endloop
  endfacet
  facet normal 0 -0.258838 -0.965921
    outer loop
      vertex 0.725 0 -1.13333
      vertex 0.9 0.108333 -1.16236
      vertex 0.9 0 -1.13333
    endloop
  endfacet
  facet normal -0 -0.258838 -0.965921
    outer loop
      vertex 0.9 0.108333 -1.16236
      vertex 0.725 0 -1.13333
      vertex 0.725 0.108333 -1.16236
    endloop
  endfacet
  facet normal 0 0.707129 0.707084
    outer loop
      vertex -0.725 -0.108333 -1.53764
      vertex -0.9 -0.187638 -1.45833
      vertex -0.725 -0.187638 -1.45833
    endloop
  endfacet
  facet normal 0 0.707129 0.707084
    outer loop
      vertex -0.9 -0.187638 -1.45833
      vertex -0.725 -0.108333 -1.53764
      vertex -0.9 -0.108333 -1.53764
    endloop
  endfacet
  facet normal 0 0.707129 0.707084
    outer loop
      vertex 0.9 -0.108333 -1.53764
      vertex 0.725 -0.187638 -1.45833
      vertex 0.9 -0.187638 -1.45833
    endloop
  endfacet
  facet normal 0 0.707129 0.707084
    outer loop
      vertex 0.725 -0.187638 -1.45833
      vertex 0.9 -0.108333 -1.53764
      vertex 0.725 -0.108333 -1.53764
    endloop
  endfacet
  facet normal 0 0.707129 -0.707084
    outer loop
      vertex -0.725 -0.187638 -1.24167
      vertex -0.9 -0.108333 -1.16236
      vertex -0.725 -0.108333 -1.16236
    endloop
  endfacet
  facet normal 0 0.707129 -0.707084
    outer loop
      vertex -0.9 -0.108333 -1.16236
      vertex -0.725 -0.187638 -1.24167
      vertex -0.9 -0.187638 -1.24167
    endloop
  endfacet
  facet normal 0 0.707129 -0.707084
    outer loop
      vertex 0.9 -0.187638 -1.24167
      vertex 0.725 -0.108333 -1.16236
      vertex 0.9 -0.108333 -1.16236
    endloop
  endfacet
  facet normal 0 0.707129 -0.707084
    outer loop
      vertex 0.725 -0.108333 -1.16236
      vertex 0.9 -0.187638 -1.24167
      vertex 0.725 -0.187638 -1.24167
    endloop
  endfacet
  facet normal 0 0.965923 -0.258828
    outer loop
      vertex -0.725 -0.216666 -1.35
      vertex -0.9 -0.187638 -1.24167
      vertex -0.725 -0.187638 -1.24167
    endloop
  endfacet
  facet normal 0 0.965923 -0.258828
    outer loop
      vertex -0.9 -0.187638 -1.24167
      vertex -0.725 -0.216666 -1.35
      vertex -0.9 -0.216666 -1.35
    endloop
  endfacet
  facet normal 0 0.965923 -0.258828
    outer loop
      vertex 0.9 -0.216666 -1.35
      vertex 0.725 -0.187638 -1.24167
      vertex 0.9 -0.187638 -1.24167
    endloop
  endfacet
  facet normal 0 0.965923 -0.258828
    outer loop
      vertex 0.725 -0.187638 -1.24167
      vertex 0.9 -0.216666 -1.35
      vertex 0.725 -0.216666 -1.35
    endloop
  endfacet
endsolid OpenSCAD_Model
