solid OpenSCAD_Model
  facet normal -0.965926 -0.25882 0
    outer loop
      vertex -0.866025 -0.5 0
      vertex -1 0 3.3134
      vertex -1 0 0
    endloop
  endfacet
  facet normal -0.965926 -0.25882 0
    outer loop
      vertex -1 0 3.3134
      vertex -0.866025 -0.5 0
      vertex -0.866025 -0.5 3.3134
    endloop
  endfacet
  facet normal 0.707107 0.707107 0
    outer loop
      vertex 0.866025 0.5 3.3134
      vertex 0.5 0.866025 0
      vertex 0.5 0.866025 3.3134
    endloop
  endfacet
  facet normal 0.707107 0.707107 0
    outer loop
      vertex 0.5 0.866025 0
      vertex 0.866025 0.5 3.3134
      vertex 0.866025 0.5 0
    endloop
  endfacet
  facet normal 0.965926 0.25882 0
    outer loop
      vertex 1 0 3.3134
      vertex 0.866025 0.5 0
      vertex 0.866025 0.5 3.3134
    endloop
  endfacet
  facet normal 0.965926 0.25882 0
    outer loop
      vertex 0.866025 0.5 0
      vertex 1 0 3.3134
      vertex 1 0 0
    endloop
  endfacet
  facet normal 0.25882 0.965926 -0
    outer loop
      vertex 0.5 0.866025 0
      vertex 0 1 3.3134
      vertex 0.5 0.866025 3.3134
    endloop
  endfacet
  facet normal 0.25882 0.965926 0
    outer loop
      vertex 0 1 3.3134
      vertex 0.5 0.866025 0
      vertex 0 1 0
    endloop
  endfacet
  facet normal 0.25882 -0.965926 0
    outer loop
      vertex 0 -1 0
      vertex 0.5 -0.866025 3.3134
      vertex 0 -1 3.3134
    endloop
  endfacet
  facet normal 0.25882 -0.965926 0
    outer loop
      vertex 0.5 -0.866025 3.3134
      vertex 0 -1 0
      vertex 0.5 -0.866025 0
    endloop
  endfacet
  facet normal 0.965926 -0.25882 0
    outer loop
      vertex 0.866025 -0.5 3.3134
      vertex 1 0 0
      vertex 1 0 3.3134
    endloop
  endfacet
  facet normal 0.965926 -0.25882 0
    outer loop
      vertex 1 0 0
      vertex 0.866025 -0.5 3.3134
      vertex 0.866025 -0.5 0
    endloop
  endfacet
  facet normal -0.707107 0.707107 0
    outer loop
      vertex -0.866025 0.5 0
      vertex -0.5 0.866025 3.3134
      vertex -0.5 0.866025 0
    endloop
  endfacet
  facet normal -0.707107 0.707107 0
    outer loop
      vertex -0.5 0.866025 3.3134
      vertex -0.866025 0.5 0
      vertex -0.866025 0.5 3.3134
    endloop
  endfacet
  facet normal -0.25882 0.965926 0
    outer loop
      vertex 0 1 0
      vertex -0.5 0.866025 3.3134
      vertex 0 1 3.3134
    endloop
  endfacet
  facet normal -0.25882 0.965926 0
    outer loop
      vertex -0.5 0.866025 3.3134
      vertex 0 1 0
      vertex -0.5 0.866025 0
    endloop
  endfacet
  facet normal -0.965926 0.25882 0
    outer loop
      vertex -1 0 0
      vertex -0.866025 0.5 3.3134
      vertex -0.866025 0.5 0
    endloop
  endfacet
  facet normal -0.965926 0.25882 0
    outer loop
      vertex -0.866025 0.5 3.3134
      vertex -1 0 0
      vertex -1 0 3.3134
    endloop
  endfacet
  facet normal 0.707107 -0.707107 0
    outer loop
      vertex 0.5 -0.866025 3.3134
      vertex 0.866025 -0.5 0
      vertex 0.866025 -0.5 3.3134
    endloop
  endfacet
  facet normal 0.707107 -0.707107 0
    outer loop
      vertex 0.866025 -0.5 0
      vertex 0.5 -0.866025 3.3134
      vertex 0.5 -0.866025 0
    endloop
  endfacet
  facet normal 0 0 1
    outer loop
      vertex -0.0499992 -0.786602 3.3134
      vertex -0.4 -0.69282 3.3134
      vertex -0.0499992 -0.9 3.3134
    endloop
  endfacet
  facet normal 0 0 1
    outer loop
      vertex 0.799999 0 3.3134
      vertex 1 0 3.3134
      vertex 0.866025 0.5 3.3134
    endloop
  endfacet
  facet normal 0 0 1
    outer loop
      vertex 1 0 3.3134
      vertex 0.799999 0 3.3134
      vertex 0.866025 -0.5 3.3134
    endloop
  endfacet
  facet normal 0 0 1
    outer loop
      vertex 0.866025 0.5 3.3134
      vertex 0.69282 0.4 3.3134
      vertex 0.799999 0 3.3134
    endloop
  endfacet
  facet normal 0 0 1
    outer loop
      vertex 0.5 0.866025 3.3134
      vertex 0.69282 0.4 3.3134
      vertex 0.866025 0.5 3.3134
    endloop
  endfacet
  facet normal 0 0 1
    outer loop
      vertex 0.5 0.866025 3.3134
      vertex 0.4 0.69282 3.3134
      vertex 0.69282 0.4 3.3134
    endloop
  endfacet
  facet normal 0 0 1
    outer loop
      vertex 0.5 0.866025 3.3134
      vertex 0.0499992 0.9 3.3134
      vertex 0.4 0.69282 3.3134
    endloop
  endfacet
  facet normal 0 0 1
    outer loop
      vertex 0 1 3.3134
      vertex 0.0499992 0.9 3.3134
      vertex 0.5 0.866025 3.3134
    endloop
  endfacet
  facet normal 0 0 1
    outer loop
      vertex 0 1 3.3134
      vertex -0.0499992 0.9 3.3134
      vertex 0.0499992 0.9 3.3134
    endloop
  endfacet
  facet normal 0 0 1
    outer loop
      vertex -0.0499992 0.9 3.3134
      vertex -0.4 0.69282 3.3134
      vertex -0.0499992 0.786602 3.3134
    endloop
  endfacet
  facet normal 0 0 1
    outer loop
      vertex -0.5 0.866025 3.3134
      vertex -0.0499992 0.9 3.3134
      vertex 0 1 3.3134
    endloop
  endfacet
  facet normal 0 0 1
    outer loop
      vertex -0.0499992 0.9 3.3134
      vertex -0.5 0.866025 3.3134
      vertex -0.4 0.69282 3.3134
    endloop
  endfacet
  facet normal 0 0 1
    outer loop
      vertex -0.5 0.866025 3.3134
      vertex -0.69282 0.4 3.3134
      vertex -0.4 0.69282 3.3134
    endloop
  endfacet
  facet normal 0 0 1
    outer loop
      vertex -0.69282 0.4 3.3134
      vertex -0.866025 0.5 3.3134
      vertex -0.799999 0 3.3134
    endloop
  endfacet
  facet normal -0 0 1
    outer loop
      vertex -0.866025 0.5 3.3134
      vertex -0.69282 0.4 3.3134
      vertex -0.5 0.866025 3.3134
    endloop
  endfacet
  facet normal -0 0 1
    outer loop
      vertex 0.69282 -0.4 3.3134
      vertex 0.866025 -0.5 3.3134
      vertex 0.799999 0 3.3134
    endloop
  endfacet
  facet normal 0 0 1
    outer loop
      vertex 0.69282 -0.4 3.3134
      vertex 0.5 -0.866025 3.3134
      vertex 0.866025 -0.5 3.3134
    endloop
  endfacet
  facet normal -0 0 1
    outer loop
      vertex 0.4 -0.69282 3.3134
      vertex 0.5 -0.866025 3.3134
      vertex 0.69282 -0.4 3.3134
    endloop
  endfacet
  facet normal 0 0 1
    outer loop
      vertex 0.0499992 -0.9 3.3134
      vertex 0.4 -0.69282 3.3134
      vertex 0.0499992 -0.786602 3.3134
    endloop
  endfacet
  facet normal 0 0 1
    outer loop
      vertex 0.4 -0.69282 3.3134
      vertex 0.0499992 -0.9 3.3134
      vertex 0.5 -0.866025 3.3134
    endloop
  endfacet
  facet normal -0 0 1
    outer loop
      vertex 0.0499992 -0.9 3.3134
      vertex 0 -1 3.3134
      vertex 0.5 -0.866025 3.3134
    endloop
  endfacet
  facet normal -0 0 1
    outer loop
      vertex -0.0499992 -0.9 3.3134
      vertex 0 -1 3.3134
      vertex 0.0499992 -0.9 3.3134
    endloop
  endfacet
  facet normal -0 0 1
    outer loop
      vertex -0.5 -0.866025 3.3134
      vertex -0.0499992 -0.9 3.3134
      vertex -0.4 -0.69282 3.3134
    endloop
  endfacet
  facet normal 0 0 1
    outer loop
      vertex -0.0499992 -0.9 3.3134
      vertex -0.5 -0.866025 3.3134
      vertex 0 -1 3.3134
    endloop
  endfacet
  facet normal 0 0 1
    outer loop
      vertex -0.69282 -0.4 3.3134
      vertex -0.5 -0.866025 3.3134
      vertex -0.4 -0.69282 3.3134
    endloop
  endfacet
  facet normal 0 0 1
    outer loop
      vertex -0.69282 -0.4 3.3134
      vertex -0.866025 -0.5 3.3134
      vertex -0.5 -0.866025 3.3134
    endloop
  endfacet
  facet normal 0 0 1
    outer loop
      vertex -0.799999 0 3.3134
      vertex -0.866025 -0.5 3.3134
      vertex -0.69282 -0.4 3.3134
    endloop
  endfacet
  facet normal 0 0 1
    outer loop
      vertex -1 0 3.3134
      vertex -0.799999 0 3.3134
      vertex -0.866025 0.5 3.3134
    endloop
  endfacet
  facet normal 0 0 1
    outer loop
      vertex -0.799999 0 3.3134
      vertex -1 0 3.3134
      vertex -0.866025 -0.5 3.3134
    endloop
  endfacet
  facet normal 0 0 1
    outer loop
      vertex 0.4 0.69282 3.3134
      vertex 0.0499992 0.9 3.3134
      vertex 0.0499992 0.786602 3.3134
    endloop
  endfacet
  facet normal -0.707107 -0.707107 0
    outer loop
      vertex -0.5 -0.866025 0
      vertex -0.866025 -0.5 3.3134
      vertex -0.866025 -0.5 0
    endloop
  endfacet
  facet normal -0.707107 -0.707107 0
    outer loop
      vertex -0.866025 -0.5 3.3134
      vertex -0.5 -0.866025 0
      vertex -0.5 -0.866025 3.3134
    endloop
  endfacet
  facet normal 0 0 -1
    outer loop
      vertex 0.799999 0 0
      vertex 1 0 0
      vertex 0.866025 -0.5 0
    endloop
  endfacet
  facet normal 0 0 -1
    outer loop
      vertex 1 0 0
      vertex 0.799999 0 0
      vertex 0.866025 0.5 0
    endloop
  endfacet
  facet normal 0 0 -1
    outer loop
      vertex 0.866025 -0.5 0
      vertex 0.69282 -0.4 0
      vertex 0.799999 0 0
    endloop
  endfacet
  facet normal 0 0 -1
    outer loop
      vertex 0.5 -0.866025 0
      vertex 0.69282 -0.4 0
      vertex 0.866025 -0.5 0
    endloop
  endfacet
  facet normal 0 0 -1
    outer loop
      vertex 0.5 -0.866025 0
      vertex 0.4 -0.69282 0
      vertex 0.69282 -0.4 0
    endloop
  endfacet
  facet normal 0 0 -1
    outer loop
      vertex 0 -1 0
      vertex 0.4 -0.69282 0
      vertex 0.5 -0.866025 0
    endloop
  endfacet
  facet normal 0 0 -1
    outer loop
      vertex 0 -1 0
      vertex 0 -0.799999 0
      vertex 0.4 -0.69282 0
    endloop
  endfacet
  facet normal 0 0 -1
    outer loop
      vertex 0 -1 0
      vertex -0.4 -0.69282 0
      vertex 0 -0.799999 0
    endloop
  endfacet
  facet normal 0 0 -1
    outer loop
      vertex -0.5 -0.866025 0
      vertex -0.4 -0.69282 0
      vertex 0 -1 0
    endloop
  endfacet
  facet normal 0 0 -1
    outer loop
      vertex -0.5 -0.866025 0
      vertex -0.69282 -0.4 0
      vertex -0.4 -0.69282 0
    endloop
  endfacet
  facet normal -0 0 -1
    outer loop
      vertex -0.69282 -0.4 0
      vertex -0.866025 -0.5 0
      vertex -0.799999 0 0
    endloop
  endfacet
  facet normal 0 0 -1
    outer loop
      vertex -0.866025 -0.5 0
      vertex -0.69282 -0.4 0
      vertex -0.5 -0.866025 0
    endloop
  endfacet
  facet normal 0 0 -1
    outer loop
      vertex 0.69282 0.4 0
      vertex 0.866025 0.5 0
      vertex 0.799999 0 0
    endloop
  endfacet
  facet normal 0 0 -1
    outer loop
      vertex 0.69282 0.4 0
      vertex 0.5 0.866025 0
      vertex 0.866025 0.5 0
    endloop
  endfacet
  facet normal 0 0 -1
    outer loop
      vertex 0.4 0.69282 0
      vertex 0.5 0.866025 0
      vertex 0.69282 0.4 0
    endloop
  endfacet
  facet normal 0 0 -1
    outer loop
      vertex 0 0.799999 0
      vertex 0.5 0.866025 0
      vertex 0.4 0.69282 0
    endloop
  endfacet
  facet normal 0 0 -1
    outer loop
      vertex 0 0.799999 0
      vertex 0 1 0
      vertex 0.5 0.866025 0
    endloop
  endfacet
  facet normal 0 0 -1
    outer loop
      vertex -0.4 0.69282 0
      vertex 0 1 0
      vertex 0 0.799999 0
    endloop
  endfacet
  facet normal 0 0 -1
    outer loop
      vertex -0.4 0.69282 0
      vertex -0.5 0.866025 0
      vertex 0 1 0
    endloop
  endfacet
  facet normal 0 0 -1
    outer loop
      vertex -0.69282 0.4 0
      vertex -0.5 0.866025 0
      vertex -0.4 0.69282 0
    endloop
  endfacet
  facet normal 0 0 -1
    outer loop
      vertex -0.69282 0.4 0
      vertex -0.866025 0.5 0
      vertex -0.5 0.866025 0
    endloop
  endfacet
  facet normal 0 0 -1
    outer loop
      vertex -0.799999 0 0
      vertex -0.866025 0.5 0
      vertex -0.69282 0.4 0
    endloop
  endfacet
  facet normal 0 0 -1
    outer loop
      vertex -1 0 0
      vertex -0.799999 0 0
      vertex -0.866025 -0.5 0
    endloop
  endfacet
  facet normal 0 0 -1
    outer loop
      vertex -0.799999 0 0
      vertex -1 0 0
      vertex -0.866025 0.5 0
    endloop
  endfacet
  facet normal -0.25882 -0.965926 0
    outer loop
      vertex -0.5 -0.866025 0
      vertex 0 -1 3.3134
      vertex -0.5 -0.866025 3.3134
    endloop
  endfacet
  facet normal -0.25882 -0.965926 -0
    outer loop
      vertex 0 -1 3.3134
      vertex -0.5 -0.866025 0
      vertex 0 -1 0
    endloop
  endfacet
  facet normal 0.965926 0.258818 0
    outer loop
      vertex -0.69282 -0.4 3.3134
      vertex -0.799999 0 3.2134
      vertex -0.799999 0 3.3134
    endloop
  endfacet
  facet normal 0.965926 0.258818 0
    outer loop
      vertex -0.799999 0 3.2134
      vertex -0.69282 -0.4 3.3134
      vertex -0.69282 -0.4 3.2134
    endloop
  endfacet
  facet normal 0.965926 0.258818 0
    outer loop
      vertex -0.786602 -0.0499992 3.1134
      vertex -0.69282 -0.4 3.1134
      vertex -0.786602 -0.0499992 0.561399
    endloop
  endfacet
  facet normal 0.965927 0.258815 0
    outer loop
      vertex -0.786602 -0.0499992 0.561399
      vertex -0.799999 0 0
      vertex -0.799999 0 0.561399
    endloop
  endfacet
  facet normal 0.965926 0.258818 -0
    outer loop
      vertex -0.69282 -0.4 0
      vertex -0.786602 -0.0499992 0.561399
      vertex -0.69282 -0.4 3.1134
    endloop
  endfacet
  facet normal 0.965926 0.258818 2.76396e-07
    outer loop
      vertex -0.786602 -0.0499992 0.561399
      vertex -0.69282 -0.4 0
      vertex -0.799999 0 0
    endloop
  endfacet
  facet normal -0.707107 -0.707107 0
    outer loop
      vertex 0.69282 0.4 3.2134
      vertex 0.4 0.69282 3.3134
      vertex 0.4 0.69282 3.2134
    endloop
  endfacet
  facet normal -0.707107 -0.707107 0
    outer loop
      vertex 0.4 0.69282 3.3134
      vertex 0.69282 0.4 3.2134
      vertex 0.69282 0.4 3.3134
    endloop
  endfacet
  facet normal -0.707107 -0.707107 0
    outer loop
      vertex 0.69282 0.4 0
      vertex 0.4 0.69282 3.1134
      vertex 0.4 0.69282 0
    endloop
  endfacet
  facet normal -0.707107 -0.707107 0
    outer loop
      vertex 0.4 0.69282 3.1134
      vertex 0.69282 0.4 0
      vertex 0.69282 0.4 3.1134
    endloop
  endfacet
  facet normal -0.965926 -0.258818 0
    outer loop
      vertex 0.799999 0 3.2134
      vertex 0.69282 0.4 3.3134
      vertex 0.69282 0.4 3.2134
    endloop
  endfacet
  facet normal -0.965926 -0.258818 0
    outer loop
      vertex 0.69282 0.4 3.3134
      vertex 0.799999 0 3.2134
      vertex 0.799999 0 3.3134
    endloop
  endfacet
  facet normal -0.965926 -0.258818 0
    outer loop
      vertex 0.69282 0.4 0
      vertex 0.786602 0.0499992 0.561399
      vertex 0.69282 0.4 3.1134
    endloop
  endfacet
  facet normal -0.965926 -0.258818 2.76396e-07
    outer loop
      vertex 0.799999 0 0
      vertex 0.786602 0.0499992 0.561399
      vertex 0.69282 0.4 0
    endloop
  endfacet
  facet normal -0.965927 -0.258815 0
    outer loop
      vertex 0.786602 0.0499992 0.561399
      vertex 0.799999 0 0
      vertex 0.799999 0 0.561399
    endloop
  endfacet
  facet normal -0.965926 -0.258818 0
    outer loop
      vertex 0.69282 0.4 3.1134
      vertex 0.786602 0.0499992 0.561399
      vertex 0.786602 0.0499992 3.1134
    endloop
  endfacet
  facet normal -0.258818 -0.965926 0
    outer loop
      vertex 0.0499992 0.786602 3.2134
      vertex 0.4 0.69282 3.3134
      vertex 0.0499992 0.786602 3.3134
    endloop
  endfacet
  facet normal -0.258818 -0.965926 -0
    outer loop
      vertex 0.4 0.69282 3.3134
      vertex 0.0499992 0.786602 3.2134
      vertex 0.4 0.69282 3.2134
    endloop
  endfacet
  facet normal -0.258815 -0.965927 -0
    outer loop
      vertex 0 0.799999 3.11302
      vertex 0 0.799999 0
      vertex 0.0499992 0.786602 3.11302
    endloop
  endfacet
  facet normal -0.258818 -0.965926 0
    outer loop
      vertex 0.0499992 0.786602 3.11302
      vertex 0.4 0.69282 3.1134
      vertex 0.0499992 0.786602 3.1134
    endloop
  endfacet
  facet normal -0.258818 -0.965926 4.98449e-08
    outer loop
      vertex 0.4 0.69282 0
      vertex 0.0499992 0.786602 3.11302
      vertex 0 0.799999 0
    endloop
  endfacet
  facet normal -0.258818 -0.965926 0
    outer loop
      vertex 0.0499992 0.786602 3.11302
      vertex 0.4 0.69282 0
      vertex 0.4 0.69282 3.1134
    endloop
  endfacet
  facet normal -0.258818 0.965926 0
    outer loop
      vertex 0.4 -0.69282 3.2134
      vertex 0.0499992 -0.786602 3.3134
      vertex 0.4 -0.69282 3.3134
    endloop
  endfacet
  facet normal -0.258818 0.965926 0
    outer loop
      vertex 0.0499992 -0.786602 3.3134
      vertex 0.4 -0.69282 3.2134
      vertex 0.0499992 -0.786602 3.2134
    endloop
  endfacet
  facet normal -0.258818 0.965926 0
    outer loop
      vertex 0.4 -0.69282 3.1134
      vertex 0.0499992 -0.786602 3.11302
      vertex 0.0499992 -0.786602 3.1134
    endloop
  endfacet
  facet normal -0.258818 0.965926 0
    outer loop
      vertex 0.4 -0.69282 0
      vertex 0.0499992 -0.786602 3.11302
      vertex 0.4 -0.69282 3.1134
    endloop
  endfacet
  facet normal -0.258818 0.965926 4.98449e-08
    outer loop
      vertex 0 -0.799999 0
      vertex 0.0499992 -0.786602 3.11302
      vertex 0.4 -0.69282 0
    endloop
  endfacet
  facet normal -0.258815 0.965927 0
    outer loop
      vertex 0.0499992 -0.786602 3.11302
      vertex 0 -0.799999 0
      vertex 0 -0.799999 3.11302
    endloop
  endfacet
  facet normal -0.965926 0.258818 0
    outer loop
      vertex 0.69282 -0.4 3.2134
      vertex 0.799999 0 3.3134
      vertex 0.799999 0 3.2134
    endloop
  endfacet
  facet normal -0.965926 0.258818 0
    outer loop
      vertex 0.799999 0 3.3134
      vertex 0.69282 -0.4 3.2134
      vertex 0.69282 -0.4 3.3134
    endloop
  endfacet
  facet normal -0.965927 0.258815 0
    outer loop
      vertex 0.799999 0 0
      vertex 0.786602 -0.0499992 0.561399
      vertex 0.799999 0 0.561399
    endloop
  endfacet
  facet normal -0.965926 0.258818 2.76396e-07
    outer loop
      vertex 0.69282 -0.4 0
      vertex 0.786602 -0.0499992 0.561399
      vertex 0.799999 0 0
    endloop
  endfacet
  facet normal -0.965926 0.258818 0
    outer loop
      vertex 0.69282 -0.4 3.1134
      vertex 0.786602 -0.0499992 0.561399
      vertex 0.69282 -0.4 0
    endloop
  endfacet
  facet normal -0.965926 0.258818 0
    outer loop
      vertex 0.786602 -0.0499992 0.561399
      vertex 0.69282 -0.4 3.1134
      vertex 0.786602 -0.0499992 3.1134
    endloop
  endfacet
  facet normal 0.707107 -0.707107 0
    outer loop
      vertex -0.69282 0.4 3.3134
      vertex -0.4 0.69282 3.2134
      vertex -0.4 0.69282 3.3134
    endloop
  endfacet
  facet normal 0.707107 -0.707107 0
    outer loop
      vertex -0.4 0.69282 3.2134
      vertex -0.69282 0.4 3.3134
      vertex -0.69282 0.4 3.2134
    endloop
  endfacet
  facet normal 0.707107 -0.707107 0
    outer loop
      vertex -0.69282 0.4 3.1134
      vertex -0.4 0.69282 0
      vertex -0.4 0.69282 3.1134
    endloop
  endfacet
  facet normal 0.707107 -0.707107 0
    outer loop
      vertex -0.4 0.69282 0
      vertex -0.69282 0.4 3.1134
      vertex -0.69282 0.4 0
    endloop
  endfacet
  facet normal 0.258818 -0.965926 0
    outer loop
      vertex -0.4 0.69282 3.2134
      vertex -0.0499992 0.786602 3.3134
      vertex -0.4 0.69282 3.3134
    endloop
  endfacet
  facet normal 0.258818 -0.965926 0
    outer loop
      vertex -0.0499992 0.786602 3.3134
      vertex -0.4 0.69282 3.2134
      vertex -0.0499992 0.786602 3.2134
    endloop
  endfacet
  facet normal 0.258818 -0.965926 0
    outer loop
      vertex -0.4 0.69282 3.1134
      vertex -0.0499992 0.786602 3.11302
      vertex -0.0499992 0.786602 3.1134
    endloop
  endfacet
  facet normal 0.258818 -0.965926 0
    outer loop
      vertex -0.4 0.69282 0
      vertex -0.0499992 0.786602 3.11302
      vertex -0.4 0.69282 3.1134
    endloop
  endfacet
  facet normal 0.258818 -0.965926 4.98449e-08
    outer loop
      vertex 0 0.799999 0
      vertex -0.0499992 0.786602 3.11302
      vertex -0.4 0.69282 0
    endloop
  endfacet
  facet normal 0.258815 -0.965927 0
    outer loop
      vertex -0.0499992 0.786602 3.11302
      vertex 0 0.799999 0
      vertex 0 0.799999 3.11302
    endloop
  endfacet
  facet normal 0.965926 -0.258818 0
    outer loop
      vertex -0.799999 0 3.3134
      vertex -0.69282 0.4 3.2134
      vertex -0.69282 0.4 3.3134
    endloop
  endfacet
  facet normal 0.965926 -0.258818 0
    outer loop
      vertex -0.69282 0.4 3.2134
      vertex -0.799999 0 3.3134
      vertex -0.799999 0 3.2134
    endloop
  endfacet
  facet normal 0.965926 -0.258818 0
    outer loop
      vertex -0.786602 0.0499992 0.561399
      vertex -0.69282 0.4 3.1134
      vertex -0.786602 0.0499992 3.1134
    endloop
  endfacet
  facet normal 0.965926 -0.258818 0
    outer loop
      vertex -0.69282 0.4 3.1134
      vertex -0.786602 0.0499992 0.561399
      vertex -0.69282 0.4 0
    endloop
  endfacet
  facet normal 0.965927 -0.258815 0
    outer loop
      vertex -0.799999 0 0
      vertex -0.786602 0.0499992 0.561399
      vertex -0.799999 0 0.561399
    endloop
  endfacet
  facet normal 0.965926 -0.258818 2.76396e-07
    outer loop
      vertex -0.786602 0.0499992 0.561399
      vertex -0.799999 0 0
      vertex -0.69282 0.4 0
    endloop
  endfacet
  facet normal -0.707107 0.707107 0
    outer loop
      vertex 0.4 -0.69282 3.2134
      vertex 0.69282 -0.4 3.3134
      vertex 0.69282 -0.4 3.2134
    endloop
  endfacet
  facet normal -0.707107 0.707107 0
    outer loop
      vertex 0.69282 -0.4 3.3134
      vertex 0.4 -0.69282 3.2134
      vertex 0.4 -0.69282 3.3134
    endloop
  endfacet
  facet normal -0.707107 0.707107 0
    outer loop
      vertex 0.4 -0.69282 0
      vertex 0.69282 -0.4 3.1134
      vertex 0.69282 -0.4 0
    endloop
  endfacet
  facet normal -0.707107 0.707107 0
    outer loop
      vertex 0.69282 -0.4 3.1134
      vertex 0.4 -0.69282 0
      vertex 0.4 -0.69282 3.1134
    endloop
  endfacet
  facet normal 0.707107 0.707107 0
    outer loop
      vertex -0.4 -0.69282 3.3134
      vertex -0.69282 -0.4 3.2134
      vertex -0.69282 -0.4 3.3134
    endloop
  endfacet
  facet normal 0.707107 0.707107 0
    outer loop
      vertex -0.69282 -0.4 3.2134
      vertex -0.4 -0.69282 3.3134
      vertex -0.4 -0.69282 3.2134
    endloop
  endfacet
  facet normal 0.707107 0.707107 0
    outer loop
      vertex -0.4 -0.69282 3.1134
      vertex -0.69282 -0.4 0
      vertex -0.69282 -0.4 3.1134
    endloop
  endfacet
  facet normal 0.707107 0.707107 0
    outer loop
      vertex -0.69282 -0.4 0
      vertex -0.4 -0.69282 3.1134
      vertex -0.4 -0.69282 0
    endloop
  endfacet
  facet normal 0.258818 0.965926 -0
    outer loop
      vertex -0.0499992 -0.786602 3.2134
      vertex -0.4 -0.69282 3.3134
      vertex -0.0499992 -0.786602 3.3134
    endloop
  endfacet
  facet normal 0.258818 0.965926 0
    outer loop
      vertex -0.4 -0.69282 3.3134
      vertex -0.0499992 -0.786602 3.2134
      vertex -0.4 -0.69282 3.2134
    endloop
  endfacet
  facet normal 0.258815 0.965927 0
    outer loop
      vertex 0 -0.799999 3.11302
      vertex 0 -0.799999 0
      vertex -0.0499992 -0.786602 3.11302
    endloop
  endfacet
  facet normal 0.258818 0.965926 -0
    outer loop
      vertex -0.0499992 -0.786602 3.11302
      vertex -0.4 -0.69282 3.1134
      vertex -0.0499992 -0.786602 3.1134
    endloop
  endfacet
  facet normal 0.258818 0.965926 4.98449e-08
    outer loop
      vertex -0.4 -0.69282 0
      vertex -0.0499992 -0.786602 3.11302
      vertex 0 -0.799999 0
    endloop
  endfacet
  facet normal 0.258818 0.965926 0
    outer loop
      vertex -0.0499992 -0.786602 3.11302
      vertex -0.4 -0.69282 0
      vertex -0.4 -0.69282 3.1134
    endloop
  endfacet
  facet normal -1 0 0
    outer loop
      vertex 0.9 -0.0499992 0.561399
      vertex 0.9 0.0499992 3.2134
      vertex 0.9 0.0499992 0.561399
    endloop
  endfacet
  facet normal -1 -0 0
    outer loop
      vertex 0.9 0.0499992 3.2134
      vertex 0.9 -0.0499992 0.561399
      vertex 0.9 -0.0499992 3.2134
    endloop
  endfacet
  facet normal 0 0 -1
    outer loop
      vertex 0.886602 -0.0499992 3.2134
      vertex 0.9 0.0499992 3.2134
      vertex 0.9 -0.0499992 3.2134
    endloop
  endfacet
  facet normal 0 0 -1
    outer loop
      vertex 0.886602 -0.0499992 3.2134
      vertex 0.886602 0.0499992 3.2134
      vertex 0.9 0.0499992 3.2134
    endloop
  endfacet
  facet normal 0 0 -1
    outer loop
      vertex 0.886602 -0.0499992 3.2134
      vertex 0.799999 0 3.2134
      vertex 0.886602 0.0499992 3.2134
    endloop
  endfacet
  facet normal 0 0 -1
    outer loop
      vertex 0.69282 -0.4 3.2134
      vertex 0.886602 -0.0499992 3.2134
      vertex 0.779423 -0.45 3.2134
    endloop
  endfacet
  facet normal -0 0 -1
    outer loop
      vertex 0.886602 -0.0499992 3.2134
      vertex 0.69282 -0.4 3.2134
      vertex 0.799999 0 3.2134
    endloop
  endfacet
  facet normal 0 0 -1
    outer loop
      vertex 0.45 -0.779423 3.2134
      vertex 0.69282 -0.4 3.2134
      vertex 0.779423 -0.45 3.2134
    endloop
  endfacet
  facet normal 0 0 -1
    outer loop
      vertex 0.45 -0.779423 3.2134
      vertex 0.4 -0.69282 3.2134
      vertex 0.69282 -0.4 3.2134
    endloop
  endfacet
  facet normal 0 0 -1
    outer loop
      vertex 0.0499992 -0.886602 3.2134
      vertex 0.4 -0.69282 3.2134
      vertex 0.45 -0.779423 3.2134
    endloop
  endfacet
  facet normal 0 0 -1
    outer loop
      vertex 0.4 -0.69282 3.2134
      vertex 0.0499992 -0.886602 3.2134
      vertex 0.0499992 -0.786602 3.2134
    endloop
  endfacet
  facet normal 0 0 -1
    outer loop
      vertex 0.69282 0.4 3.2134
      vertex 0.886602 0.0499992 3.2134
      vertex 0.799999 0 3.2134
    endloop
  endfacet
  facet normal 0 0 -1
    outer loop
      vertex 0.886602 0.0499992 3.2134
      vertex 0.69282 0.4 3.2134
      vertex 0.779423 0.45 3.2134
    endloop
  endfacet
  facet normal 0 0 -1
    outer loop
      vertex 0.69282 0.4 3.2134
      vertex 0.45 0.779423 3.2134
      vertex 0.779423 0.45 3.2134
    endloop
  endfacet
  facet normal 0 0 -1
    outer loop
      vertex 0.4 0.69282 3.2134
      vertex 0.45 0.779423 3.2134
      vertex 0.69282 0.4 3.2134
    endloop
  endfacet
  facet normal 0 0 -1
    outer loop
      vertex 0.0499992 0.786602 3.2134
      vertex 0.45 0.779423 3.2134
      vertex 0.4 0.69282 3.2134
    endloop
  endfacet
  facet normal 0 0 -1
    outer loop
      vertex 0.45 0.779423 3.2134
      vertex 0.0499992 0.786602 3.2134
      vertex 0.0499992 0.886602 3.2134
    endloop
  endfacet
  facet normal 0 0 -1
    outer loop
      vertex -0.0499992 -0.886602 3.2134
      vertex -0.4 -0.69282 3.2134
      vertex -0.0499992 -0.786602 3.2134
    endloop
  endfacet
  facet normal 0 0 -1
    outer loop
      vertex -0.45 -0.779423 3.2134
      vertex -0.4 -0.69282 3.2134
      vertex -0.0499992 -0.886602 3.2134
    endloop
  endfacet
  facet normal 0 0 -1
    outer loop
      vertex -0.45 -0.779423 3.2134
      vertex -0.69282 -0.4 3.2134
      vertex -0.4 -0.69282 3.2134
    endloop
  endfacet
  facet normal 0 0 -1
    outer loop
      vertex -0.779423 -0.45 3.2134
      vertex -0.69282 -0.4 3.2134
      vertex -0.45 -0.779423 3.2134
    endloop
  endfacet
  facet normal 0 0 -1
    outer loop
      vertex -0.886602 -0.0499992 3.2134
      vertex -0.69282 -0.4 3.2134
      vertex -0.779423 -0.45 3.2134
    endloop
  endfacet
  facet normal 0 0 -1
    outer loop
      vertex -0.69282 -0.4 3.2134
      vertex -0.886602 -0.0499992 3.2134
      vertex -0.799999 0 3.2134
    endloop
  endfacet
  facet normal 0 0 -1
    outer loop
      vertex -0.4 0.69282 3.2134
      vertex -0.0499992 0.886602 3.2134
      vertex -0.0499992 0.786602 3.2134
    endloop
  endfacet
  facet normal 0 0 -1
    outer loop
      vertex -0.4 0.69282 3.2134
      vertex -0.45 0.779423 3.2134
      vertex -0.0499992 0.886602 3.2134
    endloop
  endfacet
  facet normal 0 0 -1
    outer loop
      vertex -0.69282 0.4 3.2134
      vertex -0.45 0.779423 3.2134
      vertex -0.4 0.69282 3.2134
    endloop
  endfacet
  facet normal 0 0 -1
    outer loop
      vertex -0.69282 0.4 3.2134
      vertex -0.779423 0.45 3.2134
      vertex -0.45 0.779423 3.2134
    endloop
  endfacet
  facet normal 0 0 -1
    outer loop
      vertex -0.886602 0.0499992 3.2134
      vertex -0.69282 0.4 3.2134
      vertex -0.799999 0 3.2134
    endloop
  endfacet
  facet normal 0 0 -1
    outer loop
      vertex -0.886602 0.0499992 3.2134
      vertex -0.799999 0 3.2134
      vertex -0.886602 -0.0499992 3.2134
    endloop
  endfacet
  facet normal -0 0 -1
    outer loop
      vertex -0.69282 0.4 3.2134
      vertex -0.886602 0.0499992 3.2134
      vertex -0.779423 0.45 3.2134
    endloop
  endfacet
  facet normal 0 0 -1
    outer loop
      vertex -0.9 -0.0499992 3.2134
      vertex -0.886602 0.0499992 3.2134
      vertex -0.886602 -0.0499992 3.2134
    endloop
  endfacet
  facet normal -0 0 -1
    outer loop
      vertex -0.886602 0.0499992 3.2134
      vertex -0.9 -0.0499992 3.2134
      vertex -0.9 0.0499992 3.2134
    endloop
  endfacet
  facet normal 0 0 1
    outer loop
      vertex 0.9 0.0499992 0.561399
      vertex 0.799999 0 0.561399
      vertex 0.9 -0.0499992 0.561399
    endloop
  endfacet
  facet normal 0 -0 1
    outer loop
      vertex 0.799999 0 0.561399
      vertex 0.9 0.0499992 0.561399
      vertex 0.786602 0.0499992 0.561399
    endloop
  endfacet
  facet normal 0 0 1
    outer loop
      vertex 0.9 -0.0499992 0.561399
      vertex 0.799999 0 0.561399
      vertex 0.786602 -0.0499992 0.561399
    endloop
  endfacet
  facet normal 0 -1 0
    outer loop
      vertex 0.786602 0.0499992 3.1134
      vertex 0.786602 0.0499992 0.561399
      vertex 0.886602 0.0499992 3.1134
    endloop
  endfacet
  facet normal 0 -1 0
    outer loop
      vertex 0.886602 0.0499992 3.1134
      vertex 0.9 0.0499992 3.2134
      vertex 0.886602 0.0499992 3.2134
    endloop
  endfacet
  facet normal 0 -1 0
    outer loop
      vertex 0.9 0.0499992 0.561399
      vertex 0.886602 0.0499992 3.1134
      vertex 0.786602 0.0499992 0.561399
    endloop
  endfacet
  facet normal 0 -1 0
    outer loop
      vertex 0.886602 0.0499992 3.1134
      vertex 0.9 0.0499992 0.561399
      vertex 0.9 0.0499992 3.2134
    endloop
  endfacet
  facet normal 0 1 0
    outer loop
      vertex 0.9 -0.0499992 3.2134
      vertex 0.886602 -0.0499992 3.1134
      vertex 0.886602 -0.0499992 3.2134
    endloop
  endfacet
  facet normal 0 1 -0
    outer loop
      vertex 0.9 -0.0499992 0.561399
      vertex 0.886602 -0.0499992 3.1134
      vertex 0.9 -0.0499992 3.2134
    endloop
  endfacet
  facet normal 0 1 0
    outer loop
      vertex 0.9 -0.0499992 0.561399
      vertex 0.786602 -0.0499992 3.1134
      vertex 0.886602 -0.0499992 3.1134
    endloop
  endfacet
  facet normal 0 1 0
    outer loop
      vertex 0.786602 -0.0499992 3.1134
      vertex 0.9 -0.0499992 0.561399
      vertex 0.786602 -0.0499992 0.561399
    endloop
  endfacet
  facet normal 0 0 1
    outer loop
      vertex -0.786602 0.0499992 0.561399
      vertex -0.9 0.0499992 0.561399
      vertex -0.799999 0 0.561399
    endloop
  endfacet
  facet normal 0 0 1
    outer loop
      vertex -0.9 -0.0499992 0.561399
      vertex -0.799999 0 0.561399
      vertex -0.9 0.0499992 0.561399
    endloop
  endfacet
  facet normal 0 0 1
    outer loop
      vertex -0.799999 0 0.561399
      vertex -0.9 -0.0499992 0.561399
      vertex -0.786602 -0.0499992 0.561399
    endloop
  endfacet
  facet normal 1 -0 0
    outer loop
      vertex -0.9 -0.0499992 3.2134
      vertex -0.9 0.0499992 0.561399
      vertex -0.9 0.0499992 3.2134
    endloop
  endfacet
  facet normal 1 0 0
    outer loop
      vertex -0.9 0.0499992 0.561399
      vertex -0.9 -0.0499992 3.2134
      vertex -0.9 -0.0499992 0.561399
    endloop
  endfacet
  facet normal 0 -1 0
    outer loop
      vertex -0.9 0.0499992 3.2134
      vertex -0.886602 0.0499992 3.1134
      vertex -0.886602 0.0499992 3.2134
    endloop
  endfacet
  facet normal 0 -1 0
    outer loop
      vertex -0.9 0.0499992 0.561399
      vertex -0.886602 0.0499992 3.1134
      vertex -0.9 0.0499992 3.2134
    endloop
  endfacet
  facet normal 0 -1 0
    outer loop
      vertex -0.9 0.0499992 0.561399
      vertex -0.786602 0.0499992 3.1134
      vertex -0.886602 0.0499992 3.1134
    endloop
  endfacet
  facet normal 0 -1 -0
    outer loop
      vertex -0.786602 0.0499992 3.1134
      vertex -0.9 0.0499992 0.561399
      vertex -0.786602 0.0499992 0.561399
    endloop
  endfacet
  facet normal 0 1 0
    outer loop
      vertex -0.786602 -0.0499992 3.1134
      vertex -0.786602 -0.0499992 0.561399
      vertex -0.886602 -0.0499992 3.1134
    endloop
  endfacet
  facet normal 0 1 -0
    outer loop
      vertex -0.886602 -0.0499992 3.1134
      vertex -0.9 -0.0499992 3.2134
      vertex -0.886602 -0.0499992 3.2134
    endloop
  endfacet
  facet normal 0 1 0
    outer loop
      vertex -0.9 -0.0499992 0.561399
      vertex -0.886602 -0.0499992 3.1134
      vertex -0.786602 -0.0499992 0.561399
    endloop
  endfacet
  facet normal 0 1 0
    outer loop
      vertex -0.886602 -0.0499992 3.1134
      vertex -0.9 -0.0499992 0.561399
      vertex -0.9 -0.0499992 3.2134
    endloop
  endfacet
  facet normal -0.707107 -0.707107 0
    outer loop
      vertex 0.779423 0.45 3.1134
      vertex 0.45 0.779423 3.2134
      vertex 0.45 0.779423 3.1134
    endloop
  endfacet
  facet normal -0.707107 -0.707107 0
    outer loop
      vertex 0.45 0.779423 3.2134
      vertex 0.779423 0.45 3.1134
      vertex 0.779423 0.45 3.2134
    endloop
  endfacet
  facet normal -0.965926 -0.258817 0
    outer loop
      vertex 0.886602 0.0499992 3.1134
      vertex 0.779423 0.45 3.2134
      vertex 0.779423 0.45 3.1134
    endloop
  endfacet
  facet normal -0.965926 -0.258817 0
    outer loop
      vertex 0.779423 0.45 3.2134
      vertex 0.886602 0.0499992 3.1134
      vertex 0.886602 0.0499992 3.2134
    endloop
  endfacet
  facet normal 0.965926 0.258817 0
    outer loop
      vertex -0.779423 -0.45 3.2134
      vertex -0.886602 -0.0499992 3.1134
      vertex -0.886602 -0.0499992 3.2134
    endloop
  endfacet
  facet normal 0.965926 0.258817 0
    outer loop
      vertex -0.886602 -0.0499992 3.1134
      vertex -0.779423 -0.45 3.2134
      vertex -0.779423 -0.45 3.1134
    endloop
  endfacet
  facet normal 0.707107 -0.707107 0
    outer loop
      vertex -0.779423 0.45 3.2134
      vertex -0.45 0.779423 3.1134
      vertex -0.45 0.779423 3.2134
    endloop
  endfacet
  facet normal 0.707107 -0.707107 0
    outer loop
      vertex -0.45 0.779423 3.1134
      vertex -0.779423 0.45 3.2134
      vertex -0.779423 0.45 3.1134
    endloop
  endfacet
  facet normal -0.965926 0.258817 0
    outer loop
      vertex 0.779423 -0.45 3.1134
      vertex 0.886602 -0.0499992 3.2134
      vertex 0.886602 -0.0499992 3.1134
    endloop
  endfacet
  facet normal -0.965926 0.258817 0
    outer loop
      vertex 0.886602 -0.0499992 3.2134
      vertex 0.779423 -0.45 3.1134
      vertex 0.779423 -0.45 3.2134
    endloop
  endfacet
  facet normal 0.965926 -0.258817 0
    outer loop
      vertex -0.886602 0.0499992 3.2134
      vertex -0.779423 0.45 3.1134
      vertex -0.779423 0.45 3.2134
    endloop
  endfacet
  facet normal 0.965926 -0.258817 0
    outer loop
      vertex -0.779423 0.45 3.1134
      vertex -0.886602 0.0499992 3.2134
      vertex -0.886602 0.0499992 3.1134
    endloop
  endfacet
  facet normal -0.707107 0.707107 0
    outer loop
      vertex 0.45 -0.779423 3.1134
      vertex 0.779423 -0.45 3.2134
      vertex 0.779423 -0.45 3.1134
    endloop
  endfacet
  facet normal -0.707107 0.707107 0
    outer loop
      vertex 0.779423 -0.45 3.2134
      vertex 0.45 -0.779423 3.1134
      vertex 0.45 -0.779423 3.2134
    endloop
  endfacet
  facet normal -0 0 1
    outer loop
      vertex 0.786602 -0.0499992 3.1134
      vertex 0.779423 -0.45 3.1134
      vertex 0.886602 -0.0499992 3.1134
    endloop
  endfacet
  facet normal -0 0 1
    outer loop
      vertex 0.69282 -0.4 3.1134
      vertex 0.779423 -0.45 3.1134
      vertex 0.786602 -0.0499992 3.1134
    endloop
  endfacet
  facet normal 0 0 1
    outer loop
      vertex 0.69282 -0.4 3.1134
      vertex 0.45 -0.779423 3.1134
      vertex 0.779423 -0.45 3.1134
    endloop
  endfacet
  facet normal -0 0 1
    outer loop
      vertex 0.4 -0.69282 3.1134
      vertex 0.45 -0.779423 3.1134
      vertex 0.69282 -0.4 3.1134
    endloop
  endfacet
  facet normal 0 0 1
    outer loop
      vertex 0.0499992 -0.786602 3.1134
      vertex 0.45 -0.779423 3.1134
      vertex 0.4 -0.69282 3.1134
    endloop
  endfacet
  facet normal 0 0 1
    outer loop
      vertex 0.45 -0.779423 3.1134
      vertex 0.0499992 -0.786602 3.1134
      vertex 0.0499992 -0.886602 3.1134
    endloop
  endfacet
  facet normal 0 0 1
    outer loop
      vertex 0.779423 0.45 3.1134
      vertex 0.786602 0.0499992 3.1134
      vertex 0.886602 0.0499992 3.1134
    endloop
  endfacet
  facet normal 0 0 1
    outer loop
      vertex 0.779423 0.45 3.1134
      vertex 0.69282 0.4 3.1134
      vertex 0.786602 0.0499992 3.1134
    endloop
  endfacet
  facet normal 0 0 1
    outer loop
      vertex 0.45 0.779423 3.1134
      vertex 0.69282 0.4 3.1134
      vertex 0.779423 0.45 3.1134
    endloop
  endfacet
  facet normal 0 0 1
    outer loop
      vertex 0.45 0.779423 3.1134
      vertex 0.4 0.69282 3.1134
      vertex 0.69282 0.4 3.1134
    endloop
  endfacet
  facet normal 0 0 1
    outer loop
      vertex 0.0499992 0.886602 3.1134
      vertex 0.4 0.69282 3.1134
      vertex 0.45 0.779423 3.1134
    endloop
  endfacet
  facet normal 0 0 1
    outer loop
      vertex 0.4 0.69282 3.1134
      vertex 0.0499992 0.886602 3.1134
      vertex 0.0499992 0.786602 3.1134
    endloop
  endfacet
  facet normal 0 0 1
    outer loop
      vertex -0.0499992 0.886602 3.1134
      vertex -0.4 0.69282 3.1134
      vertex -0.0499992 0.786602 3.1134
    endloop
  endfacet
  facet normal -0 0 1
    outer loop
      vertex -0.45 0.779423 3.1134
      vertex -0.4 0.69282 3.1134
      vertex -0.0499992 0.886602 3.1134
    endloop
  endfacet
  facet normal 0 0 1
    outer loop
      vertex -0.45 0.779423 3.1134
      vertex -0.69282 0.4 3.1134
      vertex -0.4 0.69282 3.1134
    endloop
  endfacet
  facet normal -0 0 1
    outer loop
      vertex -0.779423 0.45 3.1134
      vertex -0.69282 0.4 3.1134
      vertex -0.45 0.779423 3.1134
    endloop
  endfacet
  facet normal 0 0 1
    outer loop
      vertex -0.779423 0.45 3.1134
      vertex -0.786602 0.0499992 3.1134
      vertex -0.69282 0.4 3.1134
    endloop
  endfacet
  facet normal 0 -0 1
    outer loop
      vertex -0.786602 0.0499992 3.1134
      vertex -0.779423 0.45 3.1134
      vertex -0.886602 0.0499992 3.1134
    endloop
  endfacet
  facet normal 0 0 1
    outer loop
      vertex -0.4 -0.69282 3.1134
      vertex -0.0499992 -0.886602 3.1134
      vertex -0.0499992 -0.786602 3.1134
    endloop
  endfacet
  facet normal 0 0 1
    outer loop
      vertex -0.4 -0.69282 3.1134
      vertex -0.45 -0.779423 3.1134
      vertex -0.0499992 -0.886602 3.1134
    endloop
  endfacet
  facet normal 0 0 1
    outer loop
      vertex -0.69282 -0.4 3.1134
      vertex -0.45 -0.779423 3.1134
      vertex -0.4 -0.69282 3.1134
    endloop
  endfacet
  facet normal 0 0 1
    outer loop
      vertex -0.69282 -0.4 3.1134
      vertex -0.779423 -0.45 3.1134
      vertex -0.45 -0.779423 3.1134
    endloop
  endfacet
  facet normal 0 0 1
    outer loop
      vertex -0.786602 -0.0499992 3.1134
      vertex -0.779423 -0.45 3.1134
      vertex -0.69282 -0.4 3.1134
    endloop
  endfacet
  facet normal 0 0 1
    outer loop
      vertex -0.779423 -0.45 3.1134
      vertex -0.786602 -0.0499992 3.1134
      vertex -0.886602 -0.0499992 3.1134
    endloop
  endfacet
  facet normal -0.258817 -0.965926 0
    outer loop
      vertex 0.0499992 0.886602 3.1134
      vertex 0.45 0.779423 3.2134
      vertex 0.0499992 0.886602 3.2134
    endloop
  endfacet
  facet normal -0.258817 -0.965926 -0
    outer loop
      vertex 0.45 0.779423 3.2134
      vertex 0.0499992 0.886602 3.1134
      vertex 0.45 0.779423 3.1134
    endloop
  endfacet
  facet normal 0.258817 -0.965926 0
    outer loop
      vertex -0.45 0.779423 3.1134
      vertex -0.0499992 0.886602 3.2134
      vertex -0.45 0.779423 3.2134
    endloop
  endfacet
  facet normal 0.258817 -0.965926 0
    outer loop
      vertex -0.0499992 0.886602 3.2134
      vertex -0.45 0.779423 3.1134
      vertex -0.0499992 0.886602 3.1134
    endloop
  endfacet
  facet normal 0.258817 0.965926 -0
    outer loop
      vertex -0.0499992 -0.886602 3.1134
      vertex -0.45 -0.779423 3.2134
      vertex -0.0499992 -0.886602 3.2134
    endloop
  endfacet
  facet normal 0.258817 0.965926 0
    outer loop
      vertex -0.45 -0.779423 3.2134
      vertex -0.0499992 -0.886602 3.1134
      vertex -0.45 -0.779423 3.1134
    endloop
  endfacet
  facet normal 0.707107 0.707107 0
    outer loop
      vertex -0.45 -0.779423 3.2134
      vertex -0.779423 -0.45 3.1134
      vertex -0.779423 -0.45 3.2134
    endloop
  endfacet
  facet normal 0.707107 0.707107 0
    outer loop
      vertex -0.779423 -0.45 3.1134
      vertex -0.45 -0.779423 3.2134
      vertex -0.45 -0.779423 3.1134
    endloop
  endfacet
  facet normal -0.258817 0.965926 0
    outer loop
      vertex 0.45 -0.779423 3.1134
      vertex 0.0499992 -0.886602 3.2134
      vertex 0.45 -0.779423 3.2134
    endloop
  endfacet
  facet normal -0.258817 0.965926 0
    outer loop
      vertex 0.0499992 -0.886602 3.2134
      vertex 0.45 -0.779423 3.1134
      vertex 0.0499992 -0.886602 3.1134
    endloop
  endfacet
  facet normal -1 0 0
    outer loop
      vertex 0.0499992 0.886602 3.2134
      vertex 0.0499992 0.9 3.11302
      vertex 0.0499992 0.886602 3.1134
    endloop
  endfacet
  facet normal -1 0 0
    outer loop
      vertex 0.0499992 0.786602 3.11302
      vertex 0.0499992 0.886602 3.1134
      vertex 0.0499992 0.9 3.11302
    endloop
  endfacet
  facet normal -1 -0 0
    outer loop
      vertex 0.0499992 0.886602 3.1134
      vertex 0.0499992 0.786602 3.11302
      vertex 0.0499992 0.786602 3.1134
    endloop
  endfacet
  facet normal -1 0 0
    outer loop
      vertex 0.0499992 0.9 3.11302
      vertex 0.0499992 0.886602 3.2134
      vertex 0.0499992 0.9 3.3134
    endloop
  endfacet
  facet normal -1 0 0
    outer loop
      vertex 0.0499992 0.786602 3.3134
      vertex 0.0499992 0.886602 3.2134
      vertex 0.0499992 0.786602 3.2134
    endloop
  endfacet
  facet normal -1 0 0
    outer loop
      vertex 0.0499992 0.886602 3.2134
      vertex 0.0499992 0.786602 3.3134
      vertex 0.0499992 0.9 3.3134
    endloop
  endfacet
  facet normal -1 0 0
    outer loop
      vertex 0.0499992 -0.786602 3.11302
      vertex 0.0499992 -0.886602 3.1134
      vertex 0.0499992 -0.786602 3.1134
    endloop
  endfacet
  facet normal -1 -0 0
    outer loop
      vertex 0.0499992 -0.886602 3.1134
      vertex 0.0499992 -0.9 3.11302
      vertex 0.0499992 -0.886602 3.2134
    endloop
  endfacet
  facet normal -1 0 0
    outer loop
      vertex 0.0499992 -0.9 3.11302
      vertex 0.0499992 -0.886602 3.1134
      vertex 0.0499992 -0.786602 3.11302
    endloop
  endfacet
  facet normal -1 0 0
    outer loop
      vertex 0.0499992 -0.886602 3.2134
      vertex 0.0499992 -0.786602 3.3134
      vertex 0.0499992 -0.786602 3.2134
    endloop
  endfacet
  facet normal -1 0 0
    outer loop
      vertex 0.0499992 -0.886602 3.2134
      vertex 0.0499992 -0.9 3.3134
      vertex 0.0499992 -0.786602 3.3134
    endloop
  endfacet
  facet normal -1 0 0
    outer loop
      vertex 0.0499992 -0.9 3.3134
      vertex 0.0499992 -0.886602 3.2134
      vertex 0.0499992 -0.9 3.11302
    endloop
  endfacet
  facet normal 0 0 1
    outer loop
      vertex 0.0499992 0.9 3.11302
      vertex 0 0.799999 3.11302
      vertex 0.0499992 0.786602 3.11302
    endloop
  endfacet
  facet normal -0 0 1
    outer loop
      vertex -0.0499992 0.9 3.11302
      vertex 0 0.799999 3.11302
      vertex 0.0499992 0.9 3.11302
    endloop
  endfacet
  facet normal 0 0 1
    outer loop
      vertex 0 0.799999 3.11302
      vertex -0.0499992 0.9 3.11302
      vertex -0.0499992 0.786602 3.11302
    endloop
  endfacet
  facet normal -0 0 1
    outer loop
      vertex 0 -0.799999 3.11302
      vertex 0.0499992 -0.9 3.11302
      vertex 0.0499992 -0.786602 3.11302
    endloop
  endfacet
  facet normal 0 0 1
    outer loop
      vertex -0.0499992 -0.9 3.11302
      vertex 0 -0.799999 3.11302
      vertex -0.0499992 -0.786602 3.11302
    endloop
  endfacet
  facet normal 0 0 1
    outer loop
      vertex 0 -0.799999 3.11302
      vertex -0.0499992 -0.9 3.11302
      vertex 0.0499992 -0.9 3.11302
    endloop
  endfacet
  facet normal 1 0 0
    outer loop
      vertex -0.0499992 -0.786602 3.3134
      vertex -0.0499992 -0.886602 3.2134
      vertex -0.0499992 -0.786602 3.2134
    endloop
  endfacet
  facet normal 1 0 0
    outer loop
      vertex -0.0499992 -0.9 3.11302
      vertex -0.0499992 -0.886602 3.2134
      vertex -0.0499992 -0.9 3.3134
    endloop
  endfacet
  facet normal 1 -0 0
    outer loop
      vertex -0.0499992 -0.9 3.3134
      vertex -0.0499992 -0.886602 3.2134
      vertex -0.0499992 -0.786602 3.3134
    endloop
  endfacet
  facet normal 1 -0 0
    outer loop
      vertex -0.0499992 -0.886602 3.1134
      vertex -0.0499992 -0.786602 3.11302
      vertex -0.0499992 -0.786602 3.1134
    endloop
  endfacet
  facet normal 1 0 0
    outer loop
      vertex -0.0499992 -0.886602 3.1134
      vertex -0.0499992 -0.9 3.11302
      vertex -0.0499992 -0.786602 3.11302
    endloop
  endfacet
  facet normal 1 0 0
    outer loop
      vertex -0.0499992 -0.886602 3.2134
      vertex -0.0499992 -0.9 3.11302
      vertex -0.0499992 -0.886602 3.1134
    endloop
  endfacet
  facet normal 1 0 0
    outer loop
      vertex -0.0499992 0.9 3.3134
      vertex -0.0499992 0.886602 3.2134
      vertex -0.0499992 0.9 3.11302
    endloop
  endfacet
  facet normal 1 -0 0
    outer loop
      vertex -0.0499992 0.786602 3.3134
      vertex -0.0499992 0.886602 3.2134
      vertex -0.0499992 0.9 3.3134
    endloop
  endfacet
  facet normal 1 0 0
    outer loop
      vertex -0.0499992 0.886602 3.2134
      vertex -0.0499992 0.786602 3.3134
      vertex -0.0499992 0.786602 3.2134
    endloop
  endfacet
  facet normal 1 -0 0
    outer loop
      vertex -0.0499992 0.886602 3.1134
      vertex -0.0499992 0.9 3.11302
      vertex -0.0499992 0.886602 3.2134
    endloop
  endfacet
  facet normal 1 0 0
    outer loop
      vertex -0.0499992 0.786602 3.11302
      vertex -0.0499992 0.886602 3.1134
      vertex -0.0499992 0.786602 3.1134
    endloop
  endfacet
  facet normal 1 0 0
    outer loop
      vertex -0.0499992 0.886602 3.1134
      vertex -0.0499992 0.786602 3.11302
      vertex -0.0499992 0.9 3.11302
    endloop
  endfacet
  facet normal 0 -1 0
    outer loop
      vertex -0.0499992 0.9 3.11302
      vertex 0.0499992 0.9 3.3134
      vertex -0.0499992 0.9 3.3134
    endloop
  endfacet
  facet normal 0 -1 -0
    outer loop
      vertex 0.0499992 0.9 3.3134
      vertex -0.0499992 0.9 3.11302
      vertex 0.0499992 0.9 3.11302
    endloop
  endfacet
  facet normal 0 1 -0
    outer loop
      vertex 0.0499992 -0.9 3.11302
      vertex -0.0499992 -0.9 3.3134
      vertex 0.0499992 -0.9 3.3134
    endloop
  endfacet
  facet normal 0 1 0
    outer loop
      vertex -0.0499992 -0.9 3.3134
      vertex 0.0499992 -0.9 3.11302
      vertex -0.0499992 -0.9 3.11302
    endloop
  endfacet
endsolid OpenSCAD_Model
